<?xml version="1.0" encoding="iso-8859-1"?>
<!-- Generator: Adobe Illustrator 23.0.6, SVG Export Plug-In . SVG Version: 6.00 Build 0)  -->
<svg version="1.1" id="Filled" xmlns="http://www.w3.org/2000/svg" xmlns:xlink="http://www.w3.org/1999/xlink" x="0px" y="0px"
	 viewBox="0 0 50 50" style="enable-background:new 0 0 50 50;" xml:space="preserve">
<path d="M49.2,30.95c-1.325-0.284-2.351-0.59-3.2-0.898v-9.398l1.385,1.081c0.183,0.143,0.399,0.212,0.614,0.212
	c0.298,0,0.592-0.132,0.789-0.385c0.34-0.436,0.263-1.063-0.173-1.403L41,14.217V7h-6v2.535l-9.385-7.323
	c-0.361-0.283-0.869-0.283-1.23,0l-23,17.947c-0.436,0.34-0.513,0.968-0.173,1.403c0.34,0.435,0.967,0.513,1.403,0.173L4,20.655
	v26.292c0,0.553,0.448,1,1,1h31.843c1.433,1.239,2.556,1.835,2.657,1.903l0.5,0.2l0.5-0.2c0.4-0.2,9.5-5.3,9.5-17.9v-0.8L49.2,30.95
	z M30,46H20V28.947h10V46z M40,47.75c-1.8-1-7.7-5.3-8-15c2.6-0.6,4.1-1.4,5.2-1.9c1.1-0.6,1.7-0.9,2.8-0.9s1.7,0.3,2.8,0.9
	c1.2,0.5,2.7,1.3,5.2,1.9C47.7,42.05,41.7,46.65,40,47.75z"/>
</svg>