<?xml version="1.0" encoding="utf-8"?><!-- Generator: Adobe Illustrator 15.0.0, SVG Export Plug-In . SVG Version: 6.00 Build 0)  --><!DOCTYPE svg PUBLIC "-//W3C//DTD SVG 1.1//EN" "http://www.w3.org/Graphics/SVG/1.1/DTD/svg11.dtd"><svg xmlns="http://www.w3.org/2000/svg" xmlns:xlink="http://www.w3.org/1999/xlink" viewBox="0 0 50 50" width="100px" height="100px"><line fill="none" stroke="#000000" stroke-width="2" stroke-linecap="round" stroke-linejoin="round" stroke-miterlimit="10" x1="33" y1="1" x2="46.9" y2="2.2"/><path d="M29.624,40.564c-0.106,0.973-0.324,1.918-0.646,2.821c5.173-4.055,12.521-9.818,14.649-11.508c2.123-1.715,3.315-3.53,3.84-5.943L29.624,40.564z"/><path d="M39.344,7.633C39.562,7.665,39.781,7.714,40,7.756V1.6c0-0.552-0.447-1-1-1s-1,0.448-1,1v5.89C38.463,7.52,38.918,7.563,39.344,7.633z"/><path d="M39.062,9.613c-0.655-0.107-1.343-0.162-2.043-0.162c-4.39,0-8.15,2.088-8.378,2.22l-23.7,16c-0.032,0.022-0.056,0.051-0.085,0.076C-0.06,31.109-0.001,38.03,0,38.119c0.011,0.551,0.458,0.975,1.018,0.979c0.552-0.01,0.973-0.465,0.982-1.017c0.066-3.975,1.687-9.916,9.917-10.624c11.183-0.823,15.307,10.171,15.486,10.669c0.146,0.408,0.531,0.663,0.941,0.663c0.112,0,0.226-0.02,0.337-0.059c0.009-0.003,0.015-0.011,0.023-0.015c0.097-0.037,0.19-0.085,0.273-0.153l20.656-16.99C49.865,21.383,50,21.1,50,20.8C50,15.042,44.334,10.366,39.062,9.613z M29.263,38.157c-0.007,0.016-0.006,0.035-0.013,0.051C29.257,38.192,29.257,38.173,29.263,38.157z"/><path d="M25.52,38.803c-0.138-0.384-3.472-9.389-12.421-9.389c-0.339,0-0.688,0.013-1.011,0.036c-4.932,0.425-7.63,2.998-8.035,7.652c-0.003,0.04-0.006,0.079-0.009,0.119C4.021,37.513,4.004,37.809,4,38.115c-0.003,0.221-0.034,0.434-0.081,0.64l0,0c0.774,5.652,5.658,10.537,11.563,11.238c0.419,0.05,0.846,0.075,1.267,0.075c5.008,0,9.344-3.515,10.581-8.118c0.067-0.243,0.149-0.702,0.235-1.271C26.634,40.427,25.856,39.739,25.52,38.803z M15.5,42C13,41.7,11,39.4,11,36.9s2-4.2,4.5-3.801C18,33.4,20,35.7,20,38.2S18,42.4,15.5,42z"/></svg>