<svg xmlns="http://www.w3.org/2000/svg"  viewBox="0 0 128 128" width="100px" height="100px"><path d="M101 63c1.7 0 3-1.3 3-3V26c0-6.1-4.9-11-11-11s-11 4.9-11 11v51c0 1.7 1.3 3 3 3s3-1.3 3-3V26c0-2.8 2.2-5 5-5s5 2.2 5 5v34C98 61.7 99.3 63 101 63zM47 37c1.7 0 3-1.3 3-3v-8c0-.2 0-.5-.1-.7C48.4 18.9 44.3 15 39 15c-6.1 0-11 4.9-11 11v51c0 1.7 1.3 3 3 3s3-1.3 3-3v-4h39c1.7 0 3-1.3 3-3s-1.3-3-3-3H34V53h39c1.7 0 3-1.3 3-3s-1.3-3-3-3H34V26c0-2.8 2.2-5 5-5 3.1 0 4.4 3.2 5 5.4V34C44 35.7 45.3 37 47 37zM82 108v16c0 1.7 1.3 3 3 3s3-1.3 3-3v-16c0-1.7-1.3-3-3-3S82 106.3 82 108zM31 105c-1.7 0-3 1.3-3 3v16c0 1.7 1.3 3 3 3s3-1.3 3-3v-5h39c1.7 0 3-1.3 3-3s-1.3-3-3-3H34v-5C34 106.3 32.7 105 31 105zM24.4 89.1c-2 2.4-4.9 3.8-8 3.8-3.1 0-6.1-1.4-8-3.8-1-1.3-2.9-1.5-4.2-.5-1.3 1-1.5 2.9-.5 4.2 3.1 3.9 7.7 6.1 12.7 6.1 3.8 0 7.5-1.3 10.4-3.7 2.9 2.4 6.5 3.7 10.4 3.7s7.5-1.3 10.4-3.7c2.9 2.4 6.5 3.7 10.4 3.7 3.8 0 7.5-1.3 10.4-3.7 2.9 2.4 6.6 3.8 10.4 3.8.1 0 .1 0 .2 0 3.9 0 7.6-1.4 10.6-3.8 2.8 2.3 6.4 3.7 10.2 3.7.1 0 .1 0 .2 0 5 0 9.6-2.2 12.7-6.1 1-1.3.8-3.2-.5-4.2-1.3-1-3.2-.8-4.2.5-1.9 2.4-4.8 3.8-7.9 3.8 0 0-.1 0-.2 0-3.1 0-6.1-1.4-8-3.8-.6-.7-1.4-1.1-2.3-1.1-.9 0-1.8.4-2.3 1.1l-.2.2c-2 2.4-5 3.8-8.1 3.8 0 0-.1 0-.1 0-3.2 0-6.1-1.5-8.1-3.9-.6-.7-1.4-1.1-2.3-1.1s-1.8.4-2.3 1.1c-2 2.4-4.9 3.8-8 3.8-3.1 0-6.1-1.4-8-3.8-.6-.7-1.4-1.1-2.3-1.1s-1.8.4-2.3 1.1c-2 2.4-4.9 3.8-8 3.8-3.1 0-6.1-1.4-8-3.8-.6-.7-1.4-1.1-2.3-1.1S24.9 88.3 24.4 89.1zM122 93A3 3 0 1 0 122 99 3 3 0 1 0 122 93z"/></svg>