<?xml version="1.0" encoding="utf-8" ?>
<svg xmlns="http://www.w3.org/2000/svg" xmlns:xlink="http://www.w3.org/1999/xlink" width="1024" height="1024">
	<path transform="scale(2 2)" d="M87.3439 398.239L126.24 398.239C124.225 400.451 121.863 402.422 119.749 404.552L100.049 424.342C98.4748 425.939 96.8807 427.784 95.0207 429.04L67.0246 429.04L67.0246 398.239C73.786 398.392 80.5793 398.249 87.3439 398.239Z"/>
	<path transform="scale(2 2)" d="M385.685 398.239C392.389 397.959 399.222 398.228 405.937 398.229L446.306 398.239L446.306 429.04C436.29 429.038 426.245 429.238 416.234 429.04C412.406 426.075 409.006 421.929 405.559 418.511L393.235 406.399C390.753 403.942 387.529 401.211 385.685 398.239Z"/>
	<path transform="scale(2 2)" d="M34.9899 239.746C43.6822 239.366 52.5418 239.738 61.2554 239.742L457.545 239.746C464.217 239.745 471.533 239.315 478.132 239.694C495.16 240.673 491.664 262.942 491.641 274.297L491.641 344.142C491.642 356.151 494.158 372.052 477.312 373.419L49.6579 373.421C25.1628 373.425 20.5005 374.147 20.5907 347.225L20.5851 278.419C20.5891 263.742 16.1637 243.082 34.9899 239.746ZM83.749 287.214C62.9518 287.652 62.155 315.499 79.2306 318.879C83.9145 319.806 94.7268 319.243 100.035 319.242L144.713 319.232C164.959 319.19 166.133 291.13 148.357 287.673C144.703 286.962 140.818 287.205 137.108 287.204L96.7308 287.206C92.4147 287.207 88.0595 287.071 83.749 287.214ZM334.002 287.75L333.592 288.057C333.584 288.814 333.64 289.492 333.746 290.243C334.74 297.277 334.255 311.896 334.002 319.232L381.812 319.232L382.386 319.046C382.86 318.074 382.627 291.545 382.542 287.75L334.002 287.75ZM413.25 287.214C413.224 297.88 413.43 308.57 413.25 319.232C424.048 319.233 434.959 319.564 445.745 319.232C445.941 308.573 445.742 297.878 445.745 287.214L413.25 287.214Z"/>
</svg>
