<?xml version="1.0" encoding="utf-8" ?>
<svg xmlns="http://www.w3.org/2000/svg" xmlns:xlink="http://www.w3.org/1999/xlink" width="42" height="42" viewBox="0 0 24 24">
	<path d="M528.886 365.537C529.088 365.516 529.289 365.488 529.492 365.474C534.453 365.131 538.611 366.175 542.986 368.515C548.368 371.393 553.402 375.054 558.56 378.316L583.796 394.018L674.022 450.521L718.974 478.248C728.057 483.727 742.409 490.998 749.824 498.097C753.388 501.509 754.907 507.25 755.057 512.035C755.229 517.485 753.031 522.488 749.23 526.358C743.585 532.107 734.391 536.494 727.474 540.753L691.446 563.119L600.3 620.874C582.807 631.983 565.274 644.079 547.134 654.091C542.772 656.498 538.354 658.473 533.264 658.519C527.921 658.567 523.939 656.672 520.195 652.953C517.513 650.289 515.62 646.875 514.857 643.167C512.593 632.167 514.274 619.484 514.357 608.251C514.513 587.238 514.688 566.152 514.235 545.144C495.518 555.327 477.453 567.257 459.279 578.408C430.398 596.713 400.958 614.212 371.881 632.213C361.469 638.66 342.722 652.732 332.22 656.302C327.746 657.823 322.201 657.175 318.02 655.069C313.657 652.871 310.671 648.988 309.243 644.356C306.37 635.035 307.998 607.656 308.006 596.339L308.035 519.571L308.126 431.6C308.112 416.287 307.475 400.845 308.046 385.549C308.191 381.649 308.568 377.632 310.533 374.172C312.672 370.405 316.685 367.766 320.819 366.679C326.127 365.283 330.875 366.66 335.689 368.91C343.284 372.461 350.273 377.382 357.346 381.86L385.739 399.48C428.469 425.574 470.791 452.466 513.964 477.817C514.917 456.202 514.485 434.374 514.416 412.735C514.385 403.137 513.894 393.275 514.596 383.703C514.825 380.582 515.134 377.154 516.579 374.34C519.224 369.19 523.674 367.216 528.886 365.537ZM344.125 416.29C343.672 430.735 343.953 445.255 343.955 459.711L343.96 535.024L343.965 580.426C343.969 588.804 343.457 597.563 344.373 605.881C358.561 597.09 373.157 588.983 387.348 580.203C404.715 569.459 421.88 557.866 439.774 548.042C459.354 536.344 479.3 524.585 498.082 511.659C477.414 498.352 456.333 485.66 435.399 472.777L344.125 416.29ZM550.667 416.618C550.001 428.249 550.48 440.07 550.599 451.717L550.69 501.328L550.386 568.35C550.382 581.402 549.813 594.733 551.112 607.725C563.762 601.25 575.784 592.822 587.788 585.202L643.945 549.704C663.652 537.4 683.644 525.309 702.88 512.281C692.561 505.117 681.714 498.586 671.094 491.869L604.702 450.355L570.078 428.46C563.826 424.494 557.413 419.683 550.667 416.618Z"/>
</svg>
