<?xml version="1.0" encoding="iso-8859-1"?><!-- Generator: Adobe Illustrator 21.1.0, SVG Export Plug-In . SVG Version: 6.00 Build 0)  --><svg xmlns="http://www.w3.org/2000/svg" xmlns:xlink="http://www.w3.org/1999/xlink" viewBox="0 0 50 50" width="100px" height="100px"><circle cx="8.5" cy="12.5" r="1.5"/><circle cx="26.5" cy="12.5" r="1.5"/><circle cx="31.5" cy="12.5" r="1.5"/><circle cx="36.5" cy="12.5" r="1.5"/><circle cx="41.5" cy="12.5" r="1.5"/><rect x="6" y="44" width="4" height="2"/><rect x="40" y="44" width="4" height="2"/><path style="fill:none;stroke:#000000;stroke-width:2;stroke-linecap:round;stroke-linejoin:round;stroke-miterlimit:10;" d="M17,7h2c0,0,3.25-2,6-2s6,2,6,2h2"/><line style="fill:none;stroke:#000000;stroke-width:2;stroke-linejoin:round;stroke-miterlimit:10;" x1="21" y1="14" x2="21" y2="11"/><line style="fill:none;stroke:#000000;stroke-width:2;stroke-linejoin:round;stroke-miterlimit:10;" x1="17" y1="14" x2="17" y2="11"/><line style="fill:none;stroke:#000000;stroke-width:2;stroke-linejoin:round;stroke-miterlimit:10;" x1="13" y1="14" x2="13" y2="11"/><path d="M44,7H6c-1.654,0-3,1.346-3,3v32c0,1.654,1.346,3,3,3h38c1.654,0,3-1.346,3-3V10C47,8.346,45.654,7,44,7z M7,42c-0.552,0-1-0.448-1-1s0.448-1,1-1s1,0.448,1,1S7.552,42,7,42z M7,36c-0.552,0-1-0.448-1-1s0.448-1,1-1s1,0.448,1,1S7.552,36,7,36z M7,30c-0.552,0-1-0.448-1-1s0.448-1,1-1s1,0.448,1,1S7.552,30,7,30z M7,24c-0.552,0-1-0.448-1-1s0.448-1,1-1s1,0.448,1,1S7.552,24,7,24z M10,39c-0.552,0-1-0.448-1-1s0.448-1,1-1s1,0.448,1,1S10.552,39,10,39z M10,33c-0.552,0-1-0.448-1-1c0-0.552,0.448-1,1-1s1,0.448,1,1C11,32.552,10.552,33,10,33z M10,27c-0.552,0-1-0.448-1-1s0.448-1,1-1s1,0.448,1,1S10.552,27,10,27z M10,21c-0.552,0-1-0.448-1-1s0.448-1,1-1s1,0.448,1,1S10.552,21,10,21z M13,42c-0.552,0-1-0.448-1-1s0.448-1,1-1s1,0.448,1,1S13.552,42,13,42z M13,36c-0.552,0-1-0.448-1-1s0.448-1,1-1s1,0.448,1,1S13.552,36,13,36z M13,30c-0.552,0-1-0.448-1-1s0.448-1,1-1s1,0.448,1,1S13.552,30,13,30z M13,24c-0.552,0-1-0.448-1-1s0.448-1,1-1s1,0.448,1,1S13.552,24,13,24z M16,39c-0.552,0-1-0.448-1-1s0.448-1,1-1s1,0.448,1,1S16.552,39,16,39z M16,33c-0.552,0-1-0.448-1-1c0-0.552,0.448-1,1-1s1,0.448,1,1C17,32.552,16.552,33,16,33z M16,27c-0.552,0-1-0.448-1-1s0.448-1,1-1s1,0.448,1,1S16.552,27,16,27z M16,21c-0.552,0-1-0.448-1-1s0.448-1,1-1s1,0.448,1,1S16.552,21,16,21z M19,42c-0.552,0-1-0.448-1-1s0.448-1,1-1s1,0.448,1,1S19.552,42,19,42z M19,36c-0.552,0-1-0.448-1-1s0.448-1,1-1s1,0.448,1,1S19.552,36,19,36z M19,30c-0.552,0-1-0.448-1-1s0.448-1,1-1s1,0.448,1,1S19.552,30,19,30z M19,24c-0.552,0-1-0.448-1-1s0.448-1,1-1s1,0.448,1,1S19.552,24,19,24z M22,39c-0.552,0-1-0.448-1-1s0.448-1,1-1s1,0.448,1,1S22.552,39,22,39z M22,33c-0.552,0-1-0.448-1-1c0-0.552,0.448-1,1-1s1,0.448,1,1C23,32.552,22.552,33,22,33z M22,27c-0.552,0-1-0.448-1-1s0.448-1,1-1s1,0.448,1,1S22.552,27,22,27z M22,21c-0.552,0-1-0.448-1-1s0.448-1,1-1s1,0.448,1,1S22.552,21,22,21z M25,42c-0.552,0-1-0.448-1-1s0.448-1,1-1s1,0.448,1,1S25.552,42,25,42z M25,36c-0.552,0-1-0.448-1-1s0.448-1,1-1s1,0.448,1,1S25.552,36,25,36z M25,30c-0.552,0-1-0.448-1-1s0.448-1,1-1s1,0.448,1,1S25.552,30,25,30z M25,24c-0.552,0-1-0.448-1-1s0.448-1,1-1s1,0.448,1,1S25.552,24,25,24z M28,39c-0.552,0-1-0.448-1-1s0.448-1,1-1s1,0.448,1,1S28.552,39,28,39z M28,33c-0.552,0-1-0.448-1-1c0-0.552,0.448-1,1-1s1,0.448,1,1C29,32.552,28.552,33,28,33z M28,27c-0.552,0-1-0.448-1-1s0.448-1,1-1s1,0.448,1,1S28.552,27,28,27z M28,21c-0.552,0-1-0.448-1-1s0.448-1,1-1s1,0.448,1,1S28.552,21,28,21z M31,42c-0.552,0-1-0.448-1-1s0.448-1,1-1s1,0.448,1,1S31.552,42,31,42z M31,36c-0.552,0-1-0.448-1-1s0.448-1,1-1s1,0.448,1,1S31.552,36,31,36z M31,30c-0.552,0-1-0.448-1-1s0.448-1,1-1s1,0.448,1,1S31.552,30,31,30z M31,24c-0.552,0-1-0.448-1-1s0.448-1,1-1s1,0.448,1,1S31.552,24,31,24z M34,39c-0.552,0-1-0.448-1-1s0.448-1,1-1s1,0.448,1,1S34.552,39,34,39z M34,33c-0.552,0-1-0.448-1-1c0-0.552,0.448-1,1-1s1,0.448,1,1C35,32.552,34.552,33,34,33z M34,27c-0.552,0-1-0.448-1-1s0.448-1,1-1s1,0.448,1,1S34.552,27,34,27z M34,21c-0.552,0-1-0.448-1-1s0.448-1,1-1s1,0.448,1,1S34.552,21,34,21z M37,42c-0.552,0-1-0.448-1-1s0.448-1,1-1s1,0.448,1,1S37.552,42,37,42z M37,36c-0.552,0-1-0.448-1-1s0.448-1,1-1s1,0.448,1,1S37.552,36,37,36z M37,30c-0.552,0-1-0.448-1-1s0.448-1,1-1s1,0.448,1,1S37.552,30,37,30z M37,24c-0.552,0-1-0.448-1-1s0.448-1,1-1s1,0.448,1,1S37.552,24,37,24z M40,39c-0.552,0-1-0.448-1-1s0.448-1,1-1s1,0.448,1,1S40.552,39,40,39z M40,33c-0.552,0-1-0.448-1-1c0-0.552,0.448-1,1-1s1,0.448,1,1C41,32.552,40.552,33,40,33z M40,27c-0.552,0-1-0.448-1-1s0.448-1,1-1s1,0.448,1,1S40.552,27,40,27z M40,21c-0.552,0-1-0.448-1-1s0.448-1,1-1s1,0.448,1,1S40.552,21,40,21z M43,42c-0.552,0-1-0.448-1-1s0.448-1,1-1s1,0.448,1,1S43.552,42,43,42z M43,36c-0.552,0-1-0.448-1-1s0.448-1,1-1s1,0.448,1,1S43.552,36,43,36z M43,30c-0.552,0-1-0.448-1-1s0.448-1,1-1s1,0.448,1,1S43.552,30,43,30z M43,24c-0.552,0-1-0.448-1-1s0.448-1,1-1s1,0.448,1,1S43.552,24,43,24z M45,16H5v-6c0-0.551,0.449-1,1-1h38c0.552,0,1,0.449,1,1V16z"/></svg>