<?xml version="1.0"?><svg xmlns="http://www.w3.org/2000/svg"  viewBox="0 0 24 24" width="100px" height="100px">    <path d="M 5 4 C 3.895 4 3 4.895 3 6 L 3 8 C 3 8 3 9 4 9 C 5 9 5.0215469 8.162 5.0605469 8 C 5.3385469 6.859 6.549 6 8 6 C 9.451 6 10.661453 6.859 10.939453 8 C 10.978453 8.162 11 9 12 9 C 13 9 13.021547 8.162 13.060547 8 C 13.338547 6.859 14.549 6 16 6 C 17.451 6 18.661453 6.859 18.939453 8 C 18.978453 8.162 19 9 20 9 C 21 9 21 8 21 8 L 21 6 C 21 4.895 20.105 4 19 4 L 5 4 z M 4 11 C 2.895 11 2 11.895 2 13 L 2 20 C 2 20.552 2.448 21 3 21 C 3.552 21 4 20.552 4 20 L 4 19 L 20 19 L 20 20 C 20 20.552 20.448 21 21 21 C 21.552 21 22 20.552 22 20 L 22 13 C 22 11.895 21.105 11 20 11 L 4 11 z"/></svg>