<?xml version="1.0" encoding="iso-8859-1"?><!-- Generator: Adobe Illustrator 23.0.2, SVG Export Plug-In . SVG Version: 6.00 Build 0)  --><svg xmlns="http://www.w3.org/2000/svg" xmlns:xlink="http://www.w3.org/1999/xlink" viewBox="0 0 24 24" width="100px" height="100px"><g><path d="M9.5,11H9v1h0.5c0.276,0,0.5-0.224,0.5-0.5S9.776,11,9.5,11z"/><path d="M21,5H3C1.897,5,1,5.897,1,7v11c0,1.103,0.897,2,2,2h18c1.103,0,2-0.897,2-2V7C23,5.897,22.103,5,21,5z M5.5,14C4.672,14,4,13.328,4,12.5S4.672,11,5.5,11S7,11.672,7,12.5S6.328,14,5.5,14z M9.941,15L9,13.118V15H8v-2v-3h1h0.5c0.828,0,1.5,0.672,1.5,1.5c0,0.648-0.413,1.195-0.989,1.405L11.059,15H9.941z M15,11h-2v1h1.6v1H13v1h2v1h-3v-5h3V11z M18,14c0.551,0,1-0.449,1-1h1c0,1.105-0.895,2-2,2s-2-0.895-2-2v-1c0-1.105,0.895-2,2-2s2,0.895,2,2h-1c0-0.551-0.449-1-1-1s-1,0.449-1,1v1C17,13.551,17.449,14,18,14z"/></g></svg>