<?xml version="1.0"?><svg xmlns="http://www.w3.org/2000/svg"  viewBox="0 0 24 24" width="100px" height="100px">    <path d="M 6.1289062 2.9667969 C 5.9865 2.9875156 5.8461094 3.0493594 5.7246094 3.1621094 L 1.2929688 7.2714844 C 0.90196875 7.6614844 0.90196875 8.2945469 1.2929688 8.6855469 L 5.7246094 12.796875 C 6.2106094 13.247875 7 12.901281 7 12.238281 L 7 9 L 16.5 9 C 18.979545 9 21 11.020455 21 13.5 C 21 15.979545 18.979545 18 16.5 18 L 16 18 A 1.0001 1.0001 0 1 0 16 20 L 16.5 20 C 20.070455 20 23 17.070455 23 13.5 C 23 9.9295455 20.070455 7 16.5 7 L 7 7 L 7 3.7207031 C 7 3.2234531 6.556125 2.9046406 6.1289062 2.9667969 z M 4 18 C 3.448 18 3 18.448 3 19 C 3 19.552 3.448 20 4 20 C 4.552 20 5 19.552 5 19 C 5 18.448 4.552 18 4 18 z M 8 18 C 7.448 18 7 18.448 7 19 C 7 19.552 7.448 20 8 20 C 8.552 20 9 19.552 9 19 C 9 18.448 8.552 18 8 18 z M 12 18 C 11.448 18 11 18.448 11 19 C 11 19.552 11.448 20 12 20 C 12.552 20 13 19.552 13 19 C 13 18.448 12.552 18 12 18 z"/></svg>