<svg xmlns="http://www.w3.org/2000/svg"  viewBox="0 0 64 64" width="100px" height="100px"><path d="M 44.15625 12.009766 C 43.563797 11.985297 43 12.448641 43 13.119141 L 43 17 L 40.175781 17 C 37.829781 17 35.653562 18.164187 34.351562 20.117188 L 29.75 27.019531 L 25.148438 20.117188 C 23.846438 18.165188 21.670219 17 19.324219 17 L 12 17 C 10.896 17 10 17.896 10 19 C 10 20.104 10.896 21 12 21 L 19.324219 21 C 20.329219 21 21.263313 21.499938 21.820312 22.335938 L 27.345703 30.625 L 21.320312 39.664062 C 20.762312 40.500062 19.829219 41 18.824219 41 L 12 41 C 10.896 41 10 41.896 10 43 C 10 44.104 10.896 45 12 45 L 18.824219 45 C 21.170219 45 23.347438 43.834812 24.648438 41.882812 L 29.75 34.230469 L 34.851562 41.882812 C 36.153562 43.834813 38.329781 45 40.675781 45 L 43 45 L 43 48.880859 C 43 49.774859 44.003281 50.301969 44.738281 49.792969 L 53.240234 43.910156 C 53.877234 43.470156 53.877234 42.528891 53.240234 42.087891 L 44.738281 36.207031 C 44.003281 35.699031 43 36.225141 43 37.119141 L 43 41 L 40.675781 41 C 39.670781 41 38.736688 40.500062 38.179688 39.664062 L 32.154297 30.625 L 37.679688 22.335938 C 38.237687 21.499938 39.170781 21 40.175781 21 L 43 21 L 43 24.880859 C 43 25.774859 44.003281 26.301969 44.738281 25.792969 L 53.240234 19.910156 C 53.877234 19.470156 53.877234 18.528891 53.240234 18.087891 L 44.738281 12.207031 C 44.554531 12.080031 44.353734 12.017922 44.15625 12.009766 z"/></svg>