<?xml version="1.0" encoding="iso-8859-1"?><!-- Generator: Adobe Illustrator 23.0.0, SVG Export Plug-In . SVG Version: 6.00 Build 0)  --><svg xmlns="http://www.w3.org/2000/svg" xmlns:xlink="http://www.w3.org/1999/xlink" viewBox="0 0 24 24" width="100px" height="100px"><path d="M20,18L20,18c-0.552,0-1-0.448-1-1V7c0-0.552,0.448-1,1-1h0c0.552,0,1,0.448,1,1v10C21,17.552,20.552,18,20,18z"/><g id="rounded_2_"><path d="M3,16.07V7.93c0-0.811,0.914-1.285,1.577-0.817l5.766,4.07c0.564,0.398,0.564,1.236,0,1.634l-5.766,4.07C3.914,17.355,3,16.881,3,16.07z"/><path d="M11,16.07V7.93c0-0.811,0.914-1.285,1.577-0.817l5.766,4.07c0.564,0.398,0.564,1.236,0,1.634l-5.766,4.07C11.914,17.355,11,16.881,11,16.07z"/></g></svg>