<?xml version="1.0" encoding="utf-8"?><!-- Generator: Adobe Illustrator 19.1.1, SVG Export Plug-In . SVG Version: 6.00 Build 0)  --><svg xmlns="http://www.w3.org/2000/svg" xmlns:xlink="http://www.w3.org/1999/xlink" viewBox="0 0 50 50" width="100px" height="100px"><polyline fill="none" stroke="#000000" stroke-width="2" stroke-linejoin="round" stroke-miterlimit="10" points="30,5 39,5 39,45 30,45 "/><path d="M27.6,0.2C27.3,0,27,0,26.7,0l-16,5C10.3,5.2,10,5.6,10,6v39c0,0.5,0.3,0.9,0.8,1l16,4c0.1,0,0.2,0,0.2,0c0.2,0,0.4-0.1,0.6-0.2c0.2-0.2,0.4-0.5,0.4-0.8V1C28,0.7,27.8,0.4,27.6,0.2z M24,27c-0.6,0-1-0.7-1-1.5s0.4-1.5,1-1.5s1,0.7,1,1.5S24.6,27,24,27z"/></svg>