<?xml version="1.0" encoding="iso-8859-1"?><!-- Generator: Adobe Illustrator 22.1.0, SVG Export Plug-In . SVG Version: 6.00 Build 0)  --><svg xmlns="http://www.w3.org/2000/svg" xmlns:xlink="http://www.w3.org/1999/xlink" viewBox="0 0 24 24" width="100px" height="100px"><g id="Rounded"><path d="M2,14h2c0.552,0,1-0.448,1-1V3c0-0.552-0.448-1-1-1H2C1.448,2,1,2.448,1,3v10C1,13.552,1.448,14,2,14z"/><path d="M17.993,2H9C7.895,2,7,2.895,7,4v9.992c0,0.53,0.21,1.038,0.584,1.413l5.53,5.54c0.583,0.584,1.527,0.588,2.115,0.01l0,0c0.367-0.361,0.524-0.886,0.414-1.39L14.649,15H21c1.105,0,2-0.895,2-2v-1.999c0-0.271-0.055-0.54-0.162-0.789L19.83,3.211C19.515,2.476,18.792,2,17.993,2z"/></g></svg>