<?xml version="1.0"?><svg xmlns="http://www.w3.org/2000/svg"  viewBox="0 0 24 24" width="100px" height="100px">    <path d="M 12.001953 2 C 9.7389531 2 7.6590781 2.5290937 6.2050781 4.1210938 C 4.7520781 5.7120937 4.0019531 8.226 4.0019531 12 C 4.0019531 15.774 4.7510781 18.287906 6.2050781 19.878906 C 7.6590781 21.469906 9.7389531 22 12.001953 22 C 14.264953 22 16.343875 21.470906 17.796875 19.878906 C 19.249875 18.287906 20.001953 15.773 20.001953 12 C 20.001953 8.226 19.249875 5.7120938 17.796875 4.1210938 C 16.343875 2.5290937 14.264953 2 12.001953 2 z M 11.558594 4.4628906 C 11.651875 4.4714531 11.744625 4.5074688 11.828125 4.5742188 L 16.757812 8.5195312 C 17.063813 8.7645312 17.063813 9.2276562 16.757812 9.4726562 L 13.599609 12 L 16.755859 14.527344 C 17.061859 14.771344 17.062813 15.236469 16.757812 15.480469 L 11.828125 19.425781 C 11.494125 19.693781 11 19.454344 11 19.027344 L 11 14.082031 L 11 13.927734 L 8.8144531 15.613281 C 8.3774531 15.950281 7.7491094 15.870594 7.4121094 15.433594 C 7.0741094 14.996594 7.15675 14.367297 7.59375 14.029297 L 10.230469 11.994141 L 7.5878906 9.9355469 C 7.1518906 9.5965469 7.0731094 8.9692031 7.4121094 8.5332031 C 7.7511094 8.0972031 8.3794531 8.0184219 8.8144531 8.3574219 L 11 10.058594 L 11 9.9179688 L 11 4.9726562 C 11 4.6524063 11.27875 4.4372031 11.558594 4.4628906 z M 13 8.0742188 L 13 9.9179688 L 14.150391 8.9960938 L 13 8.0742188 z M 13 14.082031 L 13 15.925781 L 14.150391 15.003906 L 13 14.082031 z"/></svg>