<svg xmlns="http://www.w3.org/2000/svg" xmlns:xlink="http://www.w3.org/1999/xlink" viewBox="0,0,256,256" width="100px" height="100px" fill-rule="nonzero"><defs><clipPath id="clip-1"><path d="M0,256v-256h256v256zM127,57.65714c-33.32937,0 -60.34286,27.01349 -60.34286,60.34286c0,33.32937 27.01349,60.34286 60.34286,60.34286c33.32937,0 60.34286,-27.01349 60.34286,-60.34286c0,-33.32937 -27.01349,-60.34286 -60.34286,-60.34286z" id="overlayBgMask" fill="none"></path></clipPath></defs><g clip-path="url(#clip-1)" fill="none" fill-rule="nonzero" stroke="none" stroke-width="1" stroke-linecap="butt" stroke-linejoin="miter" stroke-miterlimit="10" stroke-dasharray="" stroke-dashoffset="0" font-family="none" font-weight="none" font-size="none" text-anchor="none" style="mix-blend-mode: normal"><g transform="scale(8.53333,8.53333)" fill="#000000"><path d="M5,6c-1.105,0 -2,0.895 -2,2v12c0,1.105 0.895,2 2,2h20c1.105,0 2,-0.895 2,-2v-12c0,-1.105 -0.895,-2 -2,-2zM10,24c-0.36064,-0.0051 -0.69608,0.18438 -0.87789,0.49587c-0.18181,0.3115 -0.18181,0.69676 0,1.00825c0.18181,0.3115 0.51725,0.50097 0.87789,0.49587h10c0.36064,0.0051 0.69608,-0.18438 0.87789,-0.49587c0.18181,-0.3115 0.18181,-0.69676 0,-1.00825c-0.18181,-0.3115 -0.51725,-0.50097 -0.87789,-0.49587z"></path></g></g><g fill="#030000" fill-rule="nonzero" stroke="none" stroke-width="1" stroke-linecap="butt" stroke-linejoin="miter" stroke-miterlimit="10" stroke-dasharray="" stroke-dashoffset="0" font-family="none" font-weight="none" font-size="none" text-anchor="none" style="mix-blend-mode: normal"><g transform="translate(80.06667,71.06667) scale(6.70476,6.70476)" id="overlay"><path d="M7,0c-3.866,0 -7,3.134 -7,7c0,3.866 3.134,7 7,7c3.866,0 7,-3.134 7,-7c0,-3.866 -3.134,-7 -7,-7zM6.939,10.713c-1.646,0 -2.754,-0.898 -2.817,-2.28h1.709c0.024,0.537 0.459,0.869 1.137,0.869c0.635,0 1.074,-0.361 1.074,-0.889c0,-0.542 -0.415,-0.874 -1.099,-0.874h-0.863v-1.235h0.864c0.601,0 0.996,-0.337 0.996,-0.85c0,-0.513 -0.386,-0.83 -1.011,-0.83c-0.615,0 -1.03,0.366 -1.05,0.918h-1.626c0.024,-1.377 1.079,-2.256 2.715,-2.256c1.562,0 2.637,0.786 2.637,1.924c0,0.811 -0.542,1.45 -1.333,1.597v0.093c0.972,0.103 1.592,0.742 1.592,1.65c0,1.275 -1.201,2.163 -2.925,2.163z"></path></g></g></svg>