<?xml version="1.0" encoding="iso-8859-1"?>
<!-- Generator: Adobe Illustrator 24.0.0, SVG Export Plug-In . SVG Version: 6.00 Build 0)  -->
<svg version="1.1" id="Layer_1" xmlns="http://www.w3.org/2000/svg" xmlns:xlink="http://www.w3.org/1999/xlink" x="0px" y="0px"
	 viewBox="0 0 50 50" style="enable-background:new 0 0 50 50;" xml:space="preserve">
<path d="M35,6v38H15v-2c0-0.55-0.45-1-1-1s-1,0.45-1,1v2H9V34h4v2c0,0.55,0.45,1,1,1s1-0.45,1-1v-2h11c0.55,0,1-0.45,1-1
	s-0.45-1-1-1H9V20h10c0.55,0,1-0.45,1-1s-0.45-1-1-1H9V6h13v8c0,0.28,0.11,0.52,0.29,0.71C22.48,14.89,22.72,15,23,15
	c0.55,0,1-0.45,1-1V6H35z"/>
<path d="M39,3v18h-2V5c0-0.55-0.45-1-1-1H8C7.45,4,7,4.45,7,5v40c0,0.55,0.45,1,1,1h28c0.55,0,1-0.45,1-1V28h2v19c0,0.55-0.45,1-1,1
	H6c-0.55,0-1-0.45-1-1V3c0-0.55,0.45-1,1-1h32C38.55,2,39,2.45,39,3z"/>
<path d="M44,22h-6c-0.552,0-1-0.448-1-1s0.448-1,1-1h6c0.552,0,1,0.448,1,1S44.552,22,44,22z"/>
<path d="M44,22c-0.13,0-0.26-0.03-0.38-0.08c-0.13-0.05-0.23-0.12-0.33-0.21c-0.09-0.1-0.16-0.21-0.21-0.33S43,21.13,43,21
	c0-0.26,0.11-0.52,0.29-0.71c0.1-0.09,0.2-0.16,0.33-0.21c0.36-0.16,0.81-0.07,1.09,0.21C44.89,20.48,45,20.74,45,21
	c0,0.13-0.03,0.26-0.08,0.38c-0.05,0.12-0.12,0.23-0.21,0.33C44.52,21.89,44.26,22,44,22z"/>
<path d="M44.05,22.62c-0.09-0.02-0.17-0.03-0.26-0.03c-0.44,0-0.84,0.29-0.97,0.73c-0.14,0.54,0.17,1.09,0.7,1.23
	c0.09,0.03,0.18,0.04,0.27,0.04c0.44,0,0.84-0.3,0.96-0.74c0.03-0.09,0.04-0.18,0.04-0.27C44.79,23.15,44.49,22.74,44.05,22.62z
	 M43.23,25.11c-0.19-0.16-0.42-0.24-0.65-0.24c-0.28,0-0.56,0.12-0.76,0.36c-0.36,0.42-0.3,1.05,0.12,1.4
	c0.19,0.16,0.41,0.24,0.64,0.24c0.29,0,0.57-0.12,0.77-0.35c0.16-0.19,0.24-0.42,0.24-0.65C43.59,25.59,43.46,25.31,43.23,25.11z
	 M41.44,27.02c-0.17-0.37-0.53-0.58-0.91-0.58c-0.14,0-0.29,0.03-0.42,0.09c-0.5,0.24-0.72,0.83-0.48,1.33
	c0.17,0.37,0.53,0.58,0.9,0.58c0.15,0,0.29-0.03,0.43-0.09c0.36-0.17,0.57-0.53,0.57-0.91C41.53,27.3,41.5,27.16,41.44,27.02z"/>
<path d="M38,29c-0.26,0-0.52-0.11-0.71-0.29C37.11,28.52,37,28.26,37,28s0.11-0.52,0.29-0.71c0.24-0.23,0.58-0.34,0.91-0.27
	c0.06,0.01,0.12,0.03,0.18,0.06c0.06,0.02,0.12,0.05,0.17,0.09c0.06,0.04,0.11,0.08,0.16,0.12C38.89,27.48,39,27.74,39,28
	s-0.11,0.52-0.29,0.71c-0.05,0.04-0.1,0.09-0.16,0.12c-0.05,0.04-0.11,0.07-0.17,0.09c-0.06,0.03-0.12,0.05-0.18,0.06
	C38.13,28.99,38.06,29,38,29z"/>
<path d="M38,29c-0.26,0-0.52-0.11-0.71-0.29C37.11,28.52,37,28.26,37,28s0.11-0.52,0.29-0.71c0.24-0.23,0.58-0.34,0.91-0.27
	c0.06,0.01,0.12,0.03,0.18,0.06c0.06,0.02,0.12,0.05,0.17,0.09c0.06,0.04,0.11,0.08,0.16,0.12C38.89,27.48,39,27.74,39,28
	s-0.11,0.52-0.29,0.71c-0.05,0.04-0.1,0.09-0.16,0.12c-0.05,0.04-0.11,0.07-0.17,0.09c-0.06,0.03-0.12,0.05-0.18,0.06
	C38.13,28.99,38.06,29,38,29z"/>
</svg>