<?xml version="1.0" encoding="iso-8859-1"?><!-- Generator: Adobe Illustrator 22.1.0, SVG Export Plug-In . SVG Version: 6.00 Build 0)  --><svg xmlns="http://www.w3.org/2000/svg" xmlns:xlink="http://www.w3.org/1999/xlink" viewBox="0 0 30 30" width="100px" height="100px"><path d="M24,5H6C3.791,5,2,6.791,2,9v12c0,2.209,1.791,4,4,4h18c2.209,0,4-1.791,4-4V9C28,6.791,26.209,5,24,5z M21,16H10.414l2.293,2.293c0.391,0.391,0.391,1.023,0,1.414C12.512,19.902,12.256,20,12,20s-0.512-0.098-0.707-0.293l-4-4c-0.391-0.391-0.391-1.023,0-1.414l4-4c0.391-0.391,1.023-0.391,1.414,0s0.391,1.023,0,1.414L10.414,14H21c0.552,0,1,0.448,1,1C22,15.552,21.552,16,21,16z"/></svg>