<svg xmlns="http://www.w3.org/2000/svg" xmlns:xlink="http://www.w3.org/1999/xlink" viewBox="0,0,256,256" width="100px" height="100px" fill-rule="nonzero"><defs><clipPath id="clip-1"><path d="M0,256v-256h256v256zM127,57.65714c-33.32937,0 -60.34286,27.01349 -60.34286,60.34286c0,33.32937 27.01349,60.34286 60.34286,60.34286c33.32937,0 60.34286,-27.01349 60.34286,-60.34286c0,-33.32937 -27.01349,-60.34286 -60.34286,-60.34286z" id="overlayBgMask" fill="none"></path></clipPath></defs><g transform=""><g clip-path="url(#clip-1)" fill="none" fill-rule="nonzero" stroke="none" stroke-width="1" stroke-linecap="butt" stroke-linejoin="miter" stroke-miterlimit="10" stroke-dasharray="" stroke-dashoffset="0" font-family="none" font-weight="none" font-size="none" text-anchor="none" style="mix-blend-mode: normal"><g transform="scale(8.53333,8.53333)" fill="#000000"><path d="M5,6c-1.105,0 -2,0.895 -2,2v12c0,1.105 0.895,2 2,2h20c1.105,0 2,-0.895 2,-2v-12c0,-1.105 -0.895,-2 -2,-2zM10,24c-0.36064,-0.0051 -0.69608,0.18438 -0.87789,0.49587c-0.18181,0.3115 -0.18181,0.69676 0,1.00825c0.18181,0.3115 0.51725,0.50097 0.87789,0.49587h10c0.36064,0.0051 0.69608,-0.18438 0.87789,-0.49587c0.18181,-0.3115 0.18181,-0.69676 0,-1.00825c-0.18181,-0.3115 -0.51725,-0.50097 -0.87789,-0.49587z"></path></g></g><g fill="#030000" fill-rule="nonzero" stroke="none" stroke-width="1" stroke-linecap="butt" stroke-linejoin="miter" stroke-miterlimit="10" stroke-dasharray="" stroke-dashoffset="0" font-family="none" font-weight="none" font-size="none" text-anchor="none" style="mix-blend-mode: normal"><g transform="translate(80.06667,71.06667) scale(6.70476,6.70476)" id="overlay"><path d="M7,0c-3.866,0 -7,3.134 -7,7c0,3.866 3.134,7 7,7c3.866,0 7,-3.134 7,-7c0,-3.866 -3.134,-7 -7,-7zM9.729,10.618h-5.356v-1.196l2.227,-2.095c1.035,-0.957 1.298,-1.313 1.298,-1.728c0,-0.518 -0.381,-0.864 -0.962,-0.864c-0.605,0 -1.025,0.41 -1.025,0.991v0.034h-1.64v-0.03c0,-1.401 1.094,-2.349 2.729,-2.349c1.577,0 2.632,0.845 2.632,2.09c0,0.781 -0.459,1.475 -1.709,2.588l-1.162,1.07v0.093h2.969v1.396z"></path></g></g></g></svg>