<?xml version="1.0"?><svg xmlns="http://www.w3.org/2000/svg"  viewBox="0 0 24 24" width="100px" height="100px">    <path d="M 3 2 C 2.74425 2 2.4884688 2.0974687 2.2929688 2.2929688 C 1.9019687 2.6839688 1.9019687 3.3160312 2.2929688 3.7070312 L 6.2929688 7.7070312 L 5 9 L 3 9 C 1.895 9 1 9.895 1 11 L 1 13 C 1 14.105 1.895 15 3 15 L 5 15 L 9.8046875 19.804688 C 9.9476875 19.947688 10.122922 20.011719 10.294922 20.011719 C 10.654922 20.011719 11 19.732547 11 19.310547 L 11 12.414062 L 20.292969 21.707031 C 20.487969 21.902031 20.744 22 21 22 C 21.256 22 21.512031 21.902031 21.707031 21.707031 C 22.098031 21.316031 22.098031 20.683969 21.707031 20.292969 L 11 9.5859375 L 11 9.5585938 L 7.7207031 6.2792969 L 7.7070312 6.2929688 L 3.7070312 2.2929688 C 3.5115312 2.0974687 3.25575 2 3 2 z M 18.777344 3.2226562 C 18.521594 3.2226562 18.265812 3.320125 18.070312 3.515625 C 17.679312 3.906625 17.679313 4.5386875 18.070312 4.9296875 C 19.959313 6.8176875 21 9.329 21 12 C 21 13.373 20.720266 14.702734 20.197266 15.927734 L 21.699219 17.427734 C 22.544219 15.765734 23 13.919 23 12 C 23 8.795 21.751375 5.781625 19.484375 3.515625 C 19.288875 3.320125 19.033094 3.2226562 18.777344 3.2226562 z M 10.294922 3.9882812 C 10.122922 3.9882812 9.9476875 4.0533125 9.8046875 4.1953125 L 9.1347656 4.8652344 L 11 6.7304688 L 11 4.6894531 C 11 4.2674531 10.654922 3.9882812 10.294922 3.9882812 z M 15.949219 6.0488281 C 15.693469 6.0488281 15.437688 6.14825 15.242188 6.34375 C 14.851187 6.73475 14.851187 7.3668125 15.242188 7.7578125 C 16.581187 9.0968125 17.127594 10.914063 16.933594 12.664062 L 18.636719 14.367188 C 19.481719 11.623188 18.82425 8.51175 16.65625 6.34375 C 16.46075 6.14825 16.204969 6.0488281 15.949219 6.0488281 z"/></svg>