<?xml version="1.0" encoding="iso-8859-1"?>
<!-- Generator: Adobe Illustrator 18.0.0, SVG Export Plug-In . SVG Version: 6.00 Build 0)  -->
<!DOCTYPE svg PUBLIC "-//W3C//DTD SVG 1.1//EN" "http://www.w3.org/Graphics/SVG/1.1/DTD/svg11.dtd">
<svg version="1.1" id="Layer_1" xmlns="http://www.w3.org/2000/svg" xmlns:xlink="http://www.w3.org/1999/xlink" x="0px" y="0px"
	 width="50px" height="50px" viewBox="0 0 50 50" style="enable-background:new 0 0 50 50;" xml:space="preserve">
<path d="M9,13v18h1.721c0.166-1.333,0.488-2.837,1.12-4.175c1.561-3.304,3.952-3.998,5.683-3.998c1.39,0,2.631,0.435,3.689,1.291
	c0.86,0.696,1.556,1.634,2.067,2.788c0.589,1.327,0.887,2.832,0.975,4.095h2.064c0.088-1.262,0.387-2.768,0.975-4.095
	c0.511-1.154,1.207-2.092,2.067-2.788c1.058-0.856,2.299-1.291,3.689-1.291c1.731,0,4.122,0.693,5.683,3.998
	c0.633,1.339,0.955,2.842,1.12,4.175H41V13H9z"/>
<path d="M12.556,33.606c0-1.35,0.142-3.915,1.093-5.928c0.894-1.892,2.198-2.852,3.875-2.852c0.947,0,1.719,0.269,2.431,0.846
	c0.603,0.487,1.121,1.194,1.497,2.043c0.733,1.652,0.891,3.62,0.818,4.539c-0.176,2.237-0.57,4.212-0.77,4.986
	c0.131,0.725,0.125,1.717,0.107,3.219l-0.013,1.349c-0.001,0.087-0.008,0.166-0.021,0.283l0.001,0.062
	c0,2.89-1.768,5.154-4.024,5.154c-1.972,0-3.638-1.805-3.954-4.243c-0.096-0.528-0.152-1.131-0.171-1.842
	c-0.014-0.522-0.007-0.99,0.013-1.43l-0.115-0.618C12.814,36.442,12.556,34.569,12.556,33.606z M15.425,41.17
	c0.017,0.607,0.062,1.11,0.147,1.587c0.189,1.454,1.04,2.551,1.979,2.551c1.097,0,2.024-1.444,2.027-3.08l-0.012-0.118l0.041-1.672
	c0.003-0.258,0.006-0.51,0.008-0.756c-0.425,0.696-1.185,1.165-2.058,1.165h-0.162c-0.807,0-1.518-0.401-1.958-1.009
	C15.419,40.221,15.411,40.651,15.425,41.17z"/>
<path d="M38.019,33.606c0-1.35-0.142-3.915-1.093-5.928c-0.894-1.892-2.198-2.852-3.875-2.852c-0.947,0-1.719,0.269-2.431,0.846
	c-0.603,0.487-1.121,1.194-1.497,2.043c-0.733,1.652-0.891,3.62-0.818,4.539c0.176,2.237,0.57,4.212,0.77,4.986
	c-0.131,0.725-0.125,1.717-0.107,3.219l0.013,1.349c0.001,0.087,0.008,0.166,0.021,0.283l-0.001,0.062
	c0,2.89,1.768,5.154,4.024,5.154c1.972,0,3.638-1.805,3.954-4.243c0.096-0.528,0.152-1.131,0.171-1.842
	c0.014-0.522,0.007-0.99-0.013-1.43l0.115-0.618C37.761,36.442,38.019,34.569,38.019,33.606z M35.151,41.17
	c-0.017,0.607-0.062,1.11-0.147,1.587c-0.189,1.454-1.04,2.551-1.979,2.551c-1.097,0-2.024-1.444-2.027-3.08l0.012-0.118
	l-0.041-1.672c-0.003-0.258-0.006-0.51-0.008-0.756c0.425,0.696,1.185,1.165,2.058,1.165h0.162c0.807,0,1.518-0.401,1.958-1.009
	C35.156,40.221,35.165,40.651,35.151,41.17z"/>
<g>
	<path d="M24.209,33c-0.109,1.138-0.26,2.172-0.408,3h2.972c-0.148-0.828-0.299-1.862-0.408-3H24.209z"/>
	<path d="M41.775,8H8.225C5.896,8,4,9.896,4,12.225v19.55C4,34.104,5.896,36,8.225,36h2.546c-0.129-0.944-0.214-1.793-0.214-2.394
		c0-0.182,0.003-0.387,0.009-0.606H9c-1.105,0-2-0.895-2-2V13c0-1.105,0.895-2,2-2h32c1.105,0,2,0.895,2,2v18c0,1.105-0.895,2-2,2
		h-0.99c0.006,0.219,0.009,0.424,0.009,0.606c0,0.601-0.085,1.45-0.214,2.394h1.97C44.104,36,46,34.104,46,31.775v-19.55
		C46,9.896,44.104,8,41.775,8z"/>
</g>
</svg>