<?xml version="1.0" encoding="utf-8"?><!-- Generator: Adobe Illustrator 15.0.0, SVG Export Plug-In . SVG Version: 6.00 Build 0)  --><!DOCTYPE svg PUBLIC "-//W3C//DTD SVG 1.1//EN" "http://www.w3.org/Graphics/SVG/1.1/DTD/svg11.dtd"><svg xmlns="http://www.w3.org/2000/svg" xmlns:xlink="http://www.w3.org/1999/xlink" viewBox="0 0 50 50" width="100px" height="100px"><circle cx="25" cy="36" r="2"/><circle cx="25" cy="30" r="2"/><circle cx="34" cy="30" r="2"/><circle cx="35" cy="36" r="2"/><circle cx="37" cy="42" r="2"/><circle cx="41" cy="48" r="2"/><circle cx="16" cy="30" r="2"/><circle cx="15" cy="36" r="2"/><circle cx="13" cy="42" r="2"/><circle cx="9" cy="48" r="2"/><circle cx="25" cy="42" r="2"/><circle cx="25" cy="48" r="2"/><path d="M45,0H5C2.243,0,0,2.243,0,5v15.9c0,0.36,0.048,0.729,0.132,1.1H49.87c0.082-0.369,0.13-0.738,0.13-1.1V5C50,2.243,47.757,0,45,0z M43.803,12.636l-1.006,1.729L40,12.738V16h-2v-3.262l-2.797,1.626l-1.006-1.729L37.012,11l-2.813-1.636l1.006-1.729L38,9.262V6h2v3.262l2.797-1.626l1.006,1.729L40.988,11L43.803,12.636z"/><line fill="none" stroke="#000000" stroke-width="2" stroke-miterlimit="10" x1="2.8" y1="25" x2="47.2" y2="25"/><path fill="none" stroke="#000000" stroke-width="2" stroke-miterlimit="10" d="M38,29h4.7c1.399,0,2.8-0.8,3.5-2l2.3-4.1c0.3-0.6,0.5-1.3,0.5-2V5c0-2.2-1.8-4-4-4H5C2.8,1,1,2.8,1,5v15.9c0,0.7,0.2,1.4,0.5,2L3.8,27c0.7,1.2,2,2,3.5,2H12"/></svg>