<?xml version="1.0" encoding="iso-8859-1"?><!-- Generator: Adobe Illustrator 22.1.0, SVG Export Plug-In . SVG Version: 6.00 Build 0)  --><svg xmlns="http://www.w3.org/2000/svg" xmlns:xlink="http://www.w3.org/1999/xlink" viewBox="0 0 30 30" width="100px" height="100px"><path d="M21.5,19C15.701,19,11,14.299,11,8.5c0-1.897,0.51-3.671,1.39-5.207C7.019,4.486,3,9.27,3,15c0,6.627,5.373,12,12,12c5.73,0,10.514-4.019,11.707-9.39C25.171,18.49,23.397,19,21.5,19z"/><path d="M28,10h-1c-0.552,0-1-0.448-1-1V8c0-0.552-0.448-1-1-1s-1,0.448-1,1v1c0,0.552-0.448,1-1,1h-1c-0.552,0-1,0.448-1,1s0.448,1,1,1h1c0.552,0,1,0.448,1,1v1c0,0.552,0.448,1,1,1s1-0.448,1-1v-1c0-0.552,0.448-1,1-1h1c0.552,0,1-0.448,1-1S28.552,10,28,10z"/><line style="fill:none;stroke:#000000;stroke-width:2;stroke-linecap:round;stroke-linejoin:round;stroke-miterlimit:10;" x1="19" y1="1" x2="19" y2="5"/><line style="fill:none;stroke:#000000;stroke-width:2;stroke-linecap:round;stroke-linejoin:round;stroke-miterlimit:10;" x1="21" y1="3" x2="17" y2="3"/></svg>