<?xml version="1.0" encoding="iso-8859-1"?><!-- Generator: Adobe Illustrator 22.1.0, SVG Export Plug-In . SVG Version: 6.00 Build 0)  --><svg xmlns="http://www.w3.org/2000/svg" xmlns:xlink="http://www.w3.org/1999/xlink" viewBox="0 0 24 24" width="100px" height="100px"><g id="Rounded"><path d="M8,19L8,19c-1.105,0-2-0.895-2-2V7c0-1.105,0.895-2,2-2h0c1.105,0,2,0.895,2,2v10C10,18.105,9.105,19,8,19z"/><path d="M16,19L16,19c-1.105,0-2-0.895-2-2V7c0-1.105,0.895-2,2-2h0c1.105,0,2,0.895,2,2v10C18,18.105,17.105,19,16,19z"/></g></svg>