<?xml version="1.0" encoding="utf-8"?><!-- Generator: Adobe Illustrator 19.1.1, SVG Export Plug-In . SVG Version: 6.00 Build 0)  --><svg xmlns="http://www.w3.org/2000/svg" xmlns:xlink="http://www.w3.org/1999/xlink" viewBox="0 0 50 50" width="100px" height="100px"><polygon points="27,47 23,47 21,45 21,44 29,44 29,45 "/><path d="M29,45h-8c-1.7,0-3-1.3-3-3v-4h14v4C32,43.7,30.7,45,29,45z"/><path fill="none" stroke="#000000" stroke-width="2" stroke-linecap="round" stroke-miterlimit="10" d="M43.7,9C42.2,6.2,34.4,4,25,4S7.8,6.2,6.3,9"/><path d="M45,13H5c-0.6,0-1-0.4-1-1V9c0-0.6,0.4-1,1-1h40c0.6,0,1,0.4,1,1v3C46,12.6,45.6,13,45,13z"/><path d="M5.8,15c1.2,4,3.8,6.4,6.1,9.4c2.2,2.9,4.1,5.4,4.1,7.6v1c0,1.7,1.3,3,3,3h12c1.7,0,3-1.3,3-3v-1c0-2.2,1.9-4.7,4.1-7.6c2.3-3,4.9-5.3,6.1-9.4H5.8z"/></svg>