<svg xmlns="http://www.w3.org/2000/svg" xmlns:xlink="http://www.w3.org/1999/xlink" version="1.1" x="0px" y="0px" viewBox="0 0 102 127.5" style="enable-background:new 0 0 102 102;" xml:space="preserve"><metadata><?xpacket begin="&#65279;" id="W5M0MpCehiHzreSzNTczkc9d"?><x:xmpmeta xmlns:x="adobe:ns:meta/" x:xmptk="Adobe XMP Core 7.1-c000 79.4d2f597, 2021/09/01-20:51:22        "/><?xpacket end="w"?></metadata><path d="M79.72,39.72c-0.1-0.15-0.27-0.23-0.45-0.23H45.35c-0.05-5-4.1-9.08-9.13-9.15c-2.47-0.03-4.81,0.91-6.58,2.63  c-1.77,1.72-2.76,4.04-2.79,6.51v0.01h-2.5V2.59c0-0.6-0.49-1.09-1.09-1.09c-0.6,0-1.09,0.48-1.09,1.09v96.82  c0,0.6,0.49,1.09,1.09,1.09c0.6,0,1.09-0.49,1.09-1.09V85.02c9.06-0.22,14.06-5.62,16.47-9.44h-16.5v-2.18h21.76  c14.81-5.79,29.42-21.27,33.71-33.19C79.85,40.06,79.83,39.87,79.72,39.72z M36.11,32.52h0.09c3.84,0.05,6.92,3.16,6.98,6.97H29.03  C29.09,35.63,32.25,32.52,36.11,32.52z M64.24,47.11c-5.21,7.13-13.75,14.97-21.23,19.51c-0.17,0.11-0.37,0.16-0.57,0.16  c-0.36,0-0.72-0.18-0.93-0.52c-0.31-0.52-0.15-1.19,0.37-1.5c7.26-4.41,15.54-12.01,20.6-18.94c0.36-0.48,1.04-0.59,1.52-0.23  C64.49,45.94,64.6,46.62,64.24,47.11z M35.22,24.23l0.14-11.42c0.01-0.6,0.49-1.1,1.1-1.07c0.6,0.01,1.08,0.5,1.07,1.1L37.4,24.25  c-0.01,0.6-0.49,1.07-1.09,1.07c0,0-0.01,0-0.01,0C35.7,25.32,35.22,24.83,35.22,24.23z M44.15,26.15l5.83-9.82  c0.31-0.52,0.97-0.69,1.49-0.38c0.52,0.31,0.69,0.97,0.38,1.49l-5.83,9.82c-0.2,0.34-0.57,0.53-0.94,0.53  c-0.19,0-0.38-0.05-0.55-0.15C44.01,27.33,43.84,26.67,44.15,26.15z M50.91,32.27l9.96-5.59c0.52-0.29,1.19-0.11,1.48,0.42  c0.29,0.52,0.11,1.19-0.42,1.48l-9.96,5.59c-0.17,0.09-0.35,0.14-0.53,0.14c-0.38,0-0.75-0.2-0.95-0.56  C50.2,33.23,50.39,32.57,50.91,32.27z"/></svg>