<svg xmlns="http://www.w3.org/2000/svg" data-name="Layer 1" viewBox="0 0 100 100" x="0px" y="0px"><title>idea, lightnulb, light, bulb</title><g><path d="M38,80.5411c0,7.28759,4.86573,13.10229,11.35474,13.44189A12.00032,12.00032,0,0,0,62,82.00008V78.2H38Z"/><path d="M49.52464,6.004a28.35044,28.35044,0,0,0-27.5061,26.9646,27.875,27.875,0,0,0,9.8396,22.32348c3.53955,3.01074,5.844,11.91211,6.09277,16.908h24.096c.2373-4.94336,2.45337-13.84692,5.967-16.7998A27.976,27.976,0,0,0,49.52464,6.004Zm.48316,13.28125a15.01891,15.01891,0,0,0-15,15,3,3,0,1,1-6,0,21.02547,21.02547,0,0,1,21-21,3,3,0,0,1,0,6Z"/></g></svg>