<?xml version="1.0" encoding="utf-8" ?>
<svg xmlns="http://www.w3.org/2000/svg" xmlns:xlink="http://www.w3.org/1999/xlink" width="1024" height="1024">
	<path d="M698.946 365.565C701.249 365.392 703.632 365.346 705.914 365.746C711.176 366.67 715.956 369.377 719.002 373.817C719.163 374.052 719.314 374.292 719.474 374.526C720.033 375.34 720.556 376.093 720.863 377.047C723.333 384.728 722.012 411.438 722.011 421.047L722.017 482.656L722.035 586.691C722.037 604.596 722.598 622.702 721.932 640.588C721.836 643.179 721.145 645.589 719.875 647.86C717.202 652.64 712.536 655.635 707.385 657.171C702.909 657.771 698.425 657.289 694.296 655.39C689.915 653.375 685.892 649.482 684.437 644.791C682.168 637.477 683.466 614.694 683.513 606.002L683.623 556.511L683.589 446.106C683.586 425.905 683.002 405.496 683.792 385.316C683.946 381.387 684.272 377.953 686.228 374.424C689.066 369.307 693.59 367.143 698.946 365.565Z"/>
	<path d="M614.859 365.569C618.622 365.35 622.219 365.629 625.772 367.006C629.934 368.618 634.453 372.427 635.917 376.773C638.352 384 637.475 422.585 637.48 432.516L637.5 511.111L637.37 598.916C637.3 612.876 637.783 627.065 637.032 640.992C636.883 643.747 636.124 646.158 634.672 648.53C631.634 653.491 626.313 656.274 620.79 657.524C616.868 657.536 613.633 657.269 609.969 655.626C605.87 653.789 601.189 649.879 599.879 645.396C596.822 634.935 598.856 615.006 598.92 603.354L598.942 554.73L598.825 450.847C598.751 429.307 598.158 407.715 598.947 386.189C599.092 382.223 599.024 378.465 601.025 374.89C603.952 369.663 609.306 367.081 614.859 365.569Z"/>
	<path d="M336.181 365.576C338.817 365.412 341.484 365.269 344.091 365.795C352.201 367.432 378.468 384.387 387.383 389.469L482.074 443.46L534.892 472.937C545.691 478.902 556.702 484.629 567.243 491.033C571.082 493.365 574.961 495.619 577.423 499.507C580.683 504.655 581.157 511.769 579.588 517.554C578.422 521.856 576.021 525.378 572.668 528.266C562.128 537.342 548.03 543.468 535.924 550.279L485.132 579.456L390.449 633.702C376.871 641.523 363.529 651.257 349.152 657.45C343.376 659.938 337.684 660.244 331.784 657.772C327.182 655.843 323.767 652.198 321.952 647.564C320.533 643.942 320.158 640.012 320.018 636.154C319.619 625.12 320.444 613.85 320.461 602.783L320.472 519.654L320.423 437.059C320.346 421.895 319.615 406.696 320.108 391.532C320.271 386.528 320.264 381.118 322.365 376.487C325.155 370.335 330.113 367.724 336.181 365.576ZM360.69 420.293C359.633 430.442 360.188 440.995 360.189 451.199L360.215 504.779L360.231 568.311C360.236 580.324 359.733 592.61 360.637 604.586C371.961 598.139 383.482 592.043 394.825 585.627C417.519 572.791 440.036 559.633 462.521 546.436C482.142 535.089 501.869 523.887 521.351 512.307C504.13 501.525 486.112 491.78 468.439 481.756L401.559 443.388L375.001 428.345C370.324 425.736 365.047 423.348 360.69 420.293Z"/>
</svg>
