<?xml version="1.0" encoding="UTF-8" standalone="no"?>
<!DOCTYPE svg PUBLIC "-//W3C//DTD SVG 1.1//EN" "http://www.w3.org/Graphics/SVG/1.1/DTD/svg11.dtd">
<!-- Generated by Microsoft Visio, SVG Export Steve Jackson House Map 2nd Floor 3-3-25.svg 2nd Flr -->
<svg xmlns="http://www.w3.org/2000/svg" xmlns:xlink="http://www.w3.org/1999/xlink" xmlns:ev="http://www.w3.org/2001/xml-events"
		xmlns:v="http://schemas.microsoft.com/visio/2003/SVGExtensions/" width="11in" height="8.5in" viewBox="0 0 792 612"
		xml:space="preserve" color-interpolation-filters="sRGB" class="st5">
	<v:documentProperties v:langID="1033" v:viewMarkup="false">
		<v:userDefs>
			<v:ud v:nameU="msvNoAutoConnect" v:val="VT0(1):26"/>
		</v:userDefs>
	</v:documentProperties>

	<style type="text/css">
	<![CDATA[
		.st1 {stroke:#000000;stroke-width:3}
		.st2 {fill:none;stroke:none;stroke-linecap:round;stroke-linejoin:round;stroke-width:3}
		.st3 {fill:#000000;font-family:Calibri;font-size:0.833336em}
		.st4 {font-size:1em}
		.st5 {fill:none;fill-rule:evenodd;font-size:12px;overflow:visible;stroke-linecap:square;stroke-miterlimit:3}
	]]>
	</style>

	<g v:mID="7" v:index="2" v:groupContext="foregroundPage">
		<title>2nd Flr</title>
		<v:pageProperties v:drawingScale="1" v:pageScale="1" v:drawingUnits="19" v:shadowOffsetX="9" v:shadowOffsetY="-9"/>
		<g id="shape2-1" v:mID="2" v:groupContext="shape" transform="translate(-345.258,121.22) rotate(-61.571)">
			<title>Sheet.2</title>
			<path d="M0 612 L18.35 612" class="st1"/>
		</g>
		<g id="shape3-4" v:mID="3" v:groupContext="shape" transform="translate(-383.801,396.078) rotate(-90)">
			<title>Sheet.3</title>
			<path d="M0 612 L91.83 612" class="st1"/>
		</g>
		<g id="shape4-7" v:mID="4" v:groupContext="shape" transform="translate(-533.25,396.401) rotate(-90)">
			<title>Sheet.4</title>
			<path d="M0 612 L110.96 612" class="st1"/>
		</g>
		<g id="shape5-10" v:mID="5" v:groupContext="shape" transform="translate(118.862,895.505) rotate(180)">
			<title>Sheet.5</title>
			<path d="M0 612 L55.86 612" class="st1"/>
		</g>
		<g id="shape7-13" v:mID="7" v:groupContext="shape" transform="translate(192.94,1024.58) rotate(180)">
			<title>Sheet.7</title>
			<path d="M0 612 L79.16 612" class="st1"/>
		</g>
		<g id="shape8-16" v:mID="8" v:groupContext="shape" transform="translate(227.935,1008.19) rotate(180)">
			<title>Sheet.8</title>
			<path d="M0 612 L25.52 612" class="st1"/>
		</g>
		<g id="shape9-19" v:mID="9" v:groupContext="shape" transform="translate(-392.39,756.579) rotate(-124.201)">
			<title>Sheet.9</title>
			<path d="M0 612 L18.58 612" class="st1"/>
		</g>
		<g id="shape10-22" v:mID="10" v:groupContext="shape" transform="translate(102.217,1008.4) rotate(180)">
			<title>Sheet.10</title>
			<path d="M0 612 L23.47 612" class="st1"/>
		</g>
		<g id="shape11-25" v:mID="11" v:groupContext="shape" transform="translate(226.259,923.163) rotate(180)">
			<title>Sheet.11</title>
			<path d="M0 612 L25.52 612" class="st1"/>
		</g>
		<g id="shape12-28" v:mID="12" v:groupContext="shape" transform="translate(181.373,895.505) rotate(180)">
			<title>Sheet.12</title>
			<path d="M0 612 L44.23 612" class="st1"/>
		</g>
		<g id="shape13-31" v:mID="13" v:groupContext="shape" transform="translate(289.211,895.505) rotate(180)">
			<title>Sheet.13</title>
			<path d="M0 612 L87.54 612" class="st1"/>
		</g>
		<g id="shape14-34" v:mID="14" v:groupContext="shape" transform="translate(287.721,972.333) rotate(180)">
			<title>Sheet.14</title>
			<path d="M0 612 L57.74 612" class="st1"/>
		</g>
		<g id="shape15-37" v:mID="15" v:groupContext="shape" transform="translate(-321.206,458.672) rotate(-90)">
			<title>Sheet.15</title>
			<path d="M0 612 L242.77 612" class="st1"/>
		</g>
		<g id="shape16-40" v:mID="16" v:groupContext="shape" transform="translate(367.621,929.309) rotate(180)">
			<title>Sheet.16</title>
			<path d="M0 612 L76.83 612" class="st1"/>
		</g>
		<g id="shape17-43" v:mID="17" v:groupContext="shape" transform="translate(292.284,792.696) rotate(180)">
			<title>Sheet.17</title>
			<path d="M0 612 L87.54 612" class="st1"/>
		</g>
		<g id="shape18-46" v:mID="18" v:groupContext="shape" transform="translate(530.496,792.51) rotate(180)">
			<title>Sheet.18</title>
			<path d="M0 612 L218.19 612" class="st1"/>
		</g>
		<g id="shape19-49" v:mID="19" v:groupContext="shape" transform="translate(-433.421,311.163) rotate(-90)">
			<title>Sheet.19</title>
			<path d="M0 612 L129.39 612" class="st1"/>
		</g>
		<g id="shape20-52" v:mID="20" v:groupContext="shape" transform="translate(-470.485,283.505) rotate(-90)">
			<title>Sheet.20</title>
			<path d="M0 612 L224.34 612" class="st1"/>
		</g>
		<g id="shape21-55" v:mID="21" v:groupContext="shape" transform="translate(-490.995,283.505) rotate(-90)">
			<title>Sheet.21</title>
			<path d="M0 612 L107.56 612" class="st1"/>
		</g>
		<g id="shape22-58" v:mID="22" v:groupContext="shape" transform="translate(-549,283.505) rotate(-90)">
			<title>Sheet.22</title>
			<path d="M0 612 L227.41 612" class="st1"/>
		</g>
		<g id="shape23-61" v:mID="23" v:groupContext="shape" transform="translate(120.407,769.508) rotate(180)">
			<title>Sheet.23</title>
			<path d="M0 612 L55.16 612" class="st1"/>
		</g>
		<g id="shape24-64" v:mID="24" v:groupContext="shape" transform="translate(77.2286,740.256) rotate(180)">
			<title>Sheet.24</title>
			<path d="M0 612 L12.43 612" class="st1"/>
		</g>
		<g id="shape25-67" v:mID="25" v:groupContext="shape" transform="translate(-491.593,157.508) rotate(-90)">
			<title>Sheet.25</title>
			<path d="M0 612 L30.73 612" class="st1"/>
		</g>
		<g id="shape26-70" v:mID="26" v:groupContext="shape" transform="translate(-517.885,157.508) rotate(-90)">
			<title>Sheet.26</title>
			<path d="M0 612 L30.73 612" class="st1"/>
		</g>
		<g id="shape27-73" v:mID="27" v:groupContext="shape" transform="translate(-491.593,108.338) rotate(-90)">
			<title>Sheet.27</title>
			<path d="M0 612 L50.65 612" class="st1"/>
		</g>
		<g id="shape28-76" v:mID="28" v:groupContext="shape" transform="translate(123.31,668.864) rotate(180)">
			<title>Sheet.28</title>
			<path d="M0 612 L16.9 612" class="st1"/>
		</g>
		<g id="shape29-79" v:mID="29" v:groupContext="shape" transform="translate(67.9938,668.095) rotate(180)">
			<title>Sheet.29</title>
			<path d="M0 612 L2.69 612" class="st1"/>
		</g>
		<g id="shape30-82" v:mID="30" v:groupContext="shape" transform="translate(100.261,659.644) rotate(180)">
			<title>Sheet.30</title>
			<path d="M0 612 L26.12 612" class="st1"/>
		</g>
		<g id="shape31-85" v:mID="31" v:groupContext="shape" transform="translate(598.926,362.516) rotate(120.964)">
			<title>Sheet.31</title>
			<path d="M0 612 L8.96 612" class="st1"/>
		</g>
		<g id="shape32-88" v:mID="32" v:groupContext="shape" transform="translate(638.686,-244.645) rotate(61.3895)">
			<title>Sheet.32</title>
			<path d="M0 612 L9.63 612" class="st1"/>
		</g>
		<g id="shape33-91" v:mID="33" v:groupContext="shape" transform="translate(183.235,728.561) rotate(180)">
			<title>Sheet.33</title>
			<path d="M0 612 L39.95 612" class="st1"/>
		</g>
		<g id="shape34-94" v:mID="34" v:groupContext="shape" transform="translate(187.554,792.696) rotate(180)">
			<title>Sheet.34</title>
			<path d="M0 612 L18.52 612" class="st1"/>
		</g>
		<g id="shape35-97" v:mID="35" v:groupContext="shape" transform="translate(152.504,792.681) rotate(180)">
			<title>Sheet.35</title>
			<path d="M0 612 L10.99 612" class="st1"/>
		</g>
		<g id="shape36-100" v:mID="36" v:groupContext="shape" transform="translate(-448.865,156.594) rotate(-90)">
			<title>Sheet.36</title>
			<path d="M0 612 L18.77 612" class="st1"/>
		</g>
		<g id="shape37-103" v:mID="37" v:groupContext="shape" transform="translate(-426.938,156.428) rotate(-90)">
			<title>Sheet.37</title>
			<path d="M0 612 L58.8 612" class="st1"/>
		</g>
		<g id="shape38-106" v:mID="38" v:groupContext="shape" transform="translate(153.501,709.624) rotate(180)">
			<title>Sheet.38</title>
			<path d="M0 612 L10.22 612" class="st1"/>
		</g>
		<g id="shape39-109" v:mID="39" v:groupContext="shape" transform="translate(185.062,709.624) rotate(180)">
			<title>Sheet.39</title>
			<path d="M0 612 L15.66 612" class="st1"/>
		</g>
		<g id="shape40-112" v:mID="40" v:groupContext="shape" transform="translate(215.503,769.508) rotate(180)">
			<title>Sheet.40</title>
			<path d="M0 612 L12.58 612" class="st1"/>
		</g>
		<g id="shape41-115" v:mID="41" v:groupContext="shape" transform="translate(269.282,746.46) rotate(180)">
			<title>Sheet.41</title>
			<path d="M0 612 L51 612" class="st1"/>
		</g>
		<g id="shape42-118" v:mID="42" v:groupContext="shape" transform="translate(343.036,694.217) rotate(180)">
			<title>Sheet.42</title>
			<path d="M0 612 L126 612" class="st1"/>
		</g>
		<g id="shape44-121" v:mID="44" v:groupContext="shape" transform="translate(174.016,668.864) rotate(180)">
			<title>Sheet.44</title>
			<path d="M0 612 L32.27 612" class="st1"/>
		</g>
		<g id="shape45-124" v:mID="45" v:groupContext="shape" transform="translate(207.82,659.644) rotate(180)">
			<title>Sheet.45</title>
			<path d="M0 612 L28.43 612" class="st1"/>
		</g>
		<g id="shape46-127" v:mID="46" v:groupContext="shape" transform="translate(704.179,362.516) rotate(120.964)">
			<title>Sheet.46</title>
			<path d="M0 612 L8.96 612" class="st1"/>
		</g>
		<g id="shape47-130" v:mID="47" v:groupContext="shape" transform="translate(745.092,-245.413) rotate(61.3895)">
			<title>Sheet.47</title>
			<path d="M0 612 L9.63 612" class="st1"/>
		</g>
		<g id="shape48-133" v:mID="48" v:groupContext="shape" transform="translate(215.119,668.48) rotate(180)">
			<title>Sheet.48</title>
			<path d="M0 612 L2.69 612" class="st1"/>
		</g>
		<g id="shape49-136" v:mID="49" v:groupContext="shape" transform="translate(-396.48,152.854) rotate(-89.5643)">
			<title>Sheet.49</title>
			<path d="M0 612 L101.03 612" class="st1"/>
		</g>
		<g id="shape50-139" v:mID="50" v:groupContext="shape" transform="translate(-376.522,102.192) rotate(-90)">
			<title>Sheet.50</title>
			<path d="M0 612 L18.77 612" class="st1"/>
		</g>
		<g id="shape51-142" v:mID="51" v:groupContext="shape" transform="translate(-341.489,102.96) rotate(-90)">
			<title>Sheet.51</title>
			<path d="M0 612 L18.77 612" class="st1"/>
		</g>
		<g id="shape52-145" v:mID="52" v:groupContext="shape" transform="translate(-341.182,149.825) rotate(-90)">
			<title>Sheet.52</title>
			<path d="M0 612 L28.76 612" class="st1"/>
		</g>
		<g id="shape53-148" v:mID="53" v:groupContext="shape" transform="translate(-341.182,180.696) rotate(-90)">
			<title>Sheet.53</title>
			<path d="M0 612 L15.51 612" class="st1"/>
		</g>
		<g id="shape54-151" v:mID="54" v:groupContext="shape" transform="translate(-371.913,179.02) rotate(-90)">
			<title>Sheet.54</title>
			<path d="M0 612 L43.02 612" class="st1"/>
		</g>
		<g id="shape55-154" v:mID="55" v:groupContext="shape" transform="translate(-320.822,188.239) rotate(-90)">
			<title>Sheet.55</title>
			<path d="M0 612 L7.54 612" class="st1"/>
		</g>
		<g id="shape56-157" v:mID="56" v:groupContext="shape" transform="translate(-268.195,94.5093) rotate(-90)">
			<title>Sheet.56</title>
			<path d="M0 612 L12.24 612" class="st1"/>
		</g>
		<g id="shape57-160" v:mID="57" v:groupContext="shape" transform="translate(46.5175,630.767) rotate(-149.027)">
			<title>Sheet.57</title>
			<path d="M0 612 L19.22 612" class="st1"/>
		</g>
		<g id="shape58-163" v:mID="58" v:groupContext="shape" transform="translate(-396.113,180.696) rotate(-90)">
			<title>Sheet.58</title>
			<path d="M0 612 L5.52 612" class="st1"/>
		</g>
		<g id="shape59-166" v:mID="59" v:groupContext="shape" transform="translate(-267.811,177.483) rotate(-90)">
			<title>Sheet.59</title>
			<path d="M0 612 L9.22 612" class="st1"/>
		</g>
		<g id="shape60-169" v:mID="60" v:groupContext="shape" transform="translate(-249.757,157.508) rotate(-90)">
			<title>Sheet.60</title>
			<path d="M0 612 L49.55 612" class="st1"/>
		</g>
		<g id="shape61-172" v:mID="61" v:groupContext="shape" transform="translate(675.468,683.278) rotate(149.216)">
			<title>Sheet.61</title>
			<path d="M0 612 L21.02 612" class="st1"/>
		</g>
		<g id="shape62-175" v:mID="62" v:groupContext="shape" transform="translate(-298.158,238.945) rotate(-90)">
			<title>Sheet.62</title>
			<path d="M0 612 L58.44 612" class="st1"/>
		</g>
		<g id="shape63-178" v:mID="63" v:groupContext="shape" transform="translate(-298.158,292.724) rotate(-90)">
			<title>Sheet.63</title>
			<path d="M0 612 L35.34 612" class="st1"/>
		</g>
		<g id="shape64-181" v:mID="64" v:groupContext="shape" transform="translate(326.134,872.457) rotate(180)">
			<title>Sheet.64</title>
			<path d="M0 612 L10.16 612" class="st1"/>
		</g>
		<g id="shape65-184" v:mID="65" v:groupContext="shape" transform="translate(363.012,872.457) rotate(180)">
			<title>Sheet.65</title>
			<path d="M0 612 L19.38 612" class="st1"/>
		</g>
		<g id="shape66-187" v:mID="66" v:groupContext="shape" transform="translate(421.4,872.457) rotate(180)">
			<title>Sheet.66</title>
			<path d="M0 612 L40.89 612" class="st1"/>
		</g>
		<g id="shape67-190" v:mID="67" v:groupContext="shape" transform="translate(426.01,905.493) rotate(180)">
			<title>Sheet.67</title>
			<path d="M0 612 L112.17 612" class="st1"/>
		</g>
		<g id="shape68-193" v:mID="68" v:groupContext="shape" transform="translate(-267.043,292.724) rotate(-90)">
			<title>Sheet.68</title>
			<path d="M0 612 L32.27 612" class="st1"/>
		</g>
		<g id="shape69-196" v:mID="69" v:groupContext="shape" transform="translate(-190.215,292.34) rotate(-90)">
			<title>Sheet.69</title>
			<path d="M0 612 L111.83 612" class="st1"/>
		</g>
		<g id="shape70-199" v:mID="70" v:groupContext="shape" transform="translate(290.794,827.897) rotate(180)">
			<title>Sheet.70</title>
			<path d="M0 612 L61.46 612" class="st1"/>
		</g>
		<g id="shape71-202" v:mID="71" v:groupContext="shape" transform="translate(243.161,872.457) rotate(180)">
			<title>Sheet.71</title>
			<path d="M0 612 L14.77 612" class="st1"/>
		</g>
		<g id="shape72-205" v:mID="72" v:groupContext="shape" transform="translate(-383.437,258.92) rotate(-90)">
			<title>Sheet.72</title>
			<path d="M0 612 L41.49 612" class="st1"/>
		</g>
		<g id="shape73-208" v:mID="73" v:groupContext="shape" transform="translate(-407.253,280.432) rotate(-90)">
			<title>Sheet.73</title>
			<path d="M0 612 L63 612" class="st1"/>
		</g>
		<g id="shape74-211" v:mID="74" v:groupContext="shape" transform="translate(-80.7362,363.406) rotate(-90)">
			<title>Sheet.74</title>
			<path d="M0 612 L182.9 612" class="st1"/>
		</g>
		<g id="shape75-214" v:mID="75" v:groupContext="shape" transform="translate(530.496,905.493) rotate(180)">
			<title>Sheet.75</title>
			<path d="M0 612 L86.05 612" class="st1"/>
		</g>
		<g id="shape76-217" v:mID="76" v:groupContext="shape" transform="translate(429.083,821.366) rotate(180)">
			<title>Sheet.76</title>
			<path d="M0 612 L7.3 612" class="st1"/>
		</g>
		<g id="shape77-220" v:mID="77" v:groupContext="shape" transform="translate(502.844,820.982) rotate(180)">
			<title>Sheet.77</title>
			<path d="M0 612 L58.4 612" class="st1"/>
		</g>
		<g id="shape78-223" v:mID="78" v:groupContext="shape" transform="translate(530.496,820.982) rotate(180)">
			<title>Sheet.78</title>
			<path d="M0 612 L12.71 612" class="st1"/>
		</g>
		<g id="shape79-226" v:mID="79" v:groupContext="shape" transform="translate(-126.009,217.238) rotate(-90.773)">
			<title>Sheet.79</title>
			<path d="M0 612 L28.48 612" class="st1"/>
		</g>
		<g id="shape80-229" v:mID="80" v:groupContext="shape" transform="translate(469.034,929.309) rotate(180)">
			<title>Sheet.80</title>
			<path d="M0 612 L77.77 612" class="st1"/>
		</g>
		<g id="shape81-232" v:mID="81" v:groupContext="shape" transform="translate(467.497,946.979) rotate(180)">
			<title>Sheet.81</title>
			<path d="M0 612 L76.23 612" class="st1"/>
		</g>
		<g id="shape82-235" v:mID="82" v:groupContext="shape" transform="translate(467.497,994.612) rotate(180)">
			<title>Sheet.82</title>
			<path d="M0 612 L20.91 612" class="st1"/>
		</g>
		<g id="shape83-238" v:mID="83" v:groupContext="shape" transform="translate(428.699,994.612) rotate(180)">
			<title>Sheet.83</title>
			<path d="M0 612 L10.93 612" class="st1"/>
		</g>
		<g id="shape84-241" v:mID="84" v:groupContext="shape" transform="translate(399.889,994.612) rotate(180)">
			<title>Sheet.84</title>
			<path d="M0 612 L8.62 612" class="st1"/>
		</g>
		<g id="shape85-244" v:mID="85" v:groupContext="shape" transform="translate(1003.05,336.132) rotate(90)">
			<title>Sheet.85</title>
			<path d="M0 612 L136.37 612" class="st1"/>
		</g>
		<g id="shape86-247" v:mID="86" v:groupContext="shape" transform="translate(467.497,975.79) rotate(180)">
			<title>Sheet.86</title>
			<path d="M0 612 L16.3 612" class="st1"/>
		</g>
		<g id="shape87-250" v:mID="87" v:groupContext="shape" transform="translate(1038.01,334.979) rotate(90)">
			<title>Sheet.87</title>
			<path d="M0 612 L46.1 612" class="st1"/>
		</g>
		<g id="shape88-253" v:mID="88" v:groupContext="shape" transform="translate(1079.88,336.516) rotate(90)">
			<title>Sheet.88</title>
			<path d="M0 612 L46.1 612" class="st1"/>
		</g>
		<g id="shape89-256" v:mID="89" v:groupContext="shape" transform="translate(1101.78,334.211) rotate(90)">
			<title>Sheet.89</title>
			<path d="M0 612 L162.87 612" class="st1"/>
		</g>
		<g id="shape90-259" v:mID="90" v:groupContext="shape" transform="translate(489.777,1085.27) rotate(180)">
			<title>Sheet.90</title>
			<path d="M0 612 L98.72 612" class="st1"/>
		</g>
		<g id="shape91-262" v:mID="91" v:groupContext="shape" transform="translate(539.715,1110.24) rotate(180)">
			<title>Sheet.91</title>
			<path d="M0 612 L49.94 612" class="st1"/>
		</g>
		<g id="shape92-265" v:mID="92" v:groupContext="shape" transform="translate(979.621,318.846) rotate(90)">
			<title>Sheet.92</title>
			<path d="M0 612 L58.39 612" class="st1"/>
		</g>
		<g id="shape93-268" v:mID="93" v:groupContext="shape" transform="translate(943.512,318.462) rotate(90)">
			<title>Sheet.93</title>
			<path d="M0 612 L58.39 612" class="st1"/>
		</g>
		<g id="shape94-271" v:mID="94" v:groupContext="shape" transform="translate(367.621,990.003) rotate(180)">
			<title>Sheet.94</title>
			<path d="M0 612 L9.22 612" class="st1"/>
		</g>
		<g id="shape95-274" v:mID="95" v:groupContext="shape" transform="translate(300.781,990.003) rotate(180)">
			<title>Sheet.95</title>
			<path d="M0 612 L9.22 612" class="st1"/>
		</g>
		<g id="shape96-277" v:mID="96" v:groupContext="shape" transform="translate(341.884,990.003) rotate(180)">
			<title>Sheet.96</title>
			<path d="M0 612 L22.66 612" class="st1"/>
		</g>
		<g id="shape97-280" v:mID="97" v:groupContext="shape" transform="translate(364.548,1084.81) rotate(180)">
			<title>Sheet.97</title>
			<path d="M0 612 L49.17 612" class="st1"/>
		</g>
		<g id="shape98-283" v:mID="98" v:groupContext="shape" transform="translate(892.742,784.568) rotate(122.005)">
			<title>Sheet.98</title>
			<path d="M0 612 L14.5 612" class="st1"/>
		</g>
		<g id="shape99-286" v:mID="99" v:groupContext="shape" transform="translate(830.219,141.597) rotate(58.627)">
			<title>Sheet.99</title>
			<path d="M0 612 L14.76 612" class="st1"/>
		</g>
		<g id="shape100-289" v:mID="100" v:groupContext="shape" transform="translate(391.054,1071.44) rotate(180)">
			<title>Sheet.100</title>
			<path d="M0 612 L15.75 612" class="st1"/>
		</g>
		<g id="shape101-292" v:mID="101" v:groupContext="shape" transform="translate(306.159,1071.44) rotate(180)">
			<title>Sheet.101</title>
			<path d="M0 612 L15.75 612" class="st1"/>
		</g>
		<g id="shape102-295" v:mID="102" v:groupContext="shape" transform="translate(624.225,1116) rotate(180)">
			<title>Sheet.102</title>
			<path d="M0 612 L83.74 612" class="st1"/>
		</g>
		<g id="shape103-298" v:mID="103" v:groupContext="shape" transform="translate(664.175,1109.85) rotate(180)">
			<title>Sheet.103</title>
			<path d="M0 612 L39.95 612" class="st1"/>
		</g>
		<g id="shape104-301" v:mID="104" v:groupContext="shape" transform="translate(1236.23,499.39) rotate(90)">
			<title>Sheet.104</title>
			<path d="M0 612 L4.61 612" class="st1"/>
		</g>
		<g id="shape105-304" v:mID="105" v:groupContext="shape" transform="translate(1152.48,498.238) rotate(90)">
			<title>Sheet.105</title>
			<path d="M0 612 L4.61 612" class="st1"/>
		</g>
		<g id="shape106-307" v:mID="106" v:groupContext="shape" transform="translate(1276.18,463.281) rotate(90)">
			<title>Sheet.106</title>
			<path d="M0 612 L34.57 612" class="st1"/>
		</g>
		<g id="shape107-310" v:mID="107" v:groupContext="shape" transform="translate(668.785,1075.28) rotate(180)">
			<title>Sheet.107</title>
			<path d="M0 612 L4.61 612" class="st1"/>
		</g>
		<g id="shape108-313" v:mID="108" v:groupContext="shape" transform="translate(57.9375,463.281) rotate(-90)">
			<title>Sheet.108</title>
			<path d="M0 612 L126 612" class="st1"/>
		</g>
		<g id="shape109-316" v:mID="109" v:groupContext="shape" transform="translate(669.553,948.516) rotate(180)">
			<title>Sheet.109</title>
			<path d="M0 612 L136.92 612" class="st1"/>
		</g>
		<g id="shape110-319" v:mID="110" v:groupContext="shape" transform="translate(613.469,975.79) rotate(180)">
			<title>Sheet.110</title>
			<path d="M0 612 L81.99 612" class="st1"/>
		</g>
		<g id="shape111-322" v:mID="111" v:groupContext="shape" transform="translate(1246.98,338.053) rotate(90)">
			<title>Sheet.111</title>
			<path d="M0 612 L26.89 612" class="st1"/>
		</g>
		<g id="shape112-325" v:mID="112" v:groupContext="shape" transform="translate(669.938,977.326) rotate(180)">
			<title>Sheet.112</title>
			<path d="M0 612 L18.05 612" class="st1"/>
		</g>
		<g id="shape113-328" v:mID="113" v:groupContext="shape" transform="translate(121.334,-252)">
			<title>Sheet.113</title>
			<desc>Master Bedroom</desc>
			<v:textBlock v:margins="rect(4,4,4,4)"/>
			<v:textRect cx="29.3328" cy="605.171" width="58.67" height="13.6582"/>
			<rect x="0" y="598.342" width="58.6656" height="13.6582" class="st2"/>
			<text x="14.8" y="602.17" class="st3" v:langID="1033"><v:paragraph v:horizAlign="1"/><v:tabList/>Master <tspan
						x="10.49" dy="1.2em" class="st4">Bedroom</tspan></text>		</g>
		<g id="shape114-332" v:mID="114" v:groupContext="shape" transform="translate(293.55,-474.671)">
			<title>Sheet.114</title>
			<desc>Ellen’s Office</desc>
			<v:textBlock v:margins="rect(4,4,4,4)"/>
			<v:textRect cx="21.9749" cy="605.171" width="43.95" height="13.6582"/>
			<rect x="0" y="598.342" width="43.9498" height="13.6582" class="st2"/>
			<text x="8.92" y="602.17" class="st3" v:langID="1033"><v:paragraph v:horizAlign="1"/><v:tabList/>Ellen’s <tspan
						x="9.86" dy="1.2em" class="st4">Office</tspan></text>		</g>
		<g id="shape115-336" v:mID="115" v:groupContext="shape" transform="translate(223.494,-451.519)">
			<title>Sheet.115</title>
			<desc>Ellen’s Bath</desc>
			<v:textBlock v:margins="rect(4,4,4,4)"/>
			<v:textRect cx="32.2531" cy="606.769" width="64.51" height="10.4621"/>
			<rect x="0" y="601.538" width="64.5061" height="10.4621" class="st2"/>
			<text x="19.2" y="603.77" class="st3" v:langID="1033"><v:paragraph v:horizAlign="1"/><v:tabList/>Ellen’s<v:newlineChar/><tspan
						x="22.84" dy="1.2em" class="st4">Bath</tspan></text>		</g>
		<g id="shape116-340" v:mID="116" v:groupContext="shape" transform="translate(126.973,-524.693)">
			<title>Sheet.116</title>
			<desc>Steve’s Bath</desc>
			<v:textBlock v:margins="rect(4,4,4,4)"/>
			<v:textRect cx="51.9013" cy="605.171" width="103.81" height="13.6582"/>
			<rect x="0" y="598.342" width="103.803" height="13.6582" class="st2"/>
			<text x="26.95" y="608.17" class="st3" v:langID="1033"><v:paragraph v:horizAlign="1"/><v:tabList/>Steve’s Bath</text>		</g>
		<g id="shape117-343" v:mID="117" v:groupContext="shape" transform="translate(216,-363.769)">
			<title>Sheet.117</title>
			<desc>Ellen’s Closet</desc>
			<v:textBlock v:margins="rect(4,4,4,4)"/>
			<v:textRect cx="39.7561" cy="606.769" width="79.52" height="10.4621"/>
			<rect x="0" y="601.538" width="79.5123" height="10.4621" class="st2"/>
			<text x="26.7" y="603.77" class="st3" v:langID="1033"><v:paragraph v:horizAlign="1"/><v:tabList/>Ellen’s<v:newlineChar/><tspan
						x="27.19" dy="1.2em" class="st4">Closet</tspan></text>		</g>
		<g id="shape118-347" v:mID="118" v:groupContext="shape" transform="translate(107.859,-394.268)">
			<title>Sheet.118</title>
			<desc>Steve’s Closet</desc>
			<v:textBlock v:margins="rect(4,4,4,4)"/>
			<v:textRect cx="51.9013" cy="605.171" width="103.81" height="13.6582"/>
			<rect x="0" y="598.342" width="103.803" height="13.6582" class="st2"/>
			<text x="37.49" y="602.17" class="st3" v:langID="1033"><v:paragraph v:horizAlign="1"/><v:tabList/>Steve’s<v:newlineChar/><tspan
						x="39.33" dy="1.2em" class="st4">Closet</tspan></text>		</g>
		<g id="shape119-351" v:mID="119" v:groupContext="shape" transform="translate(207.82,-284.106)">
			<title>Sheet.119</title>
			<desc>Sitting Room</desc>
			<v:textBlock v:margins="rect(4,4,4,4)"/>
			<v:textRect cx="51.9013" cy="605.171" width="103.81" height="13.6582"/>
			<rect x="0" y="598.342" width="103.803" height="13.6582" class="st2"/>
			<text x="38.98" y="602.17" class="st3" v:langID="1033"><v:paragraph v:horizAlign="1"/><v:tabList/>Sitting<v:newlineChar/><tspan
						x="39.92" dy="1.2em" class="st4">Room</tspan></text>		</g>
		<g id="shape120-355" v:mID="120" v:groupContext="shape" transform="translate(316.092,-376.299)">
			<title>Sheet.120</title>
			<desc>Guest Room</desc>
			<v:textBlock v:margins="rect(4,4,4,4)"/>
			<v:textRect cx="51.9013" cy="605.171" width="103.81" height="13.6582"/>
			<rect x="0" y="598.342" width="103.803" height="13.6582" class="st2"/>
			<text x="26.89" y="608.17" class="st3" v:langID="1033"><v:paragraph v:horizAlign="1"/><v:tabList/>Guest Room</text>		</g>
		<g id="shape121-358" v:mID="121" v:groupContext="shape" transform="translate(426.352,-357.013)">
			<title>Sheet.121</title>
			<desc>Sean’s Room</desc>
			<v:textBlock v:margins="rect(4,4,4,4)"/>
			<v:textRect cx="51.9013" cy="605.171" width="103.81" height="13.6582"/>
			<rect x="0" y="598.342" width="103.803" height="13.6582" class="st2"/>
			<text x="25.78" y="608.17" class="st3" v:langID="1033"><v:paragraph v:horizAlign="1"/><v:tabList/>Sean’s Room</text>		</g>
		<g id="shape122-361" v:mID="122" v:groupContext="shape" transform="translate(331.085,-327.812)">
			<title>Sheet.122</title>
			<desc>Guest Bath</desc>
			<v:textBlock v:margins="rect(4,4,4,4)"/>
			<v:textRect cx="51.9013" cy="605.171" width="103.81" height="13.6582"/>
			<rect x="0" y="598.342" width="103.803" height="13.6582" class="st2"/>
			<text x="29.45" y="608.17" class="st3" v:langID="1033"><v:paragraph v:horizAlign="1"/><v:tabList/>Guest Bath</text>		</g>
		<g id="shape123-364" v:mID="123" v:groupContext="shape" transform="translate(386.743,-187.132)">
			<title>Sheet.123</title>
			<desc>Lance’s Room</desc>
			<v:textBlock v:margins="rect(4,4,4,4)"/>
			<v:textRect cx="51.9013" cy="605.171" width="103.81" height="13.6582"/>
			<rect x="0" y="598.342" width="103.803" height="13.6582" class="st2"/>
			<text x="23.86" y="608.17" class="st3" v:langID="1033"><v:paragraph v:horizAlign="1"/><v:tabList/>Lance’s Room</text>		</g>
		<g id="shape124-367" v:mID="124" v:groupContext="shape" transform="translate(291.135,-187.132)">
			<title>Sheet.124</title>
			<desc>Guest Room</desc>
			<v:textBlock v:margins="rect(4,4,4,4)"/>
			<v:textRect cx="51.9013" cy="605.171" width="103.81" height="13.6582"/>
			<rect x="0" y="598.342" width="103.803" height="13.6582" class="st2"/>
			<text x="26.89" y="608.17" class="st3" v:langID="1033"><v:paragraph v:horizAlign="1"/><v:tabList/>Guest Room</text>		</g>
		<g id="shape125-370" v:mID="125" v:groupContext="shape" transform="translate(528.105,-187.132)">
			<title>Sheet.125</title>
			<desc>Media Room</desc>
			<v:textBlock v:margins="rect(4,4,4,4)"/>
			<v:textRect cx="51.9013" cy="605.171" width="103.81" height="13.6582"/>
			<rect x="0" y="598.342" width="103.803" height="13.6582" class="st2"/>
			<text x="25.86" y="608.17" class="st3" v:langID="1033"><v:paragraph v:horizAlign="1"/><v:tabList/>Media Room</text>		</g>
		<g id="shape126-373" v:mID="126" v:groupContext="shape" transform="translate(256.198,-301.342)">
			<title>Sheet.126</title>
			<desc>Hall</desc>
			<v:textBlock v:margins="rect(4,4,4,4)"/>
			<v:textRect cx="51.9013" cy="605.171" width="103.81" height="13.6582"/>
			<rect x="0" y="598.342" width="103.803" height="13.6582" class="st2"/>
			<text x="44.1" y="608.17" class="st3" v:langID="1033"><v:paragraph v:horizAlign="1"/><v:tabList/>Hall</text>		</g>
	</g>
</svg>
