<?xml version="1.0" encoding="UTF-8" standalone="no"?>
<!DOCTYPE svg PUBLIC "-//W3C//DTD SVG 1.1//EN" "http://www.w3.org/Graphics/SVG/1.1/DTD/svg11.dtd">
<!-- Generated by Microsoft Visio, SVG Export Steve Jackson House Map 2nd Floor 3-3-25.svg 2nd Flr -->
<svg xmlns="http://www.w3.org/2000/svg" xmlns:xlink="http://www.w3.org/1999/xlink" xmlns:ev="http://www.w3.org/2001/xml-events"
		xmlns:v="http://schemas.microsoft.com/visio/2003/SVGExtensions/" width="11in" height="8.5in" viewBox="0 0 792 612"
		xml:space="preserve" color-interpolation-filters="sRGB" class="st8">
	<v:documentProperties v:langID="1033" v:viewMarkup="false">
		<v:userDefs>
			<v:ud v:nameU="msvNoAutoConnect" v:val="VT0(1):26"/>
		</v:userDefs>
	</v:documentProperties>

	<style type="text/css">
	<![CDATA[
		.st1 {stroke:#000000;stroke-width:3}
		.st2 {fill:none;stroke:none;stroke-linecap:round;stroke-linejoin:round;stroke-width:3}
		.st3 {fill:#000000;font-family:Calibri;font-size:1.5em}
		.st4 {font-size:1em}
		.st5 {fill:#000000;font-family:Calibri;font-size:0.833336em}
		.st6 {fill:#000000;font-family:Calibri;font-size:1.16666em}
		.st7 {fill:#000000;font-family:Calibri;font-size:1.00001em}
		.st8 {fill:none;fill-rule:evenodd;font-size:12px;overflow:visible;stroke-linecap:square;stroke-miterlimit:3}
	]]>
	</style>

	<g v:mID="7" v:index="2" v:groupContext="foregroundPage">
		<title>2nd Flr</title>
		<v:pageProperties v:drawingScale="1" v:pageScale="1" v:drawingUnits="19" v:shadowOffsetX="9" v:shadowOffsetY="-9"/>
		<g id="shape2-1" v:mID="2" v:groupContext="shape" transform="translate(-329.609,158.481) rotate(-62.0369)">
			<title>Sheet.2</title>
			<path d="M0 612 L18.63 612" class="st1"/>
		</g>
		<g id="shape3-4" v:mID="3" v:groupContext="shape" transform="translate(-365.801,428.627) rotate(-90)">
			<title>Sheet.3</title>
			<path d="M0 612 L93.64 612" class="st1"/>
		</g>
		<g id="shape4-7" v:mID="4" v:groupContext="shape" transform="translate(-515.25,428.957) rotate(-90)">
			<title>Sheet.4</title>
			<path d="M0 612 L113.14 612" class="st1"/>
		</g>
		<g id="shape5-10" v:mID="5" v:groupContext="shape" transform="translate(136.862,925.834) rotate(180)">
			<title>Sheet.5</title>
			<path d="M0 612 L55.86 612" class="st1"/>
		</g>
		<g id="shape7-13" v:mID="7" v:groupContext="shape" transform="translate(210.94,1057.45) rotate(180)">
			<title>Sheet.7</title>
			<path d="M0 612 L79.16 612" class="st1"/>
		</g>
		<g id="shape8-16" v:mID="8" v:groupContext="shape" transform="translate(245.935,1040.74) rotate(180)">
			<title>Sheet.8</title>
			<path d="M0 612 L25.52 612" class="st1"/>
		</g>
		<g id="shape9-19" v:mID="9" v:groupContext="shape" transform="translate(-377.481,784.861) rotate(-123.683)">
			<title>Sheet.9</title>
			<path d="M0 612 L18.83 612" class="st1"/>
		</g>
		<g id="shape10-22" v:mID="10" v:groupContext="shape" transform="translate(120.217,1040.96) rotate(180)">
			<title>Sheet.10</title>
			<path d="M0 612 L23.47 612" class="st1"/>
		</g>
		<g id="shape11-25" v:mID="11" v:groupContext="shape" transform="translate(244.259,954.038) rotate(180)">
			<title>Sheet.11</title>
			<path d="M0 612 L25.52 612" class="st1"/>
		</g>
		<g id="shape12-28" v:mID="12" v:groupContext="shape" transform="translate(199.373,925.834) rotate(180)">
			<title>Sheet.12</title>
			<path d="M0 612 L44.23 612" class="st1"/>
		</g>
		<g id="shape13-31" v:mID="13" v:groupContext="shape" transform="translate(307.211,925.834) rotate(180)">
			<title>Sheet.13</title>
			<path d="M0 612 L87.54 612" class="st1"/>
		</g>
		<g id="shape14-34" v:mID="14" v:groupContext="shape" transform="translate(305.721,1004.18) rotate(180)">
			<title>Sheet.14</title>
			<path d="M0 612 L57.74 612" class="st1"/>
		</g>
		<g id="shape15-37" v:mID="15" v:groupContext="shape" transform="translate(-303.206,492.456) rotate(-90)">
			<title>Sheet.15</title>
			<path d="M0 612 L247.56 612" class="st1"/>
		</g>
		<g id="shape16-40" v:mID="16" v:groupContext="shape" transform="translate(385.621,960.305) rotate(180)">
			<title>Sheet.16</title>
			<path d="M0 612 L76.83 612" class="st1"/>
		</g>
		<g id="shape17-43" v:mID="17" v:groupContext="shape" transform="translate(310.284,820.998) rotate(180)">
			<title>Sheet.17</title>
			<path d="M0 612 L87.54 612" class="st1"/>
		</g>
		<g id="shape18-46" v:mID="18" v:groupContext="shape" transform="translate(548.496,820.808) rotate(180)">
			<title>Sheet.18</title>
			<path d="M0 612 L218.19 612" class="st1"/>
		</g>
		<g id="shape19-49" v:mID="19" v:groupContext="shape" transform="translate(-415.421,342.038) rotate(-90)">
			<title>Sheet.19</title>
			<path d="M0 612 L131.95 612" class="st1"/>
		</g>
		<g id="shape20-52" v:mID="20" v:groupContext="shape" transform="translate(-452.485,313.834) rotate(-90)">
			<title>Sheet.20</title>
			<path d="M0 612 L228.76 612" class="st1"/>
		</g>
		<g id="shape21-55" v:mID="21" v:groupContext="shape" transform="translate(-472.995,313.834) rotate(-90)">
			<title>Sheet.21</title>
			<path d="M0 612 L109.68 612" class="st1"/>
		</g>
		<g id="shape22-58" v:mID="22" v:groupContext="shape" transform="translate(-531,313.834) rotate(-90)">
			<title>Sheet.22</title>
			<path d="M0 612 L231.89 612" class="st1"/>
		</g>
		<g id="shape23-61" v:mID="23" v:groupContext="shape" transform="translate(138.407,797.352) rotate(180)">
			<title>Sheet.23</title>
			<path d="M0 612 L55.16 612" class="st1"/>
		</g>
		<g id="shape24-64" v:mID="24" v:groupContext="shape" transform="translate(95.2286,767.524) rotate(180)">
			<title>Sheet.24</title>
			<path d="M0 612 L12.43 612" class="st1"/>
		</g>
		<g id="shape25-67" v:mID="25" v:groupContext="shape" transform="translate(-473.593,185.352) rotate(-90)">
			<title>Sheet.25</title>
			<path d="M0 612 L31.34 612" class="st1"/>
		</g>
		<g id="shape26-70" v:mID="26" v:groupContext="shape" transform="translate(-499.885,185.352) rotate(-90)">
			<title>Sheet.26</title>
			<path d="M0 612 L31.34 612" class="st1"/>
		</g>
		<g id="shape27-73" v:mID="27" v:groupContext="shape" transform="translate(-473.593,135.213) rotate(-90)">
			<title>Sheet.27</title>
			<path d="M0 612 L51.65 612" class="st1"/>
		</g>
		<g id="shape28-76" v:mID="28" v:groupContext="shape" transform="translate(141.31,694.723) rotate(180)">
			<title>Sheet.28</title>
			<path d="M0 612 L16.9 612" class="st1"/>
		</g>
		<g id="shape29-79" v:mID="29" v:groupContext="shape" transform="translate(85.9938,693.94) rotate(180)">
			<title>Sheet.29</title>
			<path d="M0 612 L2.69 612" class="st1"/>
		</g>
		<g id="shape30-82" v:mID="30" v:groupContext="shape" transform="translate(118.261,685.322) rotate(180)">
			<title>Sheet.30</title>
			<path d="M0 612 L26.12 612" class="st1"/>
		</g>
		<g id="shape31-85" v:mID="31" v:groupContext="shape" transform="translate(619.607,383.682) rotate(120.472)">
			<title>Sheet.31</title>
			<path d="M0 612 L9.09 612" class="st1"/>
		</g>
		<g id="shape32-88" v:mID="32" v:groupContext="shape" transform="translate(659.061,-214.555) rotate(61.8574)">
			<title>Sheet.32</title>
			<path d="M0 612 L9.77 612" class="st1"/>
		</g>
		<g id="shape33-91" v:mID="33" v:groupContext="shape" transform="translate(201.235,755.598) rotate(180)">
			<title>Sheet.33</title>
			<path d="M0 612 L39.95 612" class="st1"/>
		</g>
		<g id="shape34-94" v:mID="34" v:groupContext="shape" transform="translate(205.554,820.998) rotate(180)">
			<title>Sheet.34</title>
			<path d="M0 612 L18.52 612" class="st1"/>
		</g>
		<g id="shape35-97" v:mID="35" v:groupContext="shape" transform="translate(170.504,820.982) rotate(180)">
			<title>Sheet.35</title>
			<path d="M0 612 L10.99 612" class="st1"/>
		</g>
		<g id="shape36-100" v:mID="36" v:groupContext="shape" transform="translate(-430.865,184.421) rotate(-90)">
			<title>Sheet.36</title>
			<path d="M0 612 L19.14 612" class="st1"/>
		</g>
		<g id="shape37-103" v:mID="37" v:groupContext="shape" transform="translate(-408.938,184.251) rotate(-90)">
			<title>Sheet.37</title>
			<path d="M0 612 L59.96 612" class="st1"/>
		</g>
		<g id="shape38-106" v:mID="38" v:groupContext="shape" transform="translate(171.501,736.287) rotate(180)">
			<title>Sheet.38</title>
			<path d="M0 612 L10.22 612" class="st1"/>
		</g>
		<g id="shape39-109" v:mID="39" v:groupContext="shape" transform="translate(203.062,736.287) rotate(180)">
			<title>Sheet.39</title>
			<path d="M0 612 L15.66 612" class="st1"/>
		</g>
		<g id="shape40-112" v:mID="40" v:groupContext="shape" transform="translate(233.503,797.352) rotate(180)">
			<title>Sheet.40</title>
			<path d="M0 612 L12.58 612" class="st1"/>
		</g>
		<g id="shape41-115" v:mID="41" v:groupContext="shape" transform="translate(287.282,773.849) rotate(180)">
			<title>Sheet.41</title>
			<path d="M0 612 L51 612" class="st1"/>
		</g>
		<g id="shape42-118" v:mID="42" v:groupContext="shape" transform="translate(361.036,720.576) rotate(180)">
			<title>Sheet.42</title>
			<path d="M0 612 L126 612" class="st1"/>
		</g>
		<g id="shape44-121" v:mID="44" v:groupContext="shape" transform="translate(192.016,694.723) rotate(180)">
			<title>Sheet.44</title>
			<path d="M0 612 L32.27 612" class="st1"/>
		</g>
		<g id="shape45-124" v:mID="45" v:groupContext="shape" transform="translate(225.82,685.322) rotate(180)">
			<title>Sheet.45</title>
			<path d="M0 612 L28.43 612" class="st1"/>
		</g>
		<g id="shape46-127" v:mID="46" v:groupContext="shape" transform="translate(724.86,383.682) rotate(120.472)">
			<title>Sheet.46</title>
			<path d="M0 612 L9.09 612" class="st1"/>
		</g>
		<g id="shape47-130" v:mID="47" v:groupContext="shape" transform="translate(765.467,-215.338) rotate(61.8574)">
			<title>Sheet.47</title>
			<path d="M0 612 L9.77 612" class="st1"/>
		</g>
		<g id="shape48-133" v:mID="48" v:groupContext="shape" transform="translate(233.119,694.332) rotate(180)">
			<title>Sheet.48</title>
			<path d="M0 612 L2.69 612" class="st1"/>
		</g>
		<g id="shape49-136" v:mID="49" v:groupContext="shape" transform="translate(-378.48,180.788) rotate(-89.5727)">
			<title>Sheet.49</title>
			<path d="M0 612 L103.02 612" class="st1"/>
		</g>
		<g id="shape50-139" v:mID="50" v:groupContext="shape" transform="translate(-358.522,128.946) rotate(-90)">
			<title>Sheet.50</title>
			<path d="M0 612 L19.14 612" class="st1"/>
		</g>
		<g id="shape51-142" v:mID="51" v:groupContext="shape" transform="translate(-323.489,129.729) rotate(-90)">
			<title>Sheet.51</title>
			<path d="M0 612 L19.14 612" class="st1"/>
		</g>
		<g id="shape52-145" v:mID="52" v:groupContext="shape" transform="translate(-323.182,177.518) rotate(-90)">
			<title>Sheet.52</title>
			<path d="M0 612 L29.33 612" class="st1"/>
		</g>
		<g id="shape53-148" v:mID="53" v:groupContext="shape" transform="translate(-323.182,208.998) rotate(-90)">
			<title>Sheet.53</title>
			<path d="M0 612 L15.81 612" class="st1"/>
		</g>
		<g id="shape54-151" v:mID="54" v:groupContext="shape" transform="translate(-353.913,207.288) rotate(-90)">
			<title>Sheet.54</title>
			<path d="M0 612 L43.87 612" class="st1"/>
		</g>
		<g id="shape55-154" v:mID="55" v:groupContext="shape" transform="translate(-302.822,216.689) rotate(-90)">
			<title>Sheet.55</title>
			<path d="M0 612 L7.69 612" class="st1"/>
		</g>
		<g id="shape56-157" v:mID="56" v:groupContext="shape" transform="translate(-250.195,121.111) rotate(-90)">
			<title>Sheet.56</title>
			<path d="M0 612 L12.48 612" class="st1"/>
		</g>
		<g id="shape57-160" v:mID="57" v:groupContext="shape" transform="translate(59.9869,654.851) rotate(-148.531)">
			<title>Sheet.57</title>
			<path d="M0 612 L19.32 612" class="st1"/>
		</g>
		<g id="shape58-163" v:mID="58" v:groupContext="shape" transform="translate(-378.113,208.998) rotate(-90)">
			<title>Sheet.58</title>
			<path d="M0 612 L5.63 612" class="st1"/>
		</g>
		<g id="shape59-166" v:mID="59" v:groupContext="shape" transform="translate(-249.811,205.721) rotate(-90)">
			<title>Sheet.59</title>
			<path d="M0 612 L9.4 612" class="st1"/>
		</g>
		<g id="shape60-169" v:mID="60" v:groupContext="shape" transform="translate(-231.757,185.352) rotate(-90)">
			<title>Sheet.60</title>
			<path d="M0 612 L50.53 612" class="st1"/>
		</g>
		<g id="shape61-172" v:mID="61" v:groupContext="shape" transform="translate(697.992,708.401) rotate(148.722)">
			<title>Sheet.61</title>
			<path d="M0 612 L21.12 612" class="st1"/>
		</g>
		<g id="shape62-175" v:mID="62" v:groupContext="shape" transform="translate(-280.158,268.396) rotate(-90)">
			<title>Sheet.62</title>
			<path d="M0 612 L59.59 612" class="st1"/>
		</g>
		<g id="shape63-178" v:mID="63" v:groupContext="shape" transform="translate(-280.158,323.235) rotate(-90)">
			<title>Sheet.63</title>
			<path d="M0 612 L36.04 612" class="st1"/>
		</g>
		<g id="shape64-181" v:mID="64" v:groupContext="shape" transform="translate(344.134,902.331) rotate(180)">
			<title>Sheet.64</title>
			<path d="M0 612 L10.16 612" class="st1"/>
		</g>
		<g id="shape65-184" v:mID="65" v:groupContext="shape" transform="translate(381.012,902.331) rotate(180)">
			<title>Sheet.65</title>
			<path d="M0 612 L19.38 612" class="st1"/>
		</g>
		<g id="shape66-187" v:mID="66" v:groupContext="shape" transform="translate(439.4,902.331) rotate(180)">
			<title>Sheet.66</title>
			<path d="M0 612 L40.89 612" class="st1"/>
		</g>
		<g id="shape67-190" v:mID="67" v:groupContext="shape" transform="translate(444.01,936.019) rotate(180)">
			<title>Sheet.67</title>
			<path d="M0 612 L112.17 612" class="st1"/>
		</g>
		<g id="shape68-193" v:mID="68" v:groupContext="shape" transform="translate(-249.043,323.235) rotate(-90)">
			<title>Sheet.68</title>
			<path d="M0 612 L32.9 612" class="st1"/>
		</g>
		<g id="shape69-196" v:mID="69" v:groupContext="shape" transform="translate(-172.215,322.844) rotate(-90)">
			<title>Sheet.69</title>
			<path d="M0 612 L114.04 612" class="st1"/>
		</g>
		<g id="shape70-199" v:mID="70" v:groupContext="shape" transform="translate(308.794,856.893) rotate(180)">
			<title>Sheet.70</title>
			<path d="M0 612 L61.46 612" class="st1"/>
		</g>
		<g id="shape71-202" v:mID="71" v:groupContext="shape" transform="translate(261.161,902.331) rotate(180)">
			<title>Sheet.71</title>
			<path d="M0 612 L14.77 612" class="st1"/>
		</g>
		<g id="shape72-205" v:mID="72" v:groupContext="shape" transform="translate(-365.437,288.765) rotate(-90)">
			<title>Sheet.72</title>
			<path d="M0 612 L42.31 612" class="st1"/>
		</g>
		<g id="shape73-208" v:mID="73" v:groupContext="shape" transform="translate(-389.253,310.701) rotate(-90)">
			<title>Sheet.73</title>
			<path d="M0 612 L64.24 612" class="st1"/>
		</g>
		<g id="shape74-211" v:mID="74" v:groupContext="shape" transform="translate(-62.7362,395.311) rotate(-90)">
			<title>Sheet.74</title>
			<path d="M0 612 L186.5 612" class="st1"/>
		</g>
		<g id="shape75-214" v:mID="75" v:groupContext="shape" transform="translate(548.496,936.019) rotate(180)">
			<title>Sheet.75</title>
			<path d="M0 612 L86.05 612" class="st1"/>
		</g>
		<g id="shape76-217" v:mID="76" v:groupContext="shape" transform="translate(447.083,850.234) rotate(180)">
			<title>Sheet.76</title>
			<path d="M0 612 L7.3 612" class="st1"/>
		</g>
		<g id="shape77-220" v:mID="77" v:groupContext="shape" transform="translate(520.844,849.842) rotate(180)">
			<title>Sheet.77</title>
			<path d="M0 612 L58.4 612" class="st1"/>
		</g>
		<g id="shape78-223" v:mID="78" v:groupContext="shape" transform="translate(548.496,849.842) rotate(180)">
			<title>Sheet.78</title>
			<path d="M0 612 L12.71 612" class="st1"/>
		</g>
		<g id="shape79-226" v:mID="79" v:groupContext="shape" transform="translate(-108.011,245.938) rotate(-90.758)">
			<title>Sheet.79</title>
			<path d="M0 612 L29.04 612" class="st1"/>
		</g>
		<g id="shape80-229" v:mID="80" v:groupContext="shape" transform="translate(487.034,960.305) rotate(180)">
			<title>Sheet.80</title>
			<path d="M0 612 L77.77 612" class="st1"/>
		</g>
		<g id="shape81-232" v:mID="81" v:groupContext="shape" transform="translate(485.497,978.324) rotate(180)">
			<title>Sheet.81</title>
			<path d="M0 612 L76.23 612" class="st1"/>
		</g>
		<g id="shape82-235" v:mID="82" v:groupContext="shape" transform="translate(485.497,1026.9) rotate(180)">
			<title>Sheet.82</title>
			<path d="M0 612 L20.91 612" class="st1"/>
		</g>
		<g id="shape83-238" v:mID="83" v:groupContext="shape" transform="translate(446.699,1026.9) rotate(180)">
			<title>Sheet.83</title>
			<path d="M0 612 L10.93 612" class="st1"/>
		</g>
		<g id="shape84-241" v:mID="84" v:groupContext="shape" transform="translate(417.889,1026.9) rotate(180)">
			<title>Sheet.84</title>
			<path d="M0 612 L8.62 612" class="st1"/>
		</g>
		<g id="shape85-244" v:mID="85" v:groupContext="shape" transform="translate(1021.05,367.499) rotate(90)">
			<title>Sheet.85</title>
			<path d="M0 612 L139.06 612" class="st1"/>
		</g>
		<g id="shape86-247" v:mID="86" v:groupContext="shape" transform="translate(485.497,1007.7) rotate(180)">
			<title>Sheet.86</title>
			<path d="M0 612 L16.3 612" class="st1"/>
		</g>
		<g id="shape87-250" v:mID="87" v:groupContext="shape" transform="translate(1056.01,366.324) rotate(90)">
			<title>Sheet.87</title>
			<path d="M0 612 L47.01 612" class="st1"/>
		</g>
		<g id="shape88-253" v:mID="88" v:groupContext="shape" transform="translate(1097.88,367.891) rotate(90)">
			<title>Sheet.88</title>
			<path d="M0 612 L47.01 612" class="st1"/>
		</g>
		<g id="shape89-256" v:mID="89" v:groupContext="shape" transform="translate(1119.78,365.54) rotate(90)">
			<title>Sheet.89</title>
			<path d="M0 612 L166.09 612" class="st1"/>
		</g>
		<g id="shape90-259" v:mID="90" v:groupContext="shape" transform="translate(507.777,1119.34) rotate(180)">
			<title>Sheet.90</title>
			<path d="M0 612 L98.72 612" class="st1"/>
		</g>
		<g id="shape91-262" v:mID="91" v:groupContext="shape" transform="translate(557.715,1144.8) rotate(180)">
			<title>Sheet.91</title>
			<path d="M0 612 L49.94 612" class="st1"/>
		</g>
		<g id="shape92-265" v:mID="92" v:groupContext="shape" transform="translate(997.621,349.872) rotate(90)">
			<title>Sheet.92</title>
			<path d="M0 612 L59.54 612" class="st1"/>
		</g>
		<g id="shape93-268" v:mID="93" v:groupContext="shape" transform="translate(961.512,349.48) rotate(90)">
			<title>Sheet.93</title>
			<path d="M0 612 L59.54 612" class="st1"/>
		</g>
		<g id="shape94-271" v:mID="94" v:groupContext="shape" transform="translate(385.621,1022.2) rotate(180)">
			<title>Sheet.94</title>
			<path d="M0 612 L9.22 612" class="st1"/>
		</g>
		<g id="shape95-274" v:mID="95" v:groupContext="shape" transform="translate(318.781,1022.2) rotate(180)">
			<title>Sheet.95</title>
			<path d="M0 612 L9.22 612" class="st1"/>
		</g>
		<g id="shape96-277" v:mID="96" v:groupContext="shape" transform="translate(359.884,1022.2) rotate(180)">
			<title>Sheet.96</title>
			<path d="M0 612 L22.66 612" class="st1"/>
		</g>
		<g id="shape97-280" v:mID="97" v:groupContext="shape" transform="translate(382.548,1118.87) rotate(180)">
			<title>Sheet.97</title>
			<path d="M0 612 L49.17 612" class="st1"/>
		</g>
		<g id="shape98-283" v:mID="98" v:groupContext="shape" transform="translate(913.557,813.834) rotate(121.505)">
			<title>Sheet.98</title>
			<path d="M0 612 L14.7 612" class="st1"/>
		</g>
		<g id="shape99-286" v:mID="99" v:groupContext="shape" transform="translate(850.953,179.938) rotate(59.1221)">
			<title>Sheet.99</title>
			<path d="M0 612 L14.97 612" class="st1"/>
		</g>
		<g id="shape100-289" v:mID="100" v:groupContext="shape" transform="translate(409.054,1105.24) rotate(180)">
			<title>Sheet.100</title>
			<path d="M0 612 L15.75 612" class="st1"/>
		</g>
		<g id="shape101-292" v:mID="101" v:groupContext="shape" transform="translate(324.159,1105.24) rotate(180)">
			<title>Sheet.101</title>
			<path d="M0 612 L15.75 612" class="st1"/>
		</g>
		<g id="shape102-295" v:mID="102" v:groupContext="shape" transform="translate(642.225,1150.68) rotate(180)">
			<title>Sheet.102</title>
			<path d="M0 612 L83.74 612" class="st1"/>
		</g>
		<g id="shape103-298" v:mID="103" v:groupContext="shape" transform="translate(682.175,1144.41) rotate(180)">
			<title>Sheet.103</title>
			<path d="M0 612 L39.95 612" class="st1"/>
		</g>
		<g id="shape104-301" v:mID="104" v:groupContext="shape" transform="translate(1254.23,533.977) rotate(90)">
			<title>Sheet.104</title>
			<path d="M0 612 L4.7 612" class="st1"/>
		</g>
		<g id="shape105-304" v:mID="105" v:groupContext="shape" transform="translate(1170.48,532.802) rotate(90)">
			<title>Sheet.105</title>
			<path d="M0 612 L4.7 612" class="st1"/>
		</g>
		<g id="shape106-307" v:mID="106" v:groupContext="shape" transform="translate(1294.18,497.156) rotate(90)">
			<title>Sheet.106</title>
			<path d="M0 612 L35.25 612" class="st1"/>
		</g>
		<g id="shape107-310" v:mID="107" v:groupContext="shape" transform="translate(686.785,1109.16) rotate(180)">
			<title>Sheet.107</title>
			<path d="M0 612 L4.61 612" class="st1"/>
		</g>
		<g id="shape108-313" v:mID="108" v:groupContext="shape" transform="translate(75.9375,497.156) rotate(-90)">
			<title>Sheet.108</title>
			<path d="M0 612 L128.48 612" class="st1"/>
		</g>
		<g id="shape109-316" v:mID="109" v:groupContext="shape" transform="translate(687.553,979.891) rotate(180)">
			<title>Sheet.109</title>
			<path d="M0 612 L136.92 612" class="st1"/>
		</g>
		<g id="shape110-319" v:mID="110" v:groupContext="shape" transform="translate(631.469,1007.7) rotate(180)">
			<title>Sheet.110</title>
			<path d="M0 612 L81.99 612" class="st1"/>
		</g>
		<g id="shape111-322" v:mID="111" v:groupContext="shape" transform="translate(1264.98,369.458) rotate(90)">
			<title>Sheet.111</title>
			<path d="M0 612 L27.42 612" class="st1"/>
		</g>
		<g id="shape112-325" v:mID="112" v:groupContext="shape" transform="translate(687.938,1009.27) rotate(180)">
			<title>Sheet.112</title>
			<path d="M0 612 L18.05 612" class="st1"/>
		</g>
		<g id="shape113-328" v:mID="113" v:groupContext="shape" transform="translate(121.334,-221.564)">
			<title>Sheet.113</title>
			<desc>Master Bedroom</desc>
			<v:textBlock v:margins="rect(4,4,4,4)"/>
			<v:textRect cx="51.9013" cy="605.036" width="103.81" height="13.9276"/>
			<rect x="0" y="598.072" width="103.803" height="13.9276" class="st2"/>
			<text x="25.75" y="599.64" class="st3" v:langID="1033"><v:paragraph v:horizAlign="1"/><v:tabList/>Master <tspan
						x="17.98" dy="1.2em" class="st4">Bedroom</tspan></text>		</g>
		<g id="shape114-332" v:mID="114" v:groupContext="shape" transform="translate(300.747,-449.599)">
			<title>Sheet.114</title>
			<desc>Ellen’s Office</desc>
			<v:textBlock v:margins="rect(4,4,4,4)"/>
			<v:textRect cx="32.2531" cy="605.036" width="64.51" height="13.9276"/>
			<rect x="0" y="598.072" width="64.5061" height="13.9276" class="st2"/>
			<text x="8.76" y="599.64" class="st3" v:langID="1033"><v:paragraph v:horizAlign="1"/><v:tabList/>Ellen’s <tspan
						x="10.45" dy="1.2em" class="st4">Office</tspan></text>		</g>
		<g id="shape115-336" v:mID="115" v:groupContext="shape" transform="translate(241.494,-423.616)">
			<title>Sheet.115</title>
			<desc>Ellen’s Bath</desc>
			<v:textBlock v:margins="rect(4,4,4,4)"/>
			<v:textRect cx="32.2531" cy="606.666" width="64.51" height="10.6685"/>
			<rect x="0" y="601.332" width="64.5061" height="10.6685" class="st2"/>
			<text x="19.2" y="603.67" class="st5" v:langID="1033"><v:paragraph v:horizAlign="1"/><v:tabList/>Ellen’s<v:newlineChar/><tspan
						x="22.84" dy="1.2em" class="st4">Bath</tspan></text>		</g>
		<g id="shape116-340" v:mID="116" v:groupContext="shape" transform="translate(163.049,-502.289)">
			<title>Sheet.116</title>
			<desc>Steve’s Bath</desc>
			<v:textBlock v:margins="rect(4,4,4,4)"/>
			<v:textRect cx="35.4753" cy="605.036" width="70.96" height="13.9276"/>
			<rect x="0" y="598.072" width="70.9506" height="13.9276" class="st2"/>
			<text x="15.3" y="600.84" class="st6" v:langID="1033"><v:paragraph v:horizAlign="1"/><v:tabList/>Steve’s <tspan
						x="22.29" dy="1.2em" class="st4">Bath</tspan></text>		</g>
		<g id="shape117-344" v:mID="117" v:groupContext="shape" transform="translate(234,-334.135)">
			<title>Sheet.117</title>
			<desc>Ellen’s Closet</desc>
			<v:textBlock v:margins="rect(4,4,4,4)"/>
			<v:textRect cx="39.7561" cy="606.666" width="79.52" height="10.6685"/>
			<rect x="0" y="601.332" width="79.5123" height="10.6685" class="st2"/>
			<text x="21.48" y="602.47" class="st6" v:langID="1033"><v:paragraph v:horizAlign="1"/><v:tabList/>Ellen’s<v:newlineChar/><tspan
						x="22.16" dy="1.2em" class="st4">Closet</tspan></text>		</g>
		<g id="shape118-348" v:mID="118" v:groupContext="shape" transform="translate(126,-360.038)">
			<title>Sheet.118</title>
			<desc>Steve’s Closet</desc>
			<v:textBlock v:margins="rect(4,4,4,4)"/>
			<v:textRect cx="51.9013" cy="605.036" width="103.81" height="13.9276"/>
			<rect x="0" y="598.072" width="103.803" height="13.9276" class="st2"/>
			<text x="37.49" y="602.04" class="st5" v:langID="1033"><v:paragraph v:horizAlign="1"/><v:tabList/>Steve’s<v:newlineChar/><tspan
						x="39.33" dy="1.2em" class="st4">Closet</tspan></text>		</g>
		<g id="shape119-352" v:mID="119" v:groupContext="shape" transform="translate(225.82,-252.901)">
			<title>Sheet.119</title>
			<desc>Sitting Room</desc>
			<v:textBlock v:margins="rect(4,4,4,4)"/>
			<v:textRect cx="51.9013" cy="605.036" width="103.81" height="13.9276"/>
			<rect x="0" y="598.072" width="103.803" height="13.9276" class="st2"/>
			<text x="28.64" y="599.64" class="st3" v:langID="1033"><v:paragraph v:horizAlign="1"/><v:tabList/>Sitting<v:newlineChar/><tspan
						x="30.33" dy="1.2em" class="st4">Room</tspan></text>		</g>
		<g id="shape120-356" v:mID="120" v:groupContext="shape" transform="translate(337.197,-353.074)">
			<title>Sheet.120</title>
			<desc>Guest Room</desc>
			<v:textBlock v:margins="rect(4,4,4,4)"/>
			<v:textRect cx="47.4013" cy="605.036" width="94.81" height="13.9276"/>
			<rect x="0" y="598.072" width="94.8025" height="13.9276" class="st2"/>
			<text x="25.98" y="599.64" class="st3" v:langID="1033"><v:paragraph v:horizAlign="1"/><v:tabList/>Guest <tspan
						x="25.83" dy="1.2em" class="st4">Room</tspan></text>		</g>
		<g id="shape121-360" v:mID="121" v:groupContext="shape" transform="translate(451.049,-325.703)">
			<title>Sheet.121</title>
			<desc>Sean’s Room</desc>
			<v:textBlock v:margins="rect(4,4,4,4)"/>
			<v:textRect cx="43.9506" cy="605.036" width="87.91" height="13.9276"/>
			<rect x="0" y="598.072" width="87.9013" height="13.9276" class="st2"/>
			<text x="20.53" y="599.64" class="st3" v:langID="1033"><v:paragraph v:horizAlign="1"/><v:tabList/>Sean’s <tspan
						x="22.38" dy="1.2em" class="st4">Room</tspan></text>		</g>
		<g id="shape122-364" v:mID="122" v:groupContext="shape" transform="translate(355.197,-298.171)">
			<title>Sheet.122</title>
			<desc>Guest Bath</desc>
			<v:textBlock v:margins="rect(4,4,4,4)"/>
			<v:textRect cx="47.4013" cy="605.036" width="94.81" height="13.9276"/>
			<rect x="0" y="598.072" width="94.8025" height="13.9276" class="st2"/>
			<text x="20.47" y="608.64" class="st7" v:langID="1033"><v:paragraph v:horizAlign="1"/><v:tabList/>Guest Bath</text>		</g>
		<g id="shape123-367" v:mID="123" v:groupContext="shape" transform="translate(415.049,-148.956)">
			<title>Sheet.123</title>
			<desc>Lance’s Room</desc>
			<v:textBlock v:margins="rect(4,4,4,4)"/>
			<v:textRect cx="43.9506" cy="605.036" width="87.91" height="13.9276"/>
			<rect x="0" y="598.072" width="87.9013" height="13.9276" class="st2"/>
			<text x="17.08" y="599.64" class="st3" v:langID="1033"><v:paragraph v:horizAlign="1"/><v:tabList/>Lance’s <tspan
						x="22.38" dy="1.2em" class="st4">Room</tspan></text>		</g>
		<g id="shape124-371" v:mID="124" v:groupContext="shape" transform="translate(310.197,-151.331)">
			<title>Sheet.124</title>
			<desc>Guest Room</desc>
			<v:textBlock v:margins="rect(4,4,4,4)"/>
			<v:textRect cx="47.4013" cy="605.036" width="94.81" height="13.9276"/>
			<rect x="0" y="598.072" width="94.8025" height="13.9276" class="st2"/>
			<text x="25.98" y="599.64" class="st3" v:langID="1033"><v:paragraph v:horizAlign="1"/><v:tabList/>Guest <tspan
						x="25.83" dy="1.2em" class="st4">Room</tspan></text>		</g>
		<g id="shape125-375" v:mID="125" v:groupContext="shape" transform="translate(557.697,-139.778)">
			<title>Sheet.125</title>
			<desc>Media Room</desc>
			<v:textBlock v:margins="rect(4,4,4,4)"/>
			<v:textRect cx="47.4013" cy="605.036" width="94.81" height="13.9276"/>
			<rect x="0" y="598.072" width="94.8025" height="13.9276" class="st2"/>
			<text x="24.12" y="599.64" class="st3" v:langID="1033"><v:paragraph v:horizAlign="1"/><v:tabList/>Media <tspan
						x="25.83" dy="1.2em" class="st4">Room</tspan></text>		</g>
	</g>
</svg>
