<?xml version="1.0" encoding="UTF-8" standalone="no"?>
<!DOCTYPE svg PUBLIC "-//W3C//DTD SVG 1.1//EN" "http://www.w3.org/Graphics/SVG/1.1/DTD/svg11.dtd">
<!-- Generated by Microsoft Visio, SVG Export Steve Jackson House Map 1st Floor V2.0 3-3-25.svg Page-3 -->
<svg xmlns="http://www.w3.org/2000/svg" xmlns:xlink="http://www.w3.org/1999/xlink" xmlns:ev="http://www.w3.org/2001/xml-events"
		xmlns:v="http://schemas.microsoft.com/visio/2003/SVGExtensions/" width="11in" height="8.5in" viewBox="0 0 792 612"
		xml:space="preserve" color-interpolation-filters="sRGB" class="st9">
	<v:documentProperties v:langID="1033" v:viewMarkup="false">
		<v:userDefs>
			<v:ud v:nameU="msvNoAutoConnect" v:val="VT0(1):26"/>
		</v:userDefs>
	</v:documentProperties>

	<style type="text/css">
	<![CDATA[
		.st1 {stroke:#000000;stroke-width:3}
		.st2 {fill:none;stroke:none;stroke-linecap:round;stroke-linejoin:round;stroke-width:3}
		.st3 {fill:#000000;font-family:Calibri;font-size:1.16666em}
		.st4 {font-size:1em}
		.st5 {stroke:#000000;stroke-linecap:round;stroke-linejoin:round;stroke-width:0.75}
		.st6 {fill:none;stroke:none;stroke-linecap:round;stroke-linejoin:round;stroke-width:0.75}
		.st7 {fill:#000000;font-family:Calibri;font-size:1.00001em}
		.st8 {fill:#000000;font-family:Calibri;font-size:0.833336em}
		.st9 {fill:none;fill-rule:evenodd;font-size:12px;overflow:visible;stroke-linecap:square;stroke-miterlimit:3}
	]]>
	</style>

	<g v:mID="7" v:index="1" v:groupContext="foregroundPage">
		<title>1st  clean copy</title>
		<v:pageProperties v:drawingScale="1" v:pageScale="1" v:drawingUnits="19" v:shadowOffsetX="9" v:shadowOffsetY="-9"/>
		<v:layer v:name="Connector" v:index="0"/>
		<v:layer v:name="Callout" v:index="1"/>
		<g id="shape1-1" v:mID="1" v:groupContext="shape" transform="translate(372.985,-204.152)">
			<title>Sheet.1</title>
			<path d="M0 612 L85.77 612" class="st1"/>
		</g>
		<g id="shape2-4" v:mID="2" v:groupContext="shape" transform="translate(984.985,407.848) rotate(90)">
			<title>Sheet.2</title>
			<path d="M0 612 L59.62 612" class="st1"/>
		</g>
		<g id="shape3-7" v:mID="3" v:groupContext="shape" transform="translate(372.985,-144.528)">
			<title>Sheet.3</title>
			<path d="M0 612 L13.69 612" class="st1"/>
		</g>
		<g id="shape4-10" v:mID="4" v:groupContext="shape" transform="translate(902.795,138.593) rotate(57.4942)">
			<title>Sheet.4</title>
			<path d="M0 612 L13.04 612" class="st1"/>
		</g>
		<g id="shape5-13" v:mID="5" v:groupContext="shape" transform="translate(393.682,-133.527)">
			<title>Sheet.5</title>
			<path d="M0 612 L44.2 612" class="st1"/>
		</g>
		<g id="shape6-16" v:mID="6" v:groupContext="shape" transform="translate(-85.7605,161.702) rotate(-58.8287)">
			<title>Sheet.6</title>
			<path d="M0 612 L12.72 612" class="st1"/>
		</g>
		<g id="shape7-19" v:mID="7" v:groupContext="shape" transform="translate(444.677,-144.622)">
			<title>Sheet.7</title>
			<path d="M0 612 L13.56 612" class="st1"/>
		</g>
		<g id="shape8-22" v:mID="8" v:groupContext="shape" transform="translate(-153.762,472.498) rotate(-90)">
			<title>Sheet.8</title>
			<path d="M0 612 L22.1 612" class="st1"/>
		</g>
		<g id="shape9-25" v:mID="9" v:groupContext="shape" transform="translate(-153.241,424.822) rotate(-90)">
			<title>Sheet.9</title>
			<path d="M0 612 L16.97 612" class="st1"/>
		</g>
		<g id="shape10-28" v:mID="10" v:groupContext="shape" transform="translate(-166.043,406.781) rotate(-90)">
			<title>Sheet.10</title>
			<path d="M0 612 L44.81 612" class="st1"/>
		</g>
		<g id="shape11-31" v:mID="11" v:groupContext="shape" transform="translate(-152.814,394.832) rotate(-90)">
			<title>Sheet.11</title>
			<path d="M0 612 L32.43 612" class="st1"/>
		</g>
		<g id="shape12-34" v:mID="12" v:groupContext="shape" transform="translate(467.721,1006.83) rotate(180)">
			<title>Sheet.12</title>
			<path d="M0 612 L8.53 612" class="st1"/>
		</g>
		<g id="shape13-37" v:mID="13" v:groupContext="shape" transform="translate(467.294,1019.85) rotate(180)">
			<title>Sheet.13</title>
			<path d="M0 612 L8.53 612" class="st1"/>
		</g>
		<g id="shape14-40" v:mID="14" v:groupContext="shape" transform="translate(448.091,973.973) rotate(180)">
			<title>Sheet.14</title>
			<path d="M0 612 L2.13 612" class="st1"/>
		</g>
		<g id="shape15-43" v:mID="15" v:groupContext="shape" transform="translate(459.186,973.973) rotate(180)">
			<title>Sheet.15</title>
			<path d="M0 612 L2.13 612" class="st1"/>
		</g>
		<g id="shape16-46" v:mID="16" v:groupContext="shape" transform="translate(-213.411,407.848) rotate(-90)">
			<title>Sheet.16</title>
			<path d="M0 612 L8.32 612" class="st1"/>
		</g>
		<g id="shape17-49" v:mID="17" v:groupContext="shape" transform="translate(124.639,946.688) rotate(-153.435)">
			<title>Sheet.17</title>
			<path d="M0 612 L6.18 612" class="st1"/>
		</g>
		<g id="shape18-52" v:mID="18" v:groupContext="shape" transform="translate(-219.144,388.946) rotate(-89.2894)">
			<title>Sheet.18</title>
			<path d="M0 612 L18.78 612" class="st1"/>
		</g>
		<g id="shape19-55" v:mID="19" v:groupContext="shape" transform="translate(102.893,-161.086) rotate(-28.3008)">
			<title>Sheet.19</title>
			<path d="M0 612 L6.3 612" class="st1"/>
		</g>
		<g id="shape20-58" v:mID="20" v:groupContext="shape" transform="translate(-213.411,374.775) rotate(-90)">
			<title>Sheet.20</title>
			<path d="M0 612 L5.55 612" class="st1"/>
		</g>
		<g id="shape21-61" v:mID="21" v:groupContext="shape" transform="translate(-177.138,368.588) rotate(-90)">
			<title>Sheet.21</title>
			<path d="M0 612 L6.4 612" class="st1"/>
		</g>
		<g id="shape22-64" v:mID="22" v:groupContext="shape" transform="translate(358.263,-243.199)">
			<title>Sheet.22</title>
			<path d="M0 612 L76.6 612" class="st1"/>
		</g>
		<g id="shape23-67" v:mID="23" v:groupContext="shape" transform="translate(-253.524,368.801) rotate(-90)">
			<title>Sheet.23</title>
			<path d="M0 612 L75.73 612" class="st1"/>
		</g>
		<g id="shape24-70" v:mID="24" v:groupContext="shape" transform="translate(379.386,904.842) rotate(180)">
			<title>Sheet.24</title>
			<path d="M0 612 L20.91 612" class="st1"/>
		</g>
		<g id="shape25-73" v:mID="25" v:groupContext="shape" transform="translate(524.05,905.269) rotate(180)">
			<title>Sheet.25</title>
			<path d="M0 612 L103.48 612" class="st1"/>
		</g>
		<g id="shape26-76" v:mID="26" v:groupContext="shape" transform="translate(444.037,922.125) rotate(180)">
			<title>Sheet.26</title>
			<path d="M0 612 L35.95 612" class="st1"/>
		</g>
		<g id="shape27-79" v:mID="27" v:groupContext="shape" transform="translate(-204.022,367.521) rotate(-90)">
			<title>Sheet.27</title>
			<path d="M0 612 L21.34 612" class="st1"/>
		</g>
		<g id="shape28-82" v:mID="28" v:groupContext="shape" transform="translate(616.569,958.183) rotate(-179.912)">
			<title>Sheet.28</title>
			<path d="M0 612 L131.57 612" class="st1"/>
		</g>
		<g id="shape29-85" v:mID="29" v:groupContext="shape" transform="translate(5.5059,416.169) rotate(-90)">
			<title>Sheet.29</title>
			<path d="M0 612 L69.99 612" class="st1"/>
		</g>
		<g id="shape30-88" v:mID="30" v:groupContext="shape" transform="translate(616.226,1017.07) rotate(180)">
			<title>Sheet.30</title>
			<path d="M0 612 L15.36 612" class="st1"/>
		</g>
		<g id="shape31-91" v:mID="31" v:groupContext="shape" transform="translate(587.634,1017.07) rotate(180)">
			<title>Sheet.31</title>
			<path d="M0 612 L25.18 612" class="st1"/>
		</g>
		<g id="shape32-94" v:mID="32" v:groupContext="shape" transform="translate(515.942,973.76) rotate(180)">
			<title>Sheet.32</title>
			<path d="M0 612 L22.62 612" class="st1"/>
		</g>
		<g id="shape33-97" v:mID="33" v:groupContext="shape" transform="translate(505.274,1006.83) rotate(180)">
			<title>Sheet.33</title>
			<path d="M0 612 L12.38 612" class="st1"/>
		</g>
		<g id="shape34-100" v:mID="34" v:groupContext="shape" transform="translate(550.081,1042.25) rotate(180)">
			<title>Sheet.34</title>
			<path d="M0 612 L57.18 612" class="st1"/>
		</g>
		<g id="shape35-103" v:mID="35" v:groupContext="shape" transform="translate(-96.0577,386.724) rotate(-90)">
			<title>Sheet.35</title>
			<path d="M0 612 L24.96 612" class="st1"/>
		</g>
		<g id="shape36-106" v:mID="36" v:groupContext="shape" transform="translate(893.565,868.33) rotate(141.9)">
			<title>Sheet.36</title>
			<path d="M0 612 L2.98 612" class="st1"/>
		</g>
		<g id="shape37-109" v:mID="37" v:groupContext="shape" transform="translate(-119.579,427.9) rotate(-89.2607)">
			<title>Sheet.37</title>
			<path d="M0 612 L74.04 612" class="st1"/>
		</g>
		<g id="shape38-112" v:mID="38" v:groupContext="shape" transform="translate(-177.138,353.439) rotate(-90)">
			<title>Sheet.38</title>
			<path d="M0 612 L7.57 612" class="st1"/>
		</g>
		<g id="shape39-115" v:mID="39" v:groupContext="shape" transform="translate(-167.963,335.942) rotate(-90)">
			<title>Sheet.39</title>
			<path d="M0 612 L25.82 612" class="st1"/>
		</g>
		<g id="shape40-118" v:mID="40" v:groupContext="shape" transform="translate(-195.488,345.864) rotate(-90)">
			<title>Sheet.40</title>
			<path d="M0 612 L34.89 612" class="st1"/>
		</g>
		<g id="shape41-121" v:mID="41" v:groupContext="shape" transform="translate(-87.9497,300.95) rotate(-90)">
			<title>Sheet.41</title>
			<path d="M0 612 L7.68 612" class="st1"/>
		</g>
		<g id="shape42-124" v:mID="42" v:groupContext="shape" transform="translate(209.355,825.965) rotate(-147.995)">
			<title>Sheet.42</title>
			<path d="M0 612 L11.4 612" class="st1"/>
		</g>
		<g id="shape43-127" v:mID="43" v:groupContext="shape" transform="translate(-78.1186,332.361) rotate(-89.5848)">
			<title>Sheet.43</title>
			<path d="M0 612 L29.45 612" class="st1"/>
		</g>
		<g id="shape44-130" v:mID="44" v:groupContext="shape" transform="translate(807.56,884.185) rotate(153.435)">
			<title>Sheet.44</title>
			<path d="M0 612 L11.45 612" class="st1"/>
		</g>
		<g id="shape45-133" v:mID="45" v:groupContext="shape" transform="translate(-88.3764,346.04) rotate(-90)">
			<title>Sheet.45</title>
			<path d="M0 612 L4.12 612" class="st1"/>
		</g>
		<g id="shape46-136" v:mID="46" v:groupContext="shape" transform="translate(451.505,947.942) rotate(180)">
			<title>Sheet.46</title>
			<path d="M0 612 L7.25 612" class="st1"/>
		</g>
		<g id="shape47-139" v:mID="47" v:groupContext="shape" transform="translate(-119.955,504.29) rotate(-90)">
			<title>Sheet.47</title>
			<path d="M0 612 L53.03 612" class="st1"/>
		</g>
		<g id="shape48-142" v:mID="48" v:groupContext="shape" transform="translate(458.238,-139.075)">
			<title>Sheet.48</title>
			<path d="M0 612 L33.38 612" class="st1"/>
		</g>
		<g id="shape49-145" v:mID="49" v:groupContext="shape" transform="translate(492.045,-107.71)">
			<title>Sheet.49</title>
			<path d="M0 612 L10.24 612" class="st1"/>
		</g>
		<g id="shape50-148" v:mID="50" v:groupContext="shape" transform="translate(1033.86,200.867) rotate(60.2551)">
			<title>Sheet.50</title>
			<path d="M0 612 L10.32 612" class="st1"/>
		</g>
		<g id="shape51-151" v:mID="51" v:groupContext="shape" transform="translate(508.048,-98.3214)">
			<title>Sheet.51</title>
			<path d="M0 612 L26.24 612" class="st1"/>
		</g>
		<g id="shape52-154" v:mID="52" v:groupContext="shape" transform="translate(1067.58,814.1) rotate(120.343)">
			<title>Sheet.52</title>
			<path d="M0 612 L10.14 612" class="st1"/>
		</g>
		<g id="shape53-157" v:mID="53" v:groupContext="shape" transform="translate(549.228,1116.93) rotate(180)">
			<title>Sheet.53</title>
			<path d="M0 612 L9.81 612" class="st1"/>
		</g>
		<g id="shape54-160" v:mID="54" v:groupContext="shape" transform="translate(-62.5588,513.465) rotate(-90)">
			<title>Sheet.54</title>
			<path d="M0 612 L60.6 612" class="st1"/>
		</g>
		<g id="shape55-163" v:mID="55" v:groupContext="shape" transform="translate(605.984,1126.11) rotate(180)">
			<title>Sheet.55</title>
			<path d="M0 612 L56.54 612" class="st1"/>
		</g>
		<g id="shape56-166" v:mID="56" v:groupContext="shape" transform="translate(560.323,1098.79) rotate(180)">
			<title>Sheet.56</title>
			<path d="M0 612 L10.88 612" class="st1"/>
		</g>
		<g id="shape57-169" v:mID="57" v:groupContext="shape" transform="translate(559.896,1084.93) rotate(180)">
			<title>Sheet.57</title>
			<path d="M0 612 L10.46 612" class="st1"/>
		</g>
		<g id="shape58-172" v:mID="58" v:groupContext="shape" transform="translate(578.246,1084.93) rotate(180)">
			<title>Sheet.58</title>
			<path d="M0 612 L8.96 612" class="st1"/>
		</g>
		<g id="shape59-175" v:mID="59" v:groupContext="shape" transform="translate(577.819,1099.01) rotate(180)">
			<title>Sheet.59</title>
			<path d="M0 612 L7.68 612" class="st1"/>
		</g>
		<g id="shape60-178" v:mID="60" v:groupContext="shape" transform="translate(-41.862,487.007) rotate(-90)">
			<title>Sheet.60</title>
			<path d="M0 612 L14.08 612" class="st1"/>
		</g>
		<g id="shape61-181" v:mID="61" v:groupContext="shape" transform="translate(-33.754,476.766) rotate(-90)">
			<title>Sheet.61</title>
			<path d="M0 612 L3.84 612" class="st1"/>
		</g>
		<g id="shape62-184" v:mID="62" v:groupContext="shape" transform="translate(-34.1807,513.465) rotate(-90)">
			<title>Sheet.62</title>
			<path d="M0 612 L26.46 612" class="st1"/>
		</g>
		<g id="shape63-187" v:mID="63" v:groupContext="shape" transform="translate(578.246,1073.99) rotate(180)">
			<title>Sheet.63</title>
			<path d="M0 612 L27.95 612" class="st1"/>
		</g>
		<g id="shape64-190" v:mID="64" v:groupContext="shape" transform="translate(-33.754,461.403) rotate(-90)">
			<title>Sheet.64</title>
			<path d="M0 612 L8.53 612" class="st1"/>
		</g>
		<g id="shape65-193" v:mID="65" v:groupContext="shape" transform="translate(-22.4454,469.085) rotate(-90)">
			<title>Sheet.65</title>
			<path d="M0 612 L16.22 612" class="st1"/>
		</g>
		<g id="shape66-196" v:mID="66" v:groupContext="shape" transform="translate(-5.58928,521.147) rotate(-90)">
			<title>Sheet.66</title>
			<path d="M0 612 L69.13 612" class="st1"/>
		</g>
		<g id="shape67-199" v:mID="67" v:groupContext="shape" transform="translate(606.411,1074.04) rotate(180)">
			<title>Sheet.67</title>
			<path d="M0 612 L16.22 612" class="st1"/>
		</g>
		<g id="shape68-202" v:mID="68" v:groupContext="shape" transform="translate(-22.6588,487.007) rotate(-90)">
			<title>Sheet.68</title>
			<path d="M0 612 L6.83 612" class="st1"/>
		</g>
		<g id="shape69-205" v:mID="69" v:groupContext="shape" transform="translate(588.061,-124.993)">
			<title>Sheet.69</title>
			<path d="M0 612 L18.35 612" class="st1"/>
		</g>
		<g id="shape70-208" v:mID="70" v:groupContext="shape" transform="translate(-61.9187,437.506) rotate(-90)">
			<title>Sheet.70</title>
			<path d="M0 612 L16.64 612" class="st1"/>
		</g>
		<g id="shape71-211" v:mID="71" v:groupContext="shape" transform="translate(-45.2759,440.92) rotate(-90)">
			<title>Sheet.71</title>
			<path d="M0 612 L35.85 612" class="st1"/>
		</g>
		<g id="shape72-214" v:mID="72" v:groupContext="shape" transform="translate(605.131,1028.38) rotate(180)">
			<title>Sheet.72</title>
			<path d="M0 612 L17.5 612" class="st1"/>
		</g>
		<g id="shape73-217" v:mID="73" v:groupContext="shape" transform="translate(602.57,1051.64) rotate(180)">
			<title>Sheet.73</title>
			<path d="M0 612 L20.06 612" class="st1"/>
		</g>
		<g id="shape74-220" v:mID="74" v:groupContext="shape" transform="translate(1212.86,405.074) rotate(90)">
			<title>Sheet.74</title>
			<path d="M0 612 L9.81 612" class="st1"/>
		</g>
		<g id="shape75-223" v:mID="75" v:groupContext="shape" transform="translate(1215,417.022) rotate(90)">
			<title>Sheet.75</title>
			<path d="M0 612 L13.23 612" class="st1"/>
		</g>
		<g id="shape76-226" v:mID="76" v:groupContext="shape" transform="translate(1199.63,405.927) rotate(90)">
			<title>Sheet.76</title>
			<path d="M0 612 L32.86 612" class="st1"/>
		</g>
		<g id="shape77-229" v:mID="77" v:groupContext="shape" transform="translate(566.724,1035.64) rotate(180)">
			<title>Sheet.77</title>
			<path d="M0 612 L4.48 612" class="st1"/>
		</g>
		<g id="shape78-232" v:mID="78" v:groupContext="shape" transform="translate(637.563,1028.6) rotate(180)">
			<title>Sheet.78</title>
			<path d="M0 612 L23.04 612" class="st1"/>
		</g>
		<g id="shape79-235" v:mID="79" v:groupContext="shape" transform="translate(702,1052.49) rotate(180)">
			<title>Sheet.79</title>
			<path d="M0 612 L80.65 612" class="st1"/>
		</g>
		<g id="shape80-238" v:mID="80" v:groupContext="shape" transform="translate(1249.56,416.596) rotate(90)">
			<title>Sheet.80</title>
			<path d="M0 612 L23.47 612" class="st1"/>
		</g>
		<g id="shape81-241" v:mID="81" v:groupContext="shape" transform="translate(1232.28,429.825) rotate(90)">
			<title>Sheet.81</title>
			<path d="M0 612 L10.67 612" class="st1"/>
		</g>
		<g id="shape82-244" v:mID="82" v:groupContext="shape" transform="translate(1232.49,417.876) rotate(90)">
			<title>Sheet.82</title>
			<path d="M0 612 L2.56 612" class="st1"/>
		</g>
		<g id="shape83-247" v:mID="83" v:groupContext="shape" transform="translate(676.822,1064.66) rotate(180)">
			<title>Sheet.83</title>
			<path d="M0 612 L59.32 612" class="st1"/>
		</g>
		<g id="shape84-250" v:mID="84" v:groupContext="shape" transform="translate(1288.82,441.987) rotate(90)">
			<title>Sheet.84</title>
			<path d="M0 612 L10.67 612" class="st1"/>
		</g>
		<g id="shape85-253" v:mID="85" v:groupContext="shape" transform="translate(90,522) rotate(-90)">
			<title>Sheet.85</title>
			<path d="M0 612 L81.51 612" class="st1"/>
		</g>
		<g id="shape86-256" v:mID="86" v:groupContext="shape" transform="translate(702,1134) rotate(180)">
			<title>Sheet.86</title>
			<path d="M0 612 L95.59 612" class="st1"/>
		</g>
		<g id="shape87-259" v:mID="87" v:groupContext="shape" transform="translate(553.922,981.868) rotate(180)">
			<title>Sheet.87</title>
			<path d="M0 612 L37.98 612" class="st1"/>
		</g>
		<g id="shape88-262" v:mID="88" v:groupContext="shape" transform="translate(547.948,997.657) rotate(180)">
			<title>Sheet.88</title>
			<path d="M0 612 L32.01 612" class="st1"/>
		</g>
		<g id="shape89-265" v:mID="89" v:groupContext="shape" transform="translate(125.013,828.222) rotate(-135)">
			<title>Sheet.89</title>
			<path d="M0 612 L13.88 612" class="st1"/>
		</g>
		<g id="shape90-268" v:mID="90" v:groupContext="shape" transform="translate(120.617,802.585) rotate(-132.969)">
			<title>Sheet.90</title>
			<path d="M0 612 L21.29 612" class="st1"/>
		</g>
		<g id="shape91-271" v:mID="91" v:groupContext="shape" transform="translate(987.596,831.364) rotate(136.771)">
			<title>Sheet.91</title>
			<path d="M0 612 L14.64 612" class="st1"/>
		</g>
		<g id="shape92-274" v:mID="92" v:groupContext="shape" transform="translate(468.013,958.184) rotate(180)">
			<title>Sheet.92</title>
			<path d="M0 612 L60.04 612" class="st1"/>
		</g>
		<g id="shape93-277" v:mID="93" v:groupContext="shape" transform="translate(459.478,861.741) rotate(180)">
			<title>Sheet.93</title>
			<path d="M0 612 L74.04 612" class="st1"/>
		</g>
		<g id="shape94-280" v:mID="94" v:groupContext="shape" transform="translate(459.478,748.229) rotate(180)">
			<title>Sheet.94</title>
			<path d="M0 612 L73.4 612" class="st1"/>
		</g>
		<g id="shape95-283" v:mID="95" v:groupContext="shape" transform="translate(1072.26,113.222) rotate(90.3231)">
			<title>Sheet.95</title>
			<path d="M0 612 L139.97 612" class="st1"/>
		</g>
		<g id="shape96-286" v:mID="96" v:groupContext="shape" transform="translate(998.069,139.68) rotate(90.3231)">
			<title>Sheet.96</title>
			<path d="M0 612 L113.51 612" class="st1"/>
		</g>
		<g id="shape97-289" v:mID="97" v:groupContext="shape" transform="translate(1071.45,255.52) rotate(90.541)">
			<title>Sheet.97</title>
			<path d="M0 612 L43.53 612" class="st1"/>
		</g>
		<g id="shape98-292" v:mID="98" v:groupContext="shape" transform="translate(985.267,136.266) rotate(90.3231)">
			<title>Sheet.98</title>
			<path d="M0 612 L128.88 612" class="st1"/>
		</g>
		<g id="shape99-295" v:mID="99" v:groupContext="shape" transform="translate(984.225,271.932) rotate(90)">
			<title>Sheet.99</title>
			<path d="M0 612 L19.84 612" class="st1"/>
		</g>
		<g id="shape100-298" v:mID="100" v:groupContext="shape" transform="translate(460.267,721.771) rotate(180)">
			<title>Sheet.100</title>
			<path d="M0 612 L133.93 612" class="st1"/>
		</g>
		<g id="shape101-301" v:mID="101" v:groupContext="shape" transform="translate(1051.85,120.013) rotate(90)">
			<title>Sheet.101</title>
			<path d="M0 612 L15.57 612" class="st1"/>
		</g>
		<g id="shape102-304" v:mID="102" v:groupContext="shape" transform="translate(998.079,110.625) rotate(90)">
			<title>Sheet.102</title>
			<path d="M0 612 L15.36 612" class="st1"/>
		</g>
		<g id="shape103-307" v:mID="103" v:groupContext="shape" transform="translate(985.277,110.625) rotate(90)">
			<title>Sheet.103</title>
			<path d="M0 612 L15.36 612" class="st1"/>
		</g>
		<g id="shape104-310" v:mID="104" v:groupContext="shape" transform="translate(966.5,110.625) rotate(90)">
			<title>Sheet.104</title>
			<path d="M0 612 L24.75 612" class="st1"/>
		</g>
		<g id="shape105-313" v:mID="105" v:groupContext="shape" transform="translate(326.336,-475.771)">
			<title>Sheet.105</title>
			<path d="M0 612 L46.93 612" class="st1"/>
		</g>
		<g id="shape106-316" v:mID="106" v:groupContext="shape" transform="translate(937.482,69.6579) rotate(90)">
			<title>Sheet.106</title>
			<path d="M0 612 L161.31 612" class="st1"/>
		</g>
		<g id="shape107-319" v:mID="107" v:groupContext="shape" transform="translate(684,69.6579) rotate(90)">
			<title>Sheet.107</title>
			<path d="M0 612 L161.31 612" class="st1"/>
		</g>
		<g id="shape108-322" v:mID="108" v:groupContext="shape" transform="translate(72,-542.342)">
			<title>Sheet.108</title>
			<path d="M0 612 L253.48 612" class="st1"/>
		</g>
		<g id="shape109-325" v:mID="109" v:groupContext="shape" transform="translate(72,-381.035)">
			<title>Sheet.109</title>
			<path d="M0 612 L253.48 612" class="st1"/>
		</g>
		<g id="shape110-328" v:mID="110" v:groupContext="shape" transform="translate(325.482,-417.735)">
			<title>Sheet.110</title>
			<path d="M0 612 L46.93 612" class="st1"/>
		</g>
		<g id="shape111-331" v:mID="111" v:groupContext="shape" transform="translate(701.07,231.818) rotate(90)">
			<title>Sheet.111</title>
			<path d="M0 612 L39.26 612" class="st1"/>
		</g>
		<g id="shape112-334" v:mID="112" v:groupContext="shape" transform="translate(769.774,230.965) rotate(90)">
			<title>Sheet.112</title>
			<path d="M0 612 L90.47 612" class="st1"/>
		</g>
		<g id="shape113-337" v:mID="113" v:groupContext="shape" transform="translate(693.815,271.505) rotate(90)">
			<title>Sheet.113</title>
			<path d="M0 612 L49.07 612" class="st1"/>
		</g>
		<g id="shape114-340" v:mID="114" v:groupContext="shape" transform="translate(81.815,-340.495)">
			<title>Sheet.114</title>
			<path d="M0 612 L57.61 612" class="st1"/>
		</g>
		<g id="shape115-343" v:mID="115" v:groupContext="shape" transform="translate(136.864,939.408) rotate(180)">
			<title>Sheet.115</title>
			<path d="M0 612 L34.99 612" class="st1"/>
		</g>
		<g id="shape116-346" v:mID="116" v:groupContext="shape" transform="translate(639.136,677.151) rotate(125.538)">
			<title>Sheet.116</title>
			<path d="M0 612 L7.34 612" class="st1"/>
		</g>
		<g id="shape117-349" v:mID="117" v:groupContext="shape" transform="translate(141.132,-290.567)">
			<title>Sheet.117</title>
			<path d="M0 612 L16.64 612" class="st1"/>
		</g>
		<g id="shape118-352" v:mID="118" v:groupContext="shape" transform="translate(618.819,0.685583) rotate(58.3925)">
			<title>Sheet.118</title>
			<path d="M0 612 L6.51 612" class="st1"/>
		</g>
		<g id="shape119-355" v:mID="119" v:groupContext="shape" transform="translate(82.2417,-290.994)">
			<title>Sheet.119</title>
			<path d="M0 612 L14.51 612" class="st1"/>
		</g>
		<g id="shape120-358" v:mID="120" v:groupContext="shape" transform="translate(751.425,230.965) rotate(90)">
			<title>Sheet.120</title>
			<path d="M0 612 L10.24 612" class="st1"/>
		</g>
		<g id="shape121-361" v:mID="121" v:groupContext="shape" transform="translate(751.425,259.983) rotate(90)">
			<title>Sheet.121</title>
			<path d="M0 612 L10.24 612" class="st1"/>
		</g>
		<g id="shape122-364" v:mID="122" v:groupContext="shape" transform="translate(89.0695,-362.259)">
			<title>Sheet.122</title>
			<path d="M0 612 L13.66 612" class="st1"/>
		</g>
		<g id="shape123-367" v:mID="123" v:groupContext="shape" transform="translate(731.795,250.595) rotate(90)">
			<title>Sheet.123</title>
			<path d="M0 612 L19.63 612" class="st1"/>
		</g>
		<g id="shape124-370" v:mID="124" v:groupContext="shape" transform="translate(119.795,-361.405)">
			<title>Sheet.124</title>
			<path d="M0 612 L18.78 612" class="st1"/>
		</g>
		<g id="shape125-373" v:mID="125" v:groupContext="shape" transform="translate(732.648,231.818) rotate(90)">
			<title>Sheet.125</title>
			<path d="M0 612 L7.68 612" class="st1"/>
		</g>
		<g id="shape126-376" v:mID="126" v:groupContext="shape" transform="translate(715.579,231.818) rotate(90)">
			<title>Sheet.126</title>
			<path d="M0 612 L7.68 612" class="st1"/>
		</g>
		<g id="shape127-379" v:mID="127" v:groupContext="shape" transform="translate(213.677,883.932) rotate(180)">
			<title>Sheet.127</title>
			<path d="M0 612 L55.9 612" class="st1"/>
		</g>
		<g id="shape128-382" v:mID="128" v:groupContext="shape" transform="translate(371.997,883.932) rotate(180)">
			<title>Sheet.128</title>
			<path d="M0 612 L135.7 612" class="st1"/>
		</g>
		<g id="shape129-385" v:mID="129" v:groupContext="shape" transform="translate(339.993,900.148) rotate(180)">
			<title>Sheet.129</title>
			<path d="M0 612 L166.86 612" class="st1"/>
		</g>
		<g id="shape130-388" v:mID="130" v:groupContext="shape" transform="translate(784.71,288.148) rotate(90)">
			<title>Sheet.130</title>
			<path d="M0 612 L10.24 612" class="st1"/>
		</g>
		<g id="shape131-391" v:mID="131" v:groupContext="shape" transform="translate(972.475,214.749) rotate(90)">
			<title>Sheet.131</title>
			<path d="M0 612 L56.33 612" class="st1"/>
		</g>
		<g id="shape132-394" v:mID="132" v:groupContext="shape" transform="translate(1122.69,124.28) rotate(90)">
			<title>Sheet.132</title>
			<path d="M0 612 L168.99 612" class="st1"/>
		</g>
		<g id="shape133-397" v:mID="133" v:groupContext="shape" transform="translate(510.687,736.28) rotate(180)">
			<title>Sheet.133</title>
			<path d="M0 612 L49.29 612" class="st1"/>
		</g>
		<g id="shape134-400" v:mID="134" v:groupContext="shape" transform="translate(473.134,870.435) rotate(180)">
			<title>Sheet.134</title>
			<path d="M0 612 L13.74 612" class="st1"/>
		</g>
		<g id="shape135-403" v:mID="135" v:groupContext="shape" transform="translate(510.687,870.435) rotate(180)">
			<title>Sheet.135</title>
			<path d="M0 612 L10.24 612" class="st1"/>
		</g>
		<g id="shape136-406" v:mID="136" v:groupContext="shape" transform="translate(158.777,-450)">
			<title>Sheet.136</title>
			<desc>Basketball Court</desc>
			<v:textBlock v:margins="rect(4,4,4,4)"/>
			<v:textRect cx="39.2227" cy="596.796" width="78.45" height="30.4088"/>
			<rect x="0" y="581.591" width="78.4453" height="30.4088" class="st2"/>
			<text x="10.07" y="592.6" class="st3" v:langID="1033"><v:paragraph v:horizAlign="1"/><v:tabList/>Basketball <tspan
						x="23.34" dy="1.2em" class="st4">Court</tspan></text>		</g>
		<g id="shape137-410" v:mID="137" v:groupContext="shape" transform="translate(230.936,-357.233)">
			<title>Sheet.137</title>
			<desc>Breezeway</desc>
			<v:textBlock v:margins="rect(4,4,4,4)"/>
			<v:textRect cx="39.2227" cy="608.207" width="78.45" height="7.58645"/>
			<rect x="0" y="604.414" width="78.4453" height="7.58645" class="st2"/>
			<text x="8.24" y="612.41" class="st3" v:langID="1033"><v:paragraph v:horizAlign="1"/><v:tabList/>Breezeway</text>		</g>
		<g id="shape138-413" v:mID="138" v:groupContext="shape" transform="translate(91.1558,-311.145)">
			<title>Sheet.138</title>
			<desc>Gym</desc>
			<v:textBlock v:margins="rect(4,4,4,4)"/>
			<v:textRect cx="28.8285" cy="608.207" width="57.66" height="7.58645"/>
			<rect x="0" y="604.414" width="57.657" height="7.58645" class="st2"/>
			<text x="15.65" y="612.41" class="st3" v:langID="1033"><v:paragraph v:horizAlign="1"/><v:tabList/>Gym</text>		</g>
		<g id="shape139-416" v:mID="139" v:groupContext="shape" transform="translate(319.887,-444.287)">
			<title>Sheet.139</title>
			<desc>Gallery</desc>
			<v:textBlock v:margins="rect(4,4,4,4)"/>
			<v:textRect cx="28.8285" cy="608.207" width="57.66" height="7.58645"/>
			<rect x="0" y="604.414" width="57.657" height="7.58645" class="st2"/>
			<text x="8.75" y="612.41" class="st3" v:langID="1033"><v:paragraph v:horizAlign="1"/><v:tabList/>Gallery</text>		</g>
		<g id="shape140-419" v:mID="140" v:groupContext="shape" transform="translate(394.614,-422.476)">
			<title>Sheet.140</title>
			<desc>Theater</desc>
			<v:textBlock v:margins="rect(4,4,4,4)"/>
			<v:textRect cx="28.8285" cy="608.207" width="57.66" height="7.58645"/>
			<rect x="0" y="604.414" width="57.657" height="7.58645" class="st2"/>
			<text x="6.64" y="612.41" class="st3" v:langID="1033"><v:paragraph v:horizAlign="1"/><v:tabList/>Theater</text>		</g>
		<g id="shape141-422" v:mID="141" v:groupContext="shape" transform="translate(386.079,-337.508)">
			<title>Sheet.141</title>
			<desc>Game Room</desc>
			<v:textBlock v:margins="rect(4,4,4,4)"/>
			<v:textRect cx="28.8285" cy="608.207" width="57.66" height="7.58645"/>
			<rect x="0" y="604.414" width="57.657" height="7.58645" class="st2"/>
			<text x="11.98" y="604.01" class="st3" v:langID="1033"><v:paragraph v:horizAlign="1"/><v:tabList/>Game <tspan x="12.05"
						dy="1.2em" class="st4">Room</tspan></text>		</g>
		<g id="shape142-426" v:mID="142" v:groupContext="shape" transform="translate(458.15,-409.2)">
			<title>Sheet.142</title>
			<desc>Patio</desc>
			<v:textBlock v:margins="rect(4,4,4,4)"/>
			<v:textRect cx="28.8285" cy="608.207" width="57.66" height="7.58645"/>
			<rect x="0" y="604.414" width="57.657" height="7.58645" class="st2"/>
			<text x="14.22" y="612.41" class="st3" v:langID="1033"><v:paragraph v:horizAlign="1"/><v:tabList/>Patio</text>		</g>
		<g id="shape143-429" v:mID="143" v:groupContext="shape" transform="translate(360.702,-272.017)">
			<title>Sheet.143</title>
			<desc>Play Room</desc>
			<v:textBlock v:margins="rect(4,4,4,4)"/>
			<v:textRect cx="22.1491" cy="600.517" width="44.3" height="22.9668"/>
			<rect x="0" y="589.033" width="44.2983" height="22.9668" class="st2"/>
			<text x="10.41" y="596.32" class="st3" v:langID="1033"><v:paragraph v:horizAlign="1"/><v:tabList/>Play <tspan x="5.37"
						dy="1.2em" class="st4">Room</tspan></text>		</g>
		<g id="shape144-433" v:mID="144" v:groupContext="shape" transform="translate(458.15,-289.713)">
			<title>Sheet.144</title>
			<desc>Family Room</desc>
			<v:textBlock v:margins="rect(4,4,4,4)"/>
			<v:textRect cx="28.8285" cy="608.207" width="57.66" height="7.58645"/>
			<rect x="0" y="604.414" width="57.657" height="7.58645" class="st2"/>
			<text x="10.29" y="604.01" class="st3" v:langID="1033"><v:paragraph v:horizAlign="1"/><v:tabList/>Family <tspan
						x="12.05" dy="1.2em" class="st4">Room</tspan></text>		</g>
		<g id="shape145-437" v:mID="145" v:groupContext="shape" transform="translate(392.202,-161.533)">
			<title>Sheet.145</title>
			<desc>Living Room</desc>
			<v:textBlock v:margins="rect(4,4,4,4)"/>
			<v:textRect cx="22.1491" cy="600.517" width="44.3" height="22.9668"/>
			<rect x="0" y="589.033" width="44.2983" height="22.9668" class="st2"/>
			<text x="5.86" y="596.32" class="st3" v:langID="1033"><v:paragraph v:horizAlign="1"/><v:tabList/>Living <tspan x="5.37"
						dy="1.2em" class="st4">Room</tspan></text>		</g>
		<g id="shape146-441" v:mID="146" v:groupContext="shape" transform="translate(499.916,-202.334)">
			<title>Sheet.146</title>
			<desc>Kitchen</desc>
			<v:textBlock v:margins="rect(4,4,4,4)"/>
			<v:textRect cx="28.8285" cy="608.207" width="57.66" height="7.58645"/>
			<rect x="0" y="604.414" width="57.657" height="7.58645" class="st2"/>
			<text x="7.44" y="612.41" class="st3" v:langID="1033"><v:paragraph v:horizAlign="1"/><v:tabList/>Kitchen</text>		</g>
		<g id="shape147-444" v:mID="147" v:groupContext="shape" transform="translate(551.952,-243)">
			<title>Sheet.147</title>
			<desc>Breakfast Room</desc>
			<v:textBlock v:margins="rect(4,4,4,4)"/>
			<v:textRect cx="33.0482" cy="608.207" width="66.1" height="7.58645"/>
			<rect x="0" y="604.414" width="66.0964" height="7.58645" class="st2"/>
			<text x="6.21" y="604.01" class="st3" v:langID="1033"><v:paragraph v:horizAlign="1"/><v:tabList/>Breakfast <tspan
						x="16.27" dy="1.2em" class="st4">Room</tspan></text>		</g>
		<g id="shape148-448" v:mID="148" v:groupContext="shape" transform="translate(491.343,-119.796)">
			<title>Sheet.148</title>
			<desc>Dining Room</desc>
			<v:textBlock v:margins="rect(4,4,4,4)"/>
			<v:textRect cx="28.8285" cy="596.796" width="57.66" height="30.4088"/>
			<rect x="0" y="581.591" width="57.657" height="30.4088" class="st2"/>
			<text x="10.66" y="592.6" class="st3" v:langID="1033"><v:paragraph v:horizAlign="1"/><v:tabList/>Dining <tspan
						x="12.05" dy="1.2em" class="st4">Room</tspan></text>		</g>
		<g id="shape149-452" v:mID="149" v:groupContext="shape" transform="translate(623.671,-116.533)">
			<title>Sheet.149</title>
			<desc>Garage</desc>
			<v:textBlock v:margins="rect(4,4,4,4)"/>
			<v:textRect cx="28.8285" cy="600.517" width="57.66" height="22.9668"/>
			<rect x="0" y="589.033" width="57.657" height="22.9668" class="st2"/>
			<text x="8.49" y="604.72" class="st3" v:langID="1033"><v:paragraph v:horizAlign="1"/><v:tabList/>Garage</text>		</g>
		<g id="shape150-455" v:mID="150" v:groupContext="shape" transform="translate(448.663,-153)">
			<title>Sheet.150</title>
			<desc>Entry Hall</desc>
			<v:textBlock v:margins="rect(4,4,4,4)"/>
			<v:textRect cx="25.4183" cy="593.61" width="50.84" height="36.7796"/>
			<rect x="0" y="575.22" width="50.8367" height="36.7796" class="st2"/>
			<text x="10.37" y="589.41" class="st3" v:langID="1033"><v:paragraph v:horizAlign="1"/><v:tabList/>Entry <tspan
						x="14.49" dy="1.2em" class="st4">Hall</tspan></text>		</g>
		<g id="shape151-459" v:mID="151" v:groupContext="shape" transform="translate(392.343,-213.517)">
			<title>Sheet.151</title>
			<desc>Steve’s Office</desc>
			<v:textBlock v:margins="rect(4,4,4,4)"/>
			<v:textRect cx="28.8285" cy="600.517" width="57.66" height="22.9668"/>
			<rect x="0" y="589.033" width="57.657" height="22.9668" class="st2"/>
			<text x="8.66" y="596.32" class="st3" v:langID="1033"><v:paragraph v:horizAlign="1"/><v:tabList/>Steve’s <tspan
						x="11.87" dy="1.2em" class="st4">Office</tspan></text>		</g>
		<g id="shape152-463" v:mID="152" v:groupContext="shape" v:layerMember="0" transform="translate(612,-185.625)">
			<title>Dynamic connector</title>
			<path d="M0 612 L63 612 L63 572.62" class="st5"/>
		</g>
		<g id="shape154-466" v:mID="154" v:groupContext="shape" transform="translate(634.5,-225)">
			<title>Sheet.154</title>
			<desc>Elevator Room</desc>
			<v:textBlock v:margins="rect(4,4,4,4)"/>
			<v:textRect cx="40.5" cy="603" width="81" height="18"/>
			<rect x="0" y="594" width="81" height="18" class="st6"/>
			<text x="4.62" y="606.6" class="st7" v:langID="1033"><v:paragraph v:horizAlign="1"/><v:tabList/>Elevator Room  </text>		</g>
		<g id="shape155-469" v:mID="155" v:groupContext="shape" v:layerMember="0" transform="translate(419.625,-252)">
			<title>Dynamic connector.155</title>
			<path d="M0 612 L-91.13 612 L-91.13 643.5" class="st5"/>
		</g>
		<g id="shape156-472" v:mID="156" v:groupContext="shape" transform="translate(297,-180)">
			<title>Sheet.156</title>
			<desc>Office Powder</desc>
			<v:textBlock v:margins="rect(4,4,4,4)"/>
			<v:textRect cx="31.5" cy="591.75" width="63" height="40.5"/>
			<rect x="0" y="571.5" width="63" height="40.5" class="st6"/>
			<text x="16.97" y="588.15" class="st7" v:langID="1033"><v:paragraph v:horizAlign="1"/><v:tabList/>Office <tspan
						x="12.72" dy="1.2em" class="st4">Powder </tspan> </text>		</g>
		<g id="shape158-476" v:mID="158" v:groupContext="shape" v:layerMember="1" transform="translate(634.8,-265.5)">
			<title>Orthogonal</title>
			<desc>Bulter’s Hall</desc>
			<v:userDefs>
				<v:ud v:nameU="BackFillColor" v:prompt="" v:val="VT5(#96afcf)"/>
				<v:ud v:nameU="BackLineColor" v:prompt="" v:val="VT5(#1f477d)"/>
				<v:ud v:nameU="BackCharColor" v:prompt="" v:val="VT5(#000000)"/>
				<v:ud v:nameU="DarkerColor" v:prompt="" v:val="VT5(#000000)"/>
				<v:ud v:nameU="visVersion" v:prompt="" v:val="VT0(15):26"/>
				<v:ud v:nameU="msvStructureType" v:prompt="" v:val="VT4(Callout)"/>
				<v:ud v:nameU="msvSDTargetIntersection" v:prompt=""/>
				<v:ud v:nameU="msvSDCalloutNoHighlight" v:prompt="" v:val="VT0(0):5"/>
				<v:ud v:nameU="msvShapeCategories" v:prompt="" v:val="VT0(0):26"/>
				<v:ud v:nameU="Side" v:prompt="" v:val="VT0(4):26"/>
				<v:ud v:nameU="LeaderEnd" v:prompt="" v:val="VT7(PNT(0.25,-0.25)):40"/>
				<v:ud v:nameU="WHBoxIntersection" v:prompt="" v:val="VT7(PNT(0.40384615384615,0)):40"/>
				<v:ud v:nameU="IsEndInterior" v:prompt="" v:val="VT0(0):5"/>
				<v:ud v:nameU="Extension" v:prompt="" v:val="VT0(0.0625):0"/>
				<v:ud v:nameU="Inset" v:prompt="" v:val="VT0(0.0625):0"/>
				<v:ud v:nameU="Embellishment" v:prompt="" v:val="VT0(2):26"/>
				<v:ud v:nameU="MultiFormat" v:prompt="" v:val="VT0(0):26"/>
				<v:ud v:nameU="visMasterStencil" v:prompt="" v:val="VT4(SDCALL_U.vssx)"/>
				<v:ud v:nameU="LeaderEnd" v:prompt="" v:val="VT7(PNT(-0.98854166666667,-1.40625)):40"/>
				<v:ud v:nameU="WHBoxIntersection" v:prompt="" v:val="VT7(PNT(0,0)):40"/>
			</v:userDefs>
			<v:textBlock v:margins="rect(4,4,4,4)"/>
			<v:textRect cx="36" cy="600.75" width="72" height="20.0036"/>
			<path d="M0 612 L-71.17 713.25" class="st5"/>
			<path d="M0 607.5 L0 612 L72 612 L72 607.5" class="st5"/>
			<text x="11.46" y="603.75" class="st8" v:langID="1033"><v:paragraph v:horizAlign="1"/><v:tabList/>Bulter’s Hall</text>		</g>
	</g>
</svg>
