<svg xmlns="http://www.w3.org/2000/svg"  viewBox="0 0 64 64" width="48px" height="48px"><path d="M26.537 9.997c1.02 0 2.021.348 2.852 1.021l24.589 17.576c1.008.852 1.586 2.093 1.586 3.406 0 1.313-.578 2.554-1.586 3.406L29.389 52.982c-1.361 1.105-3.185 1.332-4.787.589C22.997 52.826 22 51.273 22 49.518V14.482c0-1.755.997-3.309 2.602-4.054C25.227 10.139 25.886 9.997 26.537 9.997zM26.878 49.868l24.556-17.553c.227-.175.223-.441 0-.63L26.878 14.132c-.543-.397-.884-.118-.878.351v35.035C26 49.874 26.439 50.185 26.878 49.868zM16 54c-1.104 0-2-.896-2-2V12c0-1.104.896-2 2-2s2 .896 2 2v40C18 53.104 17.104 54 16 54z"/></svg>