<?xml version="1.0" encoding="iso-8859-1"?><!-- Generator: Adobe Illustrator 22.1.0, SVG Export Plug-In . SVG Version: 6.00 Build 0)  --><svg xmlns="http://www.w3.org/2000/svg" xmlns:xlink="http://www.w3.org/1999/xlink" viewBox="0 0 24 24" width="100px" height="100px"><g id="Rounded"><path d="M2,9h2c0.552,0,1,0.448,1,1v10c0,0.552-0.448,1-1,1H2c-0.552,0-1-0.448-1-1V10C1,9.448,1.448,9,2,9z"/><path d="M17.993,21H9c-1.105,0-2-0.895-2-2V9.008c0-0.53,0.21-1.038,0.584-1.413l5.53-5.54c0.583-0.584,1.527-0.588,2.115-0.01l0,0c0.367,0.361,0.524,0.886,0.414,1.39L14.649,8H21c1.105,0,2,0.895,2,2v1.999c0,0.271-0.055,0.54-0.162,0.789l-3.007,7.001C19.515,20.524,18.792,21,17.993,21z"/></g></svg>