<!-- Generator: Adobe Illustrator 24.0.0, SVG Export Plug-In  -->
<svg version="1.1"
     xmlns="http://www.w3.org/2000/svg"
     xmlns:xlink="http://www.w3.org/1999/xlink"
     x="0px"
     y="0px"
     width="284px"
     height="35.2px"
     viewBox="0 0 284 35.2"
     style="enable-background:new 0 0 284 35.2;"
     xml:space="preserve">
<style type="text/css">
	.st0{fill:#1D1D1B;}
	.st1{fill:#CE1422;}
	.st2{fill:#545049;}
	.st3{fill:#159EAB;}
	.st4{fill:#822C18;}
	.st5{fill:#BC1D21;}
	.st6{fill:#FDCB29;}
	.st7{fill:#93191D;}
</style>
  <defs>
</defs>
  <g id="layer1_1_" transform="translate(208.21 179.92)">
	<g id="g700_1_" transform="matrix(2.6459,0,0,-2.6459,-207.72,-156.96)">
		<path id="path702_1_" class="st0" d="M-0.2,0.2h2.3v-1.5c0-0.7,0-1.5,1.1-1.5c1.2,0,1.2,0.8,1.2,1.9c0,0.9-0.2,1.3-0.8,1.7
			L1.4,2.3C0.2,3.1-0.1,4-0.1,5.3c0,1,0.1,1.9,0.9,2.6c0.5,0.4,1.3,0.8,2.6,0.8c1.4,0,3.3-0.6,3.3-2.7V4.7H4.3v0.9
			c0,0.6,0,1.3-1,1.3c-0.6,0-1.1-0.2-1.1-1.3c0-1.1,0.2-1.3,0.7-1.6l2.3-1.6c0.5-0.3,0.9-0.8,1.2-1.2c0.3-0.6,0.3-1,0.3-2
			c0-1.1,0-1.8-0.4-2.5c-0.7-1.1-2.2-1.3-3-1.3c-2,0-3.5,0.8-3.5,2.9C-0.2-1.7-0.2,0.2-0.2,0.2z"/>
	</g>
    <g id="g704_1_" transform="matrix(2.6459,0,0,-2.6459,-171.42,-170.57)">
		<path id="path706_1_" class="st1" d="M-0.2,0.2c0,0.7,0,1.6-1.1,1.6c-1.2,0-1.2-1-1.2-1.7v-6.4c0-0.7,0-1.6,1.2-1.6
			c1.2,0,1.2,0.9,1.2,1.5C-0.2-6.4-0.2,0.2-0.2,0.2z M2.2-6.8c0-0.9-0.2-1.6-0.7-2.1c-0.8-0.8-2-0.9-2.8-0.9c-2.9,0-3.6,1.4-3.6,3
			v7.1c0,0.5,0,1.5,0.7,2.2c0.5,0.5,1.4,1,2.9,1c1.2,0,2.1-0.3,2.7-0.8C2,2.2,2.2,1.5,2.2,0.3C2.2,0.3,2.2-6.8,2.2-6.8z"/>
	</g>
    <g id="g708_1_" transform="matrix(2.6459,0,0,-2.6459,-159.04,-178.79)">
		<path id="path710_1_" class="st2" d="M-0.2,0.2h2.4v-9.5c0-0.7,0-1.5,1.1-1.5c1.1,0,1.1,0.8,1.1,1.6v9.5h2.4v-9.9
			c0-1.7-0.7-3.1-3.5-3.1c-2.2,0-3.4,1.1-3.4,3.2V0.2z"/>
	</g>
    <g id="g712_1_" transform="matrix(2.6459,0,0,-2.6459,-114.95,-145.06)">
		<path id="path714_1_" class="st3" d="M-0.2,0.2h-3l-2.3,9.6l0.2-9.6h-2.2v12.7h3l2.3-9.4l-0.2,9.4h2.1C-0.2,12.9-0.2,0.2-0.2,0.2z
			"/>
	</g>
    <g id="g716_1_" transform="matrix(2.6459,0,0,-2.6459,-101.95,-149.98)">
		<path id="path718_1_" class="st4" d="M-0.2,0.2c1.1,0,1.3,0,1.5,0c0.8,0.1,0.8,0.9,0.8,1.3v6.4c0,1.1-0.4,1.3-1.4,1.3h-0.9
			C-0.2,9.2-0.2,0.2-0.2,0.2z M-2.5,11h3.8c0.8,0,1.7,0,2.5-0.8c0.7-0.7,0.8-1.6,0.8-2.6v-6c0-1.8-0.3-3.4-3.2-3.4h-3.8V11z"/>
	</g>
    <g id="g720_1_" transform="matrix(2.6459,0,0,-2.6459,-83.564,-178.79)">
		<path id="path722_1_" class="st5" d="M-0.2,0.2h3.8l1.5-8.9l1.5,8.9h3.8v-12.7H8.1L8.3-1.5L6.2-12.6H4L1.9-1.5l0.2-11.1h-2.3
			C-0.2-12.6-0.2,0.2-0.2,0.2z"/>
	</g>
    <g id="g724_1_" transform="matrix(2.6459,0,0,-2.6459,-43.718,-155.76)">
		<path id="path726_1_" class="st6" d="M-0.2,0.2h1.6L0.7,5.6L-0.2,0.2z M-0.7,8.9H2L4.4-3.9H2L1.7-1.8h-2.2l-0.3-2.1h-2.3
			C-3.2-3.9-0.7,8.9-0.7,8.9z"/>
	</g>
    <g id="g728_1_" transform="matrix(2.6459,0,0,-2.6459,-15.82,-166.46)">
		<path id="path730_1_" class="st2" d="M-0.2,0.2v1.6c0,1-0.2,1.5-1.2,1.5c-1,0-1.1-0.8-1.1-1.4v-6.8c0-0.8,0.1-1.4,1.2-1.4
			c1.1,0,1.1,0.8,1.1,1.6v1.7h2.3V-5c0-1,0-3.2-3.5-3.2c-0.7,0-1.7,0.1-2.5,0.6c-1,0.7-1,1.7-1,2.4v6.9c0,1,0.1,1.7,0.6,2.4
			c0.9,1,2.4,1,2.9,1c3.5,0,3.5-2.1,3.5-3v-2C2.1,0.2-0.2,0.2-0.2,0.2z"/>
	</g>
    <g id="g732_1_" transform="matrix(2.6459,0,0,-2.6459,-4.2133,-178.79)">
		<path id="path734_1_"
          class="st3"
          d="M-0.2,0.2h2.3v-5h2.1v5h2.3v-12.7H4.3v5.8H2.2v-5.8h-2.3C-0.2-12.6-0.2,0.2-0.2,0.2z"/>
	</g>
    <path id="path736_1_" class="st1" d="M20.2-179.2h6.2v33.7h-6.2V-179.2z"/>
    <g id="g738_1_" transform="matrix(2.6459,0,0,-2.6459,52.735,-145.06)">
		<path id="path740_1_" class="st7" d="M-0.2,0.2h-3l-2.3,9.6l0.2-9.6h-2.2v12.7h3l2.3-9.4l-0.2,9.4h2.1C-0.2,12.9-0.2,0.2-0.2,0.2z
			"/>
	</g>
    <g id="g742_1_" transform="matrix(2.6459,0,0,-2.6459,59.52,-178.84)">
		<path id="path744_1_"
          class="st4"
          d="M-0.2,0.2H6v-2H2.2v-3h3.6v-1.9H2.2v-3.9h4v-2h-6.3C-0.2-12.6-0.2,0.2-0.2,0.2z"/>
	</g>
</g>
</svg>