<?xml version="1.0" encoding="utf-8"?><!-- Generator: Adobe Illustrator 19.1.1, SVG Export Plug-In . SVG Version: 6.00 Build 0)  --><svg xmlns="http://www.w3.org/2000/svg" xmlns:xlink="http://www.w3.org/1999/xlink" viewBox="0 0 50 50" width="100px" height="100px"><path fill="none" stroke="#000000" stroke-width="2" stroke-linecap="round" stroke-miterlimit="10" d="M38,23c0-7.2-5.8-13-13-13s-13,5.8-13,13c0,9.2,8,12,8,16h10C30,35,38,32.3,38,23z"/><path d="M28,45c0,1.7-1.3,3-3,3s-3-1.3-3-3H28z"/><line fill="none" stroke="#000000" stroke-width="2" stroke-linecap="round" stroke-miterlimit="10" x1="42" y1="23" x2="46" y2="23"/><line fill="none" stroke="#000000" stroke-width="2" stroke-linecap="round" stroke-miterlimit="10" x1="4" y1="23" x2="8" y2="23"/><line fill="none" stroke="#000000" stroke-width="2" stroke-linecap="round" stroke-miterlimit="10" x1="37" y1="35" x2="39.8" y2="37.8"/><line fill="none" stroke="#000000" stroke-width="2" stroke-linecap="round" stroke-miterlimit="10" x1="10.2" y1="8.2" x2="13" y2="11"/><line fill="none" stroke="#000000" stroke-width="2" stroke-linecap="round" stroke-miterlimit="10" x1="37" y1="11" x2="39.8" y2="8.2"/><line fill="none" stroke="#000000" stroke-width="2" stroke-linecap="round" stroke-miterlimit="10" x1="10.2" y1="37.8" x2="13" y2="35"/><line fill="none" stroke="#000000" stroke-width="2" stroke-linecap="round" stroke-miterlimit="10" x1="25" y1="2" x2="25" y2="6"/><path d="M25,42h6v-4H19v4h3c0.6,0,1,0.4,1,1s-0.4,1-1,1h-3c0,1.7,1.3,3,3,3h6c1.7,0,3-1.3,3-3h-6c-0.6,0-1-0.4-1-1S24.4,42,25,42z"/><rect x="19" y="40" width="2" height="4"/><rect x="29" y="41" width="2" height="3"/></svg>