<?xml version="1.0" encoding="iso-8859-1"?><!-- Generator: Adobe Illustrator 21.1.0, SVG Export Plug-In . SVG Version: 6.00 Build 0)  --><svg xmlns="http://www.w3.org/2000/svg" xmlns:xlink="http://www.w3.org/1999/xlink" viewBox="0 0 50 50" width="100px" height="100px"><path d="M41,25H9c-0.55,0-1,0.45-1,1v19c0,0.55,0.45,1,1,1h32c0.55,0,1-0.45,1-1V26C42,25.45,41.55,25,41,25z"/><line style="fill:none;stroke:#000000;stroke-width:2;stroke-miterlimit:10;" x1="2" y1="6" x2="6" y2="6"/><line style="fill:none;stroke:#000000;stroke-width:2;stroke-miterlimit:10;" x1="8" y1="6" x2="43" y2="6"/><line style="fill:none;stroke:#000000;stroke-width:2;stroke-miterlimit:10;" x1="45" y1="6" x2="48" y2="6"/><line style="fill:none;stroke:#000000;stroke-width:2;stroke-miterlimit:10;" x1="2" y1="10" x2="6" y2="10"/><line style="fill:none;stroke:#000000;stroke-width:2;stroke-miterlimit:10;" x1="8" y1="10" x2="43" y2="10"/><line style="fill:none;stroke:#000000;stroke-width:2;stroke-miterlimit:10;" x1="45" y1="10" x2="48" y2="10"/><line style="fill:none;stroke:#000000;stroke-width:2;stroke-miterlimit:10;" x1="2" y1="14" x2="6" y2="14"/><line style="fill:none;stroke:#000000;stroke-width:2;stroke-miterlimit:10;" x1="8" y1="14" x2="43" y2="14"/><line style="fill:none;stroke:#000000;stroke-width:2;stroke-miterlimit:10;" x1="45" y1="14" x2="48" y2="14"/><line style="fill:none;stroke:#000000;stroke-width:2;stroke-miterlimit:10;" x1="2" y1="18" x2="6" y2="18"/><line style="fill:none;stroke:#000000;stroke-width:2;stroke-miterlimit:10;" x1="8" y1="18" x2="43" y2="18"/><line style="fill:none;stroke:#000000;stroke-width:2;stroke-miterlimit:10;" x1="45" y1="18" x2="48" y2="18"/><line style="fill:none;stroke:#000000;stroke-width:2;stroke-miterlimit:10;" x1="2" y1="22" x2="6" y2="22"/><line style="fill:none;stroke:#000000;stroke-width:2;stroke-miterlimit:10;" x1="8" y1="22" x2="43" y2="22"/><line style="fill:none;stroke:#000000;stroke-width:2;stroke-miterlimit:10;" x1="45" y1="22" x2="48" y2="22"/><line style="fill:none;stroke:#000000;stroke-width:2;stroke-linejoin:round;stroke-miterlimit:10;" x1="6" y1="5" x2="6" y2="23"/><line style="fill:none;stroke:#000000;stroke-width:2;stroke-linejoin:round;stroke-miterlimit:10;" x1="43" y1="5" x2="43" y2="23"/><circle cx="46" cy="26" r="1"/><circle cx="46" cy="29" r="1"/><circle cx="46" cy="32" r="1"/><circle cx="46" cy="35" r="1"/><circle cx="46" cy="38" r="1"/><path d="M46,44L46,44c-1.1,0-2-0.9-2-2l0,0c0-1.1,0.9-2,2-2l0,0c1.1,0,2,0.9,2,2l0,0C48,43.1,47.1,44,46,44z"/></svg>