<?xml version="1.0" encoding="utf-8"?><!-- Generator: Adobe Illustrator 15.0.0, SVG Export Plug-In . SVG Version: 6.00 Build 0)  --><!DOCTYPE svg PUBLIC "-//W3C//DTD SVG 1.1//EN" "http://www.w3.org/Graphics/SVG/1.1/DTD/svg11.dtd"><svg xmlns="http://www.w3.org/2000/svg" xmlns:xlink="http://www.w3.org/1999/xlink" viewBox="0 0 50 50" width="100px" height="100px"><rect fill="none" width="50" height="50"/><path d="M49,14c-0.553,0-1-0.448-1-1c0-0.03-0.084-3.579-3.716-7.302C40.673,1.996,37.149,1.986,37.02,2c-0.005,0-0.01,0-0.014,0c-0.544,0-0.992-0.436-1.003-0.981c-0.01-0.55,0.422-1.005,0.972-1.019c0.196-0.01,4.481-0.065,8.741,4.301C49.951,8.643,50,12.824,50,13C50,13.552,49.553,14,49,14z"/><path d="M43,14c-0.553,0-1-0.448-1-1c-0.001-0.056-0.056-1.642-1.707-3.293S37.056,8.001,36.989,8C36.441,7.987,36,7.537,36.006,6.989S36.452,6,37,6c0.099,0,2.44,0.026,4.707,2.293C43.974,10.56,44,12.901,44,13C44,13.552,43.553,14,43,14z"/><circle cx="28" cy="22" r="2"/><path d="M42.807,18.393l-11.199-11.2c-1.529-1.529-4.216-1.569-5.916,0.001L1.193,31.793c-1.592,1.593-1.604,4.178,0,5.914l11.2,11.2c0.769,0.77,1.806,1.193,2.919,1.193c1.098,0,2.152-0.414,2.995-1.193l24.552-24.556C44.388,22.567,44.364,19.95,42.807,18.393z M10,36c-1.104,0-2-0.896-2-2s0.896-2,2-2s2,0.896,2,2S11.104,36,10,36z M13,29c0-1.104,0.896-2,2-2s2,0.896,2,2s-0.896,2-2,2S13,30.104,13,29z M16,42c-1.104,0-2-0.896-2-2s0.896-2,2-2s2,0.896,2,2S17.104,42,16,42z M21,37c-1.104,0-2-0.896-2-2s0.896-2,2-2s2,0.896,2,2S22.104,37,21,37z M28,29c-3.866,0-7-3.134-7-7s3.134-7,7-7s7,3.134,7,7S31.866,29,28,29z"/></svg>