<?xml version="1.0" encoding="utf-8"?>
<!-- Generator: Adobe Illustrator 24.1.0, SVG Export Plug-In . SVG Version: 6.00 Build 0)  -->
<svg version="1.1" id="Layer_1" xmlns="http://www.w3.org/2000/svg" xmlns:xlink="http://www.w3.org/1999/xlink" 
	height='90px'  width='105px' viewBox="0 0 74.9999695 60" enable-background="new 0 0 74.9999695 60" xml:space="preserve">
<g>
	<polygon fill="#FDB924" points="18.7499695,30.9807434 25.9668274,26.8140869 18.7499695,22.6474304 18.7499695,30.9807434 	"/>
	<polygon fill="#699AC5" points="18.7499695,19.6570435 25.9668274,15.490387 18.7499695,11.3237305 18.7499695,19.6570435 	"/>
	<polygon fill="#699AC5" points="19.6132202,32.4759521 26.8301086,36.6426086 26.8301086,28.3092957 19.6132202,32.4759521 	"/>
	<polygon fill="#005890" points="19.6132202,21.1522522 26.8301086,25.3189087 26.8301086,16.9855652 19.6132202,21.1522522 	"/>
	<polygon fill="#005890" points="19.6132202,9.8285217 26.8301086,13.9951782 26.8301086,5.6618652 19.6132202,9.8285217 	"/>
	<polygon fill="#005890" points="28.5565796,25.3189087 35.773468,21.1522522 28.5565796,16.9855652 28.5565796,25.3189087 	"/>
	<polygon fill="#005890" points="28.5565796,13.9951782 35.773468,9.8285217 28.5565796,5.6618652 28.5565796,13.9951782 	"/>
	<polygon fill="#699AC5" points="29.4198608,38.1378174 36.6367188,42.3044739 36.6367188,33.9711609 29.4198608,38.1378174 	"/>
	<polygon fill="#699AC5" points="29.4198608,26.8140869 36.6367188,30.9807434 36.6367188,22.6474304 29.4198608,26.8140869 	"/>
	<polygon fill="#FDB924" points="29.4198608,15.490387 36.6367188,19.6570435 36.6367188,11.3237305 29.4198608,15.490387 	"/>
	<polygon fill="#699AC5" points="38.3632202,42.3044739 45.5800934,38.1378174 38.3632202,33.9711609 38.3632202,42.3044739 	"/>
	<polygon fill="#699AC5" points="38.3632202,30.9807434 45.5800934,26.8140869 38.3632202,22.6474304 38.3632202,30.9807434 	"/>
	<polygon fill="#699AC5" points="38.3632202,19.6570435 45.5800934,15.490387 38.3632202,11.3237305 38.3632202,19.6570435 	"/>
	<polygon fill="#005890" points="38.3632202,8.3333435 45.5800934,4.166687 38.3632202,0 38.3632202,8.3333435 	"/>
	<polygon fill="#005890" points="39.2264709,32.4759521 46.4433594,36.6426086 46.4433594,28.3092957 39.2264709,32.4759521 	"/>
	<polygon fill="#699AC5" points="39.2264709,9.8285217 46.4433594,13.9951782 46.4433594,5.6618652 39.2264709,9.8285217 	"/>
	<polygon fill="#FDB924" points="48.1698608,36.6426086 55.386734,32.4759521 48.1698608,28.3092957 48.1698608,36.6426086 	"/>
	<polygon fill="#005890" points="48.1698608,13.9951782 55.386734,9.8285217 48.1698608,5.6618652 48.1698608,13.9951782 	"/>
	<polygon fill="#005890" points="49.0331116,26.8140869 56.2499847,30.9807434 56.2499847,22.6474304 49.0331116,26.8140869 	"/>
	<polygon fill="#005890" points="49.0331116,15.490387 56.2499847,19.6570435 56.2499847,11.3237305 49.0331116,15.490387 	"/>
</g>
</svg>
